<svg width="1680" height="816" xmlns="http://www.w3.org/2000/svg" xmlns:xlink="http://www.w3.org/1999/xlink" overflow="hidden"><g><rect x="0" y="0" width="1680" height="816" fill="#FFFFFF"/><rect x="78" y="263" width="161" height="95" stroke="#1C440D" stroke-width="2" stroke-miterlimit="8" fill="#4EA72E"/><text fill="#FFFFFF" font-family="Aptos,Aptos_MSFontService,sans-serif" font-weight="400" font-size="24" transform="translate(120.356 303)">dohvati</text><text fill="#FFFFFF" font-family="Aptos,Aptos_MSFontService,sans-serif" font-weight="400" font-size="24" transform="translate(92.3498 332)">konfiguraciju</text><rect x="590" y="15" width="161" height="95" stroke="#1C440D" stroke-width="2" stroke-miterlimit="8" fill="#4EA72E"/><text fill="#FFFFFF" font-family="Aptos,Aptos_MSFontService,sans-serif" font-weight="400" font-size="24" transform="translate(632.241 56)">provjeri</text><text fill="#FFFFFF" font-family="Aptos,Aptos_MSFontService,sans-serif" font-weight="400" font-size="24" transform="translate(630.461 85)">pošiljku</text><rect x="590" y="137" width="161" height="95" stroke="#1C440D" stroke-width="2" stroke-miterlimit="8" fill="#4EA72E"/><text fill="#FFFFFF" font-family="Aptos,Aptos_MSFontService,sans-serif" font-weight="400" font-size="24" transform="translate(632.244 178)">provjeri</text><text fill="#FFFFFF" font-family="Aptos,Aptos_MSFontService,sans-serif" font-weight="400" font-size="24" transform="translate(631.131 207)">bateriju</text><path d="M534 315.5 670.5 256 807 315.5 670.5 375Z" fill="#000000" fill-rule="evenodd" fill-opacity="0.501961"/><text fill="#FFFFFF" font-family="Aptos,Aptos_MSFontService,sans-serif" font-weight="400" font-size="24" transform="translate(623.378 309)">potrebno</text><text fill="#FFFFFF" font-family="Aptos,Aptos_MSFontService,sans-serif" font-weight="400" font-size="24" transform="translate(627.144 338)">dojaviti?</text><rect x="79" y="139" width="161" height="95" stroke="#1C440D" stroke-width="2" stroke-miterlimit="8" fill="#4EA72E"/><text fill="#FFFFFF" font-family="Aptos,Aptos_MSFontService,sans-serif" font-weight="400" font-size="24" transform="translate(96.2707 180)">poveži se na</text><text fill="#FFFFFF" font-family="Aptos,Aptos_MSFontService,sans-serif" font-weight="400" font-size="24" transform="translate(97.884 209)">Wi</text><text fill="#FFFFFF" font-family="Aptos,Aptos_MSFontService,sans-serif" font-weight="400" font-size="24" transform="translate(124.884 209)">-</text><text fill="#FFFFFF" font-family="Aptos,Aptos_MSFontService,sans-serif" font-weight="400" font-size="24" transform="translate(133.051 209)">Fi mrežu</text><path d="M22 441.5 158.5 382 295 441.5 158.5 501Z" fill="#000000" fill-rule="evenodd" fill-opacity="0.501961"/><text fill="#FFFFFF" font-family="Aptos,Aptos_MSFontService,sans-serif" font-weight="400" font-size="24" transform="translate(117.706 449)">uspjeh?</text><rect x="276" y="534" width="161" height="95" stroke="#622C0F" stroke-width="2" stroke-miterlimit="8" fill="#E97132"/><text fill="#FFFFFF" font-family="Aptos,Aptos_MSFontService,sans-serif" font-weight="400" font-size="24" transform="translate(315.953 575)">pokušaj</text><text fill="#FFFFFF" font-family="Aptos,Aptos_MSFontService,sans-serif" font-weight="400" font-size="24" transform="translate(311.74 604)">ponovno</text><rect x="78" y="534" width="161" height="95" stroke="#1C440D" stroke-width="2" stroke-miterlimit="8" fill="#4EA72E"/><text fill="#FFFFFF" font-family="Aptos,Aptos_MSFontService,sans-serif" font-weight="400" font-size="24" transform="translate(93.4696 589)">isključi Wi</text><text fill="#FFFFFF" font-family="Aptos,Aptos_MSFontService,sans-serif" font-weight="400" font-size="24" transform="translate(197.803 589)">-</text><text fill="#FFFFFF" font-family="Aptos,Aptos_MSFontService,sans-serif" font-weight="400" font-size="24" transform="translate(205.97 589)">Fi</text><rect x="788" y="15" width="161" height="95" stroke="#000000" stroke-width="2" stroke-miterlimit="8"/><text fill="#FFFFFF" font-family="Aptos,Aptos_MSFontService,sans-serif" font-weight="400" font-size="24" transform="translate(812.351 70)">spavanje…</text><rect x="590" y="403" width="161" height="95" stroke="#1C440D" stroke-width="2" stroke-miterlimit="8" fill="#4EA72E"/><text fill="#FFFFFF" font-family="Aptos,Aptos_MSFontService,sans-serif" font-weight="400" font-size="24" transform="translate(607.944 444)">poveži se na</text><text fill="#FFFFFF" font-family="Aptos,Aptos_MSFontService,sans-serif" font-weight="400" font-size="24" transform="translate(609.557 473)">Wi</text><text fill="#FFFFFF" font-family="Aptos,Aptos_MSFontService,sans-serif" font-weight="400" font-size="24" transform="translate(636.557 473)">-</text><text fill="#FFFFFF" font-family="Aptos,Aptos_MSFontService,sans-serif" font-weight="400" font-size="24" transform="translate(644.724 473)">Fi mrežu</text><rect x="590" y="649" width="161" height="95" stroke="#1C440D" stroke-width="2" stroke-miterlimit="8" fill="#4EA72E"/><text fill="#FFFFFF" font-family="Aptos,Aptos_MSFontService,sans-serif" font-weight="400" font-size="24" transform="translate(605.477 704)">isključi Wi</text><text fill="#FFFFFF" font-family="Aptos,Aptos_MSFontService,sans-serif" font-weight="400" font-size="24" transform="translate(709.811 704)">-</text><text fill="#FFFFFF" font-family="Aptos,Aptos_MSFontService,sans-serif" font-weight="400" font-size="24" transform="translate(717.977 704)">Fi</text><rect x="590" y="527" width="161" height="95" stroke="#1C440D" stroke-width="2" stroke-miterlimit="8" fill="#4EA72E"/><text fill="#FFFFFF" font-family="Aptos,Aptos_MSFontService,sans-serif" font-weight="400" font-size="24" transform="translate(629.961 568)">pokušaj</text><text fill="#FFFFFF" font-family="Aptos,Aptos_MSFontService,sans-serif" font-weight="400" font-size="24" transform="translate(633.141 597)">dojaviti</text><path d="M161 110.5 161 131.583 158 131.583 158 110.5ZM164 130.083 159.5 139.083 155 130.083Z"/><path d="M1.4999-0.0175355 1.74639 21.0664-1.2534 21.1015-1.4999 0.0175355ZM4.72865 19.5314 0.334173 28.5834-4.27073 19.6366Z" transform="matrix(-1 0 0 1 159.834 234.5)"/><path d="M1.5-1.28984e-05 1.50015 16.9186-1.49985 16.9186-1.5 1.28984e-05ZM4.50013 15.4185 0.000209974 24.4186-4.49987 15.4186Z" transform="matrix(-1 0 0 1 159.5 358.5)"/><path d="M359 501.5 359 527.267 356 527.267 356 501.5ZM362 525.767 357.5 534.767 353 525.767Z"/><path d="M161 501.5 161 527.204 158 527.204 158 501.5ZM164 525.704 159.5 534.704 155 525.704Z"/><path d="M159.5 501.5 357.5 501.5" stroke="#000000" stroke-width="3" stroke-miterlimit="8" fill="none" fill-rule="evenodd"/><path d="M9.38308e-07-1.5 160.334-1.4999 160.334 1.5001-9.38308e-07 1.5ZM158.834-4.4999 167.834 0.000104987 158.834 4.5001Z" transform="matrix(-1 0 0 1 463.334 441.5)"/><path d="M357.5 629.5 357.5 651.589" stroke="#000000" stroke-width="3" stroke-miterlimit="8" fill="none" fill-rule="evenodd"/><path d="M357.5 651.5 463.834 651.5" stroke="#000000" stroke-width="3" stroke-miterlimit="8" fill="none" fill-rule="evenodd"/><path d="M463.5 441.5 463.5 651.335" stroke="#000000" stroke-width="3" stroke-miterlimit="8" fill="none" fill-rule="evenodd"/><path d="M500.5 62.0001 583.268 62.0001 583.268 65.0002 500.5 65.0001ZM581.768 59.0001 590.768 63.5002 581.768 68.0001Z"/><path d="M1.5-4.15968e-05 1.50053 19.0011-1.49947 19.0011-1.5 4.15968e-05ZM4.50048 17.501 0.000734908 26.5011-4.49951 17.5012Z" transform="matrix(-1 0 0 1 671.501 110.5)"/><path d="M4.2562e-06-1.5 29.5002-1.49992 29.5002 1.50008-4.2562e-06 1.5ZM28.0002-4.49992 37.0002 0.000104987 28.0002 4.50008Z" transform="matrix(-1 0 0 1 788.5 63.5001)"/><path d="M673 232.5 673 249 670 249 670 232.5ZM676 247.5 671.5 256.5 667 247.5Z"/><path d="M1.5-1.10139e-05 1.50015 21.0966-1.49985 21.0967-1.5 1.10139e-05ZM4.50014 19.5966 0.000209974 28.5966-4.49986 19.5967Z" transform="matrix(-1 0 0 1 671.5 375.5)"/><path d="M846.75 376.005 846.021 119.004 849.021 118.996 849.75 375.997ZM843.026 120.513 847.5 111.5 852.026 120.487Z"/><path d="M671.5 376.5 847.875 376.5" stroke="#000000" stroke-width="3" stroke-miterlimit="8" fill="none" fill-rule="evenodd"/><path d="M1.5-1.10139e-05 1.50015 21.0965-1.49985 21.0965-1.5 1.10139e-05ZM4.50014 19.5965 0.000209974 28.5965-4.49986 19.5966Z" transform="matrix(-1 0 0 1 671.5 498.5)"/><path d="M1.5-1.18988e-05 1.50015 18.97-1.49985 18.97-1.5 1.18988e-05ZM4.50014 17.47 0.000209974 26.47-4.49986 17.4701Z" transform="matrix(-1 0 0 1 671.5 622.5)"/><path d="M1.5-2.39172e-07 1.5001 650.94-1.4999 650.94-1.5 2.39172e-07ZM4.5001 649.44 0.000104987 658.44-4.4999 649.44Z" transform="matrix(1 0 0 -1 881.5 768.94)"/><path d="M0 0 0.000209974 25.2749" stroke="#000000" stroke-width="3" stroke-miterlimit="8" fill="none" fill-rule="evenodd" transform="matrix(-1 0 0 1 671.5 744.5)"/><path d="M0 0 210.124 0.000104987" stroke="#000000" stroke-width="3" stroke-miterlimit="8" fill="none" fill-rule="evenodd" transform="matrix(-1 0 0 1 881.624 769.5)"/><path d="M1197 62.5C1197 36.2665 1251.62 15 1319 15 1386.38 15 1441 36.2665 1441 62.5 1441 88.7335 1386.38 110 1319 110 1251.62 110 1197 88.7335 1197 62.5Z" fill="#000000" fill-rule="evenodd" fill-opacity="0.501961"/><text fill="#FFFFFF" font-family="Aptos,Aptos_MSFontService,sans-serif" font-weight="400" font-size="24" transform="translate(1243.46 56)">povezivanje na</text><text fill="#FFFFFF" font-family="Aptos,Aptos_MSFontService,sans-serif" font-weight="400" font-size="24" transform="translate(1258.02 85)">Wi</text><text fill="#FFFFFF" font-family="Aptos,Aptos_MSFontService,sans-serif" font-weight="400" font-size="24" transform="translate(1285.02 85)">-</text><text fill="#FFFFFF" font-family="Aptos,Aptos_MSFontService,sans-serif" font-weight="400" font-size="24" transform="translate(1293.19 85)">Fi mrežu</text><rect x="1239" y="139" width="161" height="95" stroke="#1C440D" stroke-width="2" stroke-miterlimit="8" fill="#4EA72E"/><text fill="#FFFFFF" font-family="Aptos,Aptos_MSFontService,sans-serif" font-weight="400" font-size="24" transform="translate(1256.28 194)">u</text><text fill="#FFFFFF" font-family="Aptos,Aptos_MSFontService,sans-serif" font-weight="400" font-size="24" transform="translate(1269.62 194)">klju</text><text fill="#FFFFFF" font-family="Aptos,Aptos_MSFontService,sans-serif" font-weight="400" font-size="24" transform="translate(1306.45 194)">či</text><text fill="#FFFFFF" font-family="Aptos,Aptos_MSFontService,sans-serif" font-weight="400" font-size="24" transform="translate(1329.62 194)">Wi</text><text fill="#FFFFFF" font-family="Aptos,Aptos_MSFontService,sans-serif" font-weight="400" font-size="24" transform="translate(1356.62 194)">-</text><text fill="#FFFFFF" font-family="Aptos,Aptos_MSFontService,sans-serif" font-weight="400" font-size="24" transform="translate(1364.78 194)">Fi</text><path d="M1321 110.483 1321.25 131.566 1318.25 131.602 1318 110.518ZM1324.23 130.031 1319.83 139.083 1315.23 130.137Z"/><path d="M1.4999-0.0175355 1.74639 21.0664-1.2534 21.1015-1.4999 0.0175355ZM4.72865 19.5314 0.334173 28.5834-4.27073 19.6366Z" transform="matrix(-1 0 0 1 1319.83 234.5)"/><path d="M37 62.5C37 36.2665 91.3974 15 158.5 15 225.603 15 280 36.2665 280 62.5 280 88.7335 225.603 110 158.5 110 91.3974 110 37 88.7335 37 62.5Z" fill="#000000" fill-rule="evenodd" fill-opacity="0.501961"/><text fill="#FFFFFF" font-family="Aptos,Aptos_MSFontService,sans-serif" font-weight="400" font-size="24" transform="translate(116.582 56)">početak</text><text fill="#FFFFFF" font-family="Aptos,Aptos_MSFontService,sans-serif" font-weight="400" font-size="24" transform="translate(101.528 85)">izvršavanja</text><path d="M1183 322.5 1319.5 263 1456 322.5 1319.5 382Z" fill="#000000" fill-rule="evenodd" fill-opacity="0.501961"/><text fill="#FFFFFF" font-family="Aptos,Aptos_MSFontService,sans-serif" font-weight="400" font-size="24" transform="translate(1260.93 316)">spremljena</text><text fill="#FFFFFF" font-family="Aptos,Aptos_MSFontService,sans-serif" font-weight="400" font-size="24" transform="translate(1281.57 345)">mreža?</text><rect x="1239" y="408" width="161" height="95" stroke="#1C440D" stroke-width="2" stroke-miterlimit="8" fill="#4EA72E"/><text fill="#FFFFFF" font-family="Aptos,Aptos_MSFontService,sans-serif" font-weight="400" font-size="24" transform="translate(1272.17 463)">poveži se</text><path d="M1183 590.5 1319.5 531 1456 590.5 1319.5 650Z" fill="#000000" fill-rule="evenodd" fill-opacity="0.501961"/><text fill="#FFFFFF" font-family="Aptos,Aptos_MSFontService,sans-serif" font-weight="400" font-size="24" transform="translate(1278.19 598)">uspjeh?</text><rect x="1461" y="684" width="161" height="95" stroke="#800000" stroke-width="2" stroke-miterlimit="8" fill="#FF0000"/><text fill="#FFFFFF" font-family="Aptos,Aptos_MSFontService,sans-serif" font-weight="400" font-size="24" transform="translate(1486.27 725)">3x</text><text fill="#FFFFFF" font-family="Aptos,Aptos_MSFontService,sans-serif" font-weight="400" font-size="24" transform="translate(1514.6 725)">pokušaj</text><text fill="#FFFFFF" font-family="Aptos,Aptos_MSFontService,sans-serif" font-weight="400" font-size="24" transform="translate(1496.22 754)">ponovno</text><path d="M1543 651.5 1543 676.575 1540 676.575 1540 651.5ZM1546 675.075 1541.5 684.075 1537 675.075Z"/><path d="M1319.5 650.5 1541.5 651.5" stroke="#000000" stroke-width="3" stroke-miterlimit="8" fill="none" fill-rule="evenodd"/><path d="M1648.33 593.329 1464 593.013 1464 590.013 1648.34 590.329ZM1465.49 596.015 1456.5 591.5 1465.51 587.015Z"/><path d="M1541.5 779.5 1541.5 801.589" stroke="#000000" stroke-width="3" stroke-miterlimit="8" fill="none" fill-rule="evenodd"/><path d="M1541.5 801.5 1647.83 801.5" stroke="#000000" stroke-width="3" stroke-miterlimit="8" fill="none" fill-rule="evenodd"/><path d="M1648.5 591.5 1648.5 801.335" stroke="#000000" stroke-width="3" stroke-miterlimit="8" fill="none" fill-rule="evenodd"/><path d="M1321 382.481 1321.24 400.629 1318.24 400.668 1318 382.52ZM1324.22 399.09 1319.83 408.148 1315.22 399.207Z"/><path d="M1.4999-0.0174723 1.74671 21.17-1.25309 21.2049-1.4999 0.0174723ZM4.72903 19.6351 0.334173 28.6869-4.27036 19.74Z" transform="matrix(-1 0 0 1 1319.83 503.5)"/><path d="M1321 650.5 1321 676.168 1318 676.168 1318 650.5ZM1324 674.668 1319.5 683.668 1315 674.668Z"/><path d="M1197 730.5C1197 704.266 1251.62 683 1319 683 1386.38 683 1441 704.266 1441 730.5 1441 756.734 1386.38 778 1319 778 1251.62 778 1197 756.734 1197 730.5Z" fill="#000000" fill-rule="evenodd" fill-opacity="0.501961"/><text fill="#FFFFFF" font-family="Aptos,Aptos_MSFontService,sans-serif" font-weight="400" font-size="24" transform="translate(1281.9 724)">nastavi</text><text fill="#FFFFFF" font-family="Aptos,Aptos_MSFontService,sans-serif" font-weight="400" font-size="24" transform="translate(1262.09 753)">izv</text><text fill="#FFFFFF" font-family="Aptos,Aptos_MSFontService,sans-serif" font-weight="400" font-size="24" transform="translate(1288.95 753)">ršavanje</text><rect x="1017" y="683" width="161" height="95" stroke="#042433" stroke-width="2" stroke-miterlimit="8" fill="#156082"/><text fill="#FFFFFF" font-family="Aptos,Aptos_MSFontService,sans-serif" font-weight="400" font-size="24" transform="translate(1069.57 724)">čekaj</text><text fill="#FFFFFF" font-family="Aptos,Aptos_MSFontService,sans-serif" font-weight="400" font-size="24" transform="translate(1034.8 753)">provisioning</text><path d="M1126 651.5 1126 676.575 1123 676.575 1123 651.5ZM1129 675.075 1124.5 684.075 1120 675.075Z"/><path d="M1124.5 650.5 1319.75 650.696" stroke="#000000" stroke-width="3" stroke-miterlimit="8" fill="none" fill-rule="evenodd"/><path d="M990.5 454 1232.21 454 1232.21 457 990.5 457ZM1230.71 451 1239.71 455.5 1230.71 460Z"/><path d="M1097.5 778.5 1097.5 800.589" stroke="#000000" stroke-width="3" stroke-miterlimit="8" fill="none" fill-rule="evenodd"/><path d="M991.5 801.5 1097.83 801.5" stroke="#000000" stroke-width="3" stroke-miterlimit="8" fill="none" fill-rule="evenodd"/><path d="M990.5 455.5 990.5 800.944" stroke="#000000" stroke-width="3" stroke-miterlimit="8" fill="none" fill-rule="evenodd"/><path d="M159.5 629.5 159.5 682.899" stroke="#000000" stroke-width="3" stroke-miterlimit="8" fill="none" fill-rule="evenodd"/><path d="M159.5 683.5 500.741 683.5" stroke="#000000" stroke-width="3" stroke-miterlimit="8" fill="none" fill-rule="evenodd"/><path d="M500.5 63.5001 500.5 683.243" stroke="#000000" stroke-width="3" stroke-miterlimit="8" fill="none" fill-rule="evenodd"/><text font-family="Aptos,Aptos_MSFontService,sans-serif" font-weight="400" font-size="24" transform="translate(119.805 523)">da</text><text font-family="Aptos,Aptos_MSFontService,sans-serif" font-weight="400" font-size="24" transform="translate(1037.66 674)">ne</text><text font-family="Aptos,Aptos_MSFontService,sans-serif" font-weight="400" font-size="24" transform="translate(809.516 133)">ne</text><text font-family="Aptos,Aptos_MSFontService,sans-serif" font-weight="400" font-size="24" transform="translate(632.564 394)">da</text><path d="M1.49999-0.00433873 2.5225 353.498-0.477489 353.506-1.49999 0.00433873ZM5.51815 351.989 1.0442 361.002-3.48181 352.015Z" transform="matrix(-1 0 0 1 1074.54 322.5)"/><path d="M1073.5 322.5 1183.52 322.5" stroke="#000000" stroke-width="3" stroke-miterlimit="8" fill="none" fill-rule="evenodd"/><text font-family="Aptos,Aptos_MSFontService,sans-serif" font-weight="400" font-size="24" transform="translate(322.469 525)">ne</text><text font-family="Aptos,Aptos_MSFontService,sans-serif" font-weight="400" font-size="24" transform="translate(1126.78 638)">ne 3x</text><text font-family="Aptos,Aptos_MSFontService,sans-serif" font-weight="400" font-size="24" transform="translate(1279.66 676)">da</text><text font-family="Aptos,Aptos_MSFontService,sans-serif" font-weight="400" font-size="24" transform="translate(1502.5 675)">ne</text><text font-family="Aptos,Aptos_MSFontService,sans-serif" font-weight="400" font-size="24" transform="translate(1281.66 399)">da</text></g></svg>