<?xml version="1.0" encoding="UTF-8" standalone="no"?>
<!-- Created with Inkscape (http://www.inkscape.org/) -->

<svg
   width="60mm"
   height="15mm"
   viewBox="0 0 60 15"
   version="1.1"
   id="svg1"
   sodipodi:docname="logo-vector.svg"
   inkscape:version="1.3.2 (091e20e, 2023-11-25, custom)"
   xmlns:inkscape="http://www.inkscape.org/namespaces/inkscape"
   xmlns:sodipodi="http://sodipodi.sourceforge.net/DTD/sodipodi-0.dtd"
   xmlns="http://www.w3.org/2000/svg"
   xmlns:svg="http://www.w3.org/2000/svg">
  <sodipodi:namedview
     id="namedview1"
     pagecolor="#02000d"
     bordercolor="#111111"
     borderopacity="1"
     inkscape:showpageshadow="0"
     inkscape:pageopacity="0"
     inkscape:pagecheckerboard="1"
     inkscape:deskcolor="#d1d1d1"
     inkscape:document-units="mm"
     inkscape:zoom="2.9255612"
     inkscape:cx="97.246299"
     inkscape:cy="11.792609"
     inkscape:window-width="1920"
     inkscape:window-height="1017"
     inkscape:window-x="-8"
     inkscape:window-y="-8"
     inkscape:window-maximized="1"
     inkscape:current-layer="layer1" />
  <defs
     id="defs1" />
  <g
     inkscape:label="Layer 1"
     inkscape:groupmode="layer"
     id="layer1">
    <path
       d="m 4.8666755,10.564934 q -0.6942669,0 -1.1853338,-0.254 -0.4910668,-0.254 -0.872067,-0.7366002 L 3.3511416,9.0324669 q 0.2794001,0.3894669 0.6434669,0.592667 0.3640668,0.1947334 0.8974671,0.1947334 0.5249335,0 0.8382003,-0.2286001 0.3217334,-0.2286001 0.3217334,-0.6265336 0,-0.3302001 -0.1524,-0.5334002 Q 5.7472092,8.2281333 5.4847425,8.1011332 5.2307424,7.9656665 4.9259422,7.8640665 4.6211421,7.7539998 4.316342,7.6354664 4.0115419,7.5084663 3.7575418,7.3306663 3.5035417,7.1443995 3.3426749,6.8480661 q -0.1524,-0.2963335 -0.1524,-0.745067 0,-0.4995335 0.2370667,-0.846667 0.2455335,-0.3556001 0.6604003,-0.5418669 0.4233335,-0.1947334 0.948267,-0.1947334 0.5757336,0 1.0329338,0.2286001 0.4572002,0.2201334 0.745067,0.5842002 L 6.2721428,5.874399 Q 6.009676,5.5695989 5.7048759,5.4171988 q -0.2963335,-0.1524 -0.6858003,-0.1524 -0.4741335,0 -0.7535336,0.2116667 -0.2794001,0.2032001 -0.2794001,0.5757336 0,0.2963334 0.1524,0.4826002 0.1608668,0.1778001 0.4148669,0.3048001 0.2540001,0.1270001 0.5588002,0.2370668 0.3132668,0.1016 0.6180669,0.2286001 0.3048001,0.127 0.5588002,0.3217334 0.2540001,0.1947334 0.4064002,0.5080002 0.1608667,0.3048001 0.1608667,0.770467 0,0.7789336 -0.5418669,1.2192001 -0.5334002,0.440267 -1.4478006,0.440267 z m 2.9294707,-0.08467 V 6.4585993 h 0.7620003 v 4.0216687 z m 2.7178008,0 V 8.0503332 q 0,-0.4487335 -0.2794,-0.7027336 -0.2709333,-0.2624668 -0.6858001,-0.2624668 -0.2794002,0 -0.4995336,0.1185334 Q 8.8290799,7.3221996 8.6936132,7.5338664 8.5581465,7.7455331 8.5581465,8.0418666 L 8.2448797,7.8894665 q 0,-0.4572002 0.1947334,-0.795867 Q 8.6428132,6.7549327 8.9899466,6.568666 9.3370801,6.3739326 9.7688803,6.3739326 q 0.4233337,0 0.7620007,0.1862667 0.347133,0.1862667 0.541866,0.5249335 0.203201,0.3386668 0.203201,0.8043337 v 2.5908015 z m 2.717801,0 V 8.0503332 q 0,-0.4487335 -0.2794,-0.7027336 -0.270933,-0.2624668 -0.677333,-0.2624668 -0.279401,0 -0.508001,0.1185334 -0.220133,0.1185334 -0.3556,0.3302002 -0.135466,0.2116667 -0.135466,0.5080002 L 10.844147,7.8894665 q 0.0254,-0.4656669 0.245534,-0.795867 0.2286,-0.3386668 0.5842,-0.5249335 0.3556,-0.1947334 0.778934,-0.1947334 0.440267,0 0.7874,0.1862667 0.347133,0.1862667 0.550334,0.5249335 0.211666,0.3386668 0.211666,0.8128004 v 2.5823348 z m 3.513664,0.08467 q -0.550333,0 -0.999067,-0.270933 -0.448733,-0.2794 -0.7112,-0.7535338 -0.254,-0.4741336 -0.254,-1.0668005 0,-0.5926669 0.254,-1.0668004 0.262467,-0.4741335 0.702734,-0.7535336 0.448733,-0.2794001 1.007533,-0.2794001 0.457201,0 0.812801,0.1947334 0.364067,0.1862667 0.5842,0.5249335 0.220133,0.3302001 0.245533,0.770467 v 1.2107338 q -0.0254,0.4318002 -0.245533,0.770467 -0.211667,0.3386667 -0.575734,0.5333997 -0.3556,0.186267 -0.821267,0.186267 z m 0.127,-0.7196667 q 0.567267,0 0.914401,-0.3810002 0.347133,-0.3894668 0.347133,-0.9906004 0,-0.4148668 -0.160866,-0.7196669 Q 17.820679,7.440733 17.532813,7.2713996 17.244946,7.0935995 16.863946,7.0935995 q -0.381,0 -0.677334,0.1778001 -0.287867,0.1778001 -0.4572,0.4910668 -0.160867,0.3048002 -0.160867,0.7027337 0,0.4064001 0.160867,0.7196669 0.169333,0.3048001 0.465667,0.4826002 0.296333,0.1778001 0.677333,0.1778001 z m 1.210734,0.6350007 V 9.3965338 L 18.22708,8.4144 18.083146,7.440733 V 6.4585993 h 0.770467 v 4.0216687 z m 1.879608,0 V 6.4585993 h 0.762 v 4.0216687 z m 0.762,-2.2944681 -0.287867,-0.127 q 0,-0.770467 0.3556,-1.2276672 0.3556,-0.4572001 1.024467,-0.4572001 0.3048,0 0.550334,0.1100667 0.245533,0.1016 0.4572,0.3471334 l -0.499534,0.5164669 q -0.127,-0.1354667 -0.2794,-0.1947334 -0.1524,-0.059267 -0.3556,-0.059267 -0.423333,0 -0.694267,0.2709335 -0.270933,0.2709334 -0.270933,0.8212669 z m 3.242747,2.2944681 V 4.7737319 h 0.762 v 5.7065361 z m -0.9906,-3.3274018 V 6.4585993 h 2.743201 v 0.6942669 z m 5.384804,3.3274018 V 4.6043985 h 0.5588 l 2.489201,4.0894016 h -0.381 l 2.489201,-4.0894016 h 0.5588 V 10.480268 H 33.280841 V 6.0013991 l 0.186266,0.0508 -1.964267,3.2258013 h -0.5588 l -1.964268,-3.2258013 0.1778,-0.0508 v 4.4788689 z m 8.678343,0.08467 q -0.550333,0 -0.999067,-0.270933 -0.448733,-0.2794 -0.7112,-0.7535338 -0.254,-0.4741336 -0.254,-1.0668005 0,-0.5926669 0.254,-1.0668004 0.262467,-0.4741335 0.702733,-0.7535336 0.448734,-0.2794001 1.007534,-0.2794001 0.4572,0 0.8128,0.1947334 0.364067,0.1862667 0.584201,0.5249335 0.220133,0.3302001 0.245533,0.770467 v 1.2107338 q -0.0254,0.4318002 -0.245533,0.770467 -0.211667,0.3386667 -0.575734,0.5333997 -0.3556,0.186267 -0.821267,0.186267 z m 0.127,-0.7196667 q 0.567267,0 0.914401,-0.3810002 0.347133,-0.3894668 0.347133,-0.9906004 0,-0.4148668 -0.160867,-0.7196669 -0.1524,-0.3132668 -0.440267,-0.4826002 -0.287866,-0.1778001 -0.668866,-0.1778001 -0.381001,0 -0.677334,0.1778001 -0.287867,0.1778001 -0.4572,0.4910668 -0.160867,0.3048002 -0.160867,0.7027337 0,0.4064001 0.160867,0.7196669 0.169333,0.3048001 0.465667,0.4826002 0.296333,0.1778001 0.677333,0.1778001 z m 1.210734,0.6350007 V 9.3965338 L 38.521715,8.4144 38.377782,7.440733 V 6.4585993 h 0.770467 v 4.0216687 z m 1.888074,0 V 6.4585993 h 0.762 v 4.0216687 z m 0.381,-4.8260024 q -0.211667,0 -0.347133,-0.1354667 -0.135467,-0.1439334 -0.135467,-0.3556002 0,-0.2032 0.135467,-0.3386668 0.135466,-0.1439334 0.347133,-0.1439334 0.211667,0 0.347134,0.1439334 0.135466,0.1354668 0.135466,0.3386668 0,0.2116668 -0.135466,0.3556002 -0.135467,0.1354667 -0.347134,0.1354667 z m 1.507075,4.8260024 V 4.4350651 h 0.762 v 6.0452029 z m 3.996268,0.08467 q -0.4572,0 -0.829734,-0.186267 -0.364067,-0.194733 -0.5842,-0.5333997 -0.220133,-0.3386668 -0.245533,-0.770467 V 7.8640665 q 0.0254,-0.4402669 0.245533,-0.770467 0.2286,-0.3386668 0.592667,-0.5249335 0.372533,-0.1947334 0.821267,-0.1947334 0.550333,0 0.9906,0.2794001 0.448734,0.2794001 0.702734,0.7535336 0.254,0.4741335 0.254,1.0668004 0,0.5926669 -0.254,1.0668005 -0.254,0.4741338 -0.702734,0.7535338 -0.440267,0.270933 -0.9906,0.270933 z m -2.116668,-0.08467 V 4.4350651 h 0.762001 V 7.440733 L 44.651598,8.4144 44.795532,9.3965338 v 1.0837342 z m 1.989668,-0.6350007 q 0.381,0 0.668867,-0.1778001 0.287867,-0.1778001 0.4572,-0.4826002 0.169333,-0.3132668 0.169333,-0.7196669 0,-0.3979335 -0.169333,-0.7112003 -0.169333,-0.3132668 -0.4572,-0.4826002 -0.287867,-0.1778001 -0.6604,-0.1778001 -0.381001,0 -0.668867,0.1778001 -0.287867,0.1693334 -0.448734,0.4826002 -0.160867,0.3132668 -0.160867,0.7196669 0,0.3979335 0.1524,0.7112003 0.160867,0.3048001 0.448734,0.4826002 0.296333,0.1778001 0.668867,0.1778001 z m 4.775208,0.7196667 q -0.592667,0 -1.0668,-0.2794 -0.474134,-0.2794 -0.753534,-0.7535335 -0.2794,-0.4826002 -0.2794,-1.0752671 0,-0.5842002 0.2794,-1.0498671 0.2794,-0.4741335 0.753534,-0.7535336 0.474133,-0.2794001 1.0668,-0.2794001 0.584201,0 1.058334,0.2794001 0.4826,0.2709334 0.762,0.7450669 0.2794,0.4741336 0.2794,1.0583338 0,0.5926669 -0.2794,1.0752671 -0.2794,0.4741335 -0.762,0.7535335 -0.474133,0.2794 -1.058334,0.2794 z m 0,-0.7366001 q 0.381,0 0.677334,-0.1778 0.296333,-0.1778001 0.465667,-0.4826002 0.169333,-0.3132668 0.169333,-0.7112003 0,-0.3894668 -0.1778,-0.694267 -0.169333,-0.3048001 -0.465667,-0.4741335 -0.287867,-0.1778 -0.668867,-0.1778 -0.381,0 -0.677333,0.1778 -0.296334,0.1693334 -0.465667,0.4741335 -0.169334,0.3048002 -0.169334,0.694267 0,0.3979335 0.169334,0.7112003 0.169333,0.3048001 0.465667,0.4826002 0.296333,0.1778 0.677333,0.1778 z M 56.267879,10.480268 55.014812,8.7192002 54.870879,8.5837334 53.287611,6.4585993 h 0.922867 l 1.143001,1.5663339 0.143933,0.1185334 1.693334,2.3368014 z m -3.056468,0 1.659468,-2.2352014 0.4318,0.5588003 -1.193801,1.6764011 z M 55.556679,8.5752668 55.116412,8.0333999 56.225546,6.4585993 h 0.889 z"
       id="text1"
       style="font-size:8.46667px;line-height:1.25;font-family:Outfit;-inkscape-font-specification:'Outfit, @wght=400';font-variation-settings:'wght' 400;letter-spacing:0px;word-spacing:0px;fill:#ffffff;stroke-width:0.264583"
       aria-label="Smart Mailbox" />
  </g>
</svg>
