<?xml version="1.0" encoding="UTF-8" standalone="no"?>
<svg
   version="1.1"
   width="282"
   height="330"
   id="svg11"
   sodipodi:docname="QR-DPP-vector.svg"
   inkscape:version="1.2 (dc2aedaf03, 2022-05-15)"
   xmlns:inkscape="http://www.inkscape.org/namespaces/inkscape"
   xmlns:sodipodi="http://sodipodi.sourceforge.net/DTD/sodipodi-0.dtd"
   xmlns="http://www.w3.org/2000/svg"
   xmlns:svg="http://www.w3.org/2000/svg"
   xmlns:rdf="http://www.w3.org/1999/02/22-rdf-syntax-ns#"
   xmlns:cc="http://creativecommons.org/ns#"
   xmlns:dc="http://purl.org/dc/elements/1.1/">
  <defs
     id="defs15" />
  <sodipodi:namedview
     id="namedview13"
     pagecolor="#ffffff"
     bordercolor="#000000"
     borderopacity="0.25"
     inkscape:showpageshadow="2"
     inkscape:pageopacity="0.0"
     inkscape:pagecheckerboard="0"
     inkscape:deskcolor="#d1d1d1"
     showgrid="false"
     inkscape:zoom="1.7012195"
     inkscape:cx="40.853047"
     inkscape:cy="168.70251"
     inkscape:window-width="1920"
     inkscape:window-height="1017"
     inkscape:window-x="1912"
     inkscape:window-y="-8"
     inkscape:window-maximized="1"
     inkscape:current-layer="svg11" />
  <!-- Created with https://api.qrserver.com (QR Code API, see goQR.me/api for information) -->
  <title
     id="title2">QR Code</title>
  <desc
     id="desc4">DPP:C:81/6;M:84:f7:03:3f:13:50;I:smart-mailbox;K:MDkwEwYHKoZIzj0CAQYIKoZIzj0DAQcDIgACHzNYYl6ufTH6ie/Tt63NhIS9uCRuBdLQGEMWFPEswJQ=;;</desc>
  <rect
     style="fill:#ffffff;fill-opacity:1"
     x="18"
     y="18"
     width="246"
     height="246"
     id="rect6" />
  <g
     id="elements"
     transform="translate(18,18)">
    <path
       style="fill:#000000"
       d="M 0,0 H 6 V 6 H 0 Z m 6,0 h 6 V 6 H 6 Z m 6,0 h 6 v 6 h -6 z m 6,0 h 6 v 6 h -6 z m 6,0 h 6 v 6 h -6 z m 6,0 h 6 v 6 h -6 z m 6,0 h 6 v 6 h -6 z m 18,0 h 6 v 6 h -6 z m 12,0 h 6 v 6 h -6 z m 12,0 h 6 v 6 h -6 z m 6,0 h 6 v 6 h -6 z m 24,0 h 6 v 6 h -6 z m 6,0 h 6 v 6 h -6 z m 6,0 h 6 v 6 h -6 z m 12,0 h 6 v 6 h -6 z m 6,0 h 6 v 6 h -6 z m 6,0 h 6 v 6 h -6 z m 12,0 h 6 v 6 h -6 z m 6,0 h 6 v 6 h -6 z m 6,0 h 6 v 6 h -6 z m 12,0 h 6 v 6 h -6 z m 24,0 h 6 v 6 h -6 z m 6,0 h 6 v 6 h -6 z m 6,0 h 6 v 6 h -6 z m 6,0 h 6 v 6 h -6 z m 6,0 h 6 v 6 h -6 z m 6,0 h 6 v 6 h -6 z m 6,0 h 6 v 6 h -6 z M 0,6 h 6 v 6 H 0 Z m 36,0 h 6 v 6 h -6 z m 12,0 h 6 v 6 h -6 z m 6,0 h 6 v 6 h -6 z m 12,0 h 6 v 6 h -6 z m 6,0 h 6 v 6 h -6 z m 6,0 h 6 v 6 h -6 z m 6,0 h 6 v 6 h -6 z m 12,0 h 6 v 6 h -6 z m 18,0 h 6 v 6 h -6 z m 18,0 h 6 v 6 h -6 z m 6,0 h 6 v 6 h -6 z m 6,0 h 6 v 6 h -6 z m 12,0 h 6 v 6 h -6 z m 6,0 h 6 v 6 h -6 z m 12,0 h 6 v 6 h -6 z m 6,0 h 6 v 6 h -6 z m 12,0 h 6 v 6 h -6 z m 12,0 h 6 v 6 h -6 z m 36,0 h 6 v 6 h -6 z M 0,12 h 6 v 6 H 0 Z m 12,0 h 6 v 6 h -6 z m 6,0 h 6 v 6 h -6 z m 6,0 h 6 v 6 h -6 z m 12,0 h 6 v 6 h -6 z m 24,0 h 6 v 6 h -6 z m 6,0 h 6 v 6 h -6 z m 6,0 h 6 v 6 h -6 z m 18,0 h 6 v 6 h -6 z m 6,0 h 6 v 6 h -6 z m 12,0 h 6 v 6 h -6 z m 12,0 h 6 v 6 h -6 z m 6,0 h 6 v 6 h -6 z m 18,0 h 6 v 6 h -6 z m 18,0 h 6 v 6 h -6 z m 24,0 h 6 v 6 h -6 z m 18,0 h 6 v 6 h -6 z m 12,0 h 6 v 6 h -6 z m 6,0 h 6 v 6 h -6 z m 6,0 h 6 v 6 h -6 z m 12,0 h 6 v 6 h -6 z M 0,18 h 6 v 6 H 0 Z m 12,0 h 6 v 6 h -6 z m 6,0 h 6 v 6 h -6 z m 6,0 h 6 v 6 h -6 z m 12,0 h 6 v 6 h -6 z m 12,0 h 6 v 6 h -6 z m 12,0 h 6 v 6 h -6 z m 6,0 h 6 v 6 h -6 z m 12,0 h 6 v 6 h -6 z m 6,0 h 6 v 6 h -6 z m 18,0 h 6 v 6 h -6 z m 6,0 h 6 v 6 h -6 z m 6,0 h 6 v 6 h -6 z m 18,0 h 6 v 6 h -6 z m 12,0 h 6 v 6 h -6 z m 12,0 h 6 v 6 h -6 z m 12,0 h 6 v 6 h -6 z m 36,0 h 6 v 6 h -6 z m 12,0 h 6 v 6 h -6 z m 6,0 h 6 v 6 h -6 z m 6,0 h 6 v 6 h -6 z m 12,0 h 6 v 6 h -6 z M 0,24 h 6 v 6 H 0 Z m 12,0 h 6 v 6 h -6 z m 6,0 h 6 v 6 h -6 z m 6,0 h 6 v 6 h -6 z m 12,0 h 6 v 6 h -6 z m 18,0 h 6 v 6 h -6 z m 6,0 h 6 v 6 h -6 z m 6,0 h 6 v 6 h -6 z m 12,0 h 6 v 6 h -6 z m 18,0 h 6 v 6 h -6 z m 6,0 h 6 v 6 h -6 z m 6,0 h 6 v 6 h -6 z m 6,0 h 6 v 6 h -6 z m 6,0 h 6 v 6 h -6 z m 6,0 h 6 v 6 h -6 z m 36,0 h 6 v 6 h -6 z m 6,0 h 6 v 6 h -6 z m 12,0 h 6 v 6 h -6 z m 12,0 h 6 v 6 h -6 z m 12,0 h 6 v 6 h -6 z m 12,0 h 6 v 6 h -6 z m 6,0 h 6 v 6 h -6 z m 6,0 h 6 v 6 h -6 z m 12,0 h 6 v 6 h -6 z M 0,30 h 6 v 6 H 0 Z m 36,0 h 6 v 6 h -6 z m 12,0 h 6 v 6 h -6 z m 6,0 h 6 v 6 h -6 z m 6,0 h 6 v 6 h -6 z m 24,0 h 6 v 6 h -6 z m 24,0 h 6 v 6 h -6 z m 18,0 h 6 v 6 h -6 z m 6,0 h 6 v 6 h -6 z m 30,0 h 6 v 6 h -6 z m 12,0 h 6 v 6 h -6 z m 6,0 h 6 v 6 h -6 z m 12,0 h 6 v 6 h -6 z m 12,0 h 6 v 6 h -6 z m 36,0 h 6 v 6 h -6 z M 0,36 h 6 v 6 H 0 Z m 6,0 h 6 v 6 H 6 Z m 6,0 h 6 v 6 h -6 z m 6,0 h 6 v 6 h -6 z m 6,0 h 6 v 6 h -6 z m 6,0 h 6 v 6 h -6 z m 6,0 h 6 v 6 h -6 z m 12,0 h 6 v 6 h -6 z m 12,0 h 6 v 6 h -6 z m 12,0 h 6 v 6 h -6 z m 12,0 h 6 v 6 h -6 z m 12,0 h 6 v 6 h -6 z m 12,0 h 6 v 6 h -6 z m 12,0 h 6 v 6 h -6 z m 12,0 h 6 v 6 h -6 z m 12,0 h 6 v 6 h -6 z m 12,0 h 6 v 6 h -6 z m 12,0 h 6 v 6 h -6 z m 12,0 h 6 v 6 h -6 z m 12,0 h 6 v 6 h -6 z m 12,0 h 6 v 6 h -6 z m 6,0 h 6 v 6 h -6 z m 6,0 h 6 v 6 h -6 z m 6,0 h 6 v 6 h -6 z m 6,0 h 6 v 6 h -6 z m 6,0 h 6 v 6 h -6 z m 6,0 h 6 v 6 h -6 z M 54,42 h 6 v 6 h -6 z m 6,0 h 6 v 6 h -6 z m 6,0 h 6 v 6 h -6 z m 18,0 h 6 v 6 h -6 z m 6,0 h 6 v 6 h -6 z m 24,0 h 6 v 6 h -6 z m 18,0 h 6 v 6 h -6 z m 6,0 h 6 v 6 h -6 z m 6,0 h 6 v 6 h -6 z m 6,0 h 6 v 6 h -6 z m 18,0 h 6 v 6 h -6 z M 0,48 h 6 v 6 H 0 Z m 6,0 h 6 v 6 H 6 Z m 6,0 h 6 v 6 h -6 z m 6,0 h 6 v 6 h -6 z m 6,0 h 6 v 6 h -6 z m 12,0 h 6 v 6 h -6 z m 6,0 h 6 v 6 h -6 z m 6,0 h 6 v 6 h -6 z m 6,0 h 6 v 6 h -6 z m 6,0 h 6 v 6 h -6 z m 6,0 h 6 v 6 h -6 z m 6,0 h 6 v 6 h -6 z m 6,0 h 6 v 6 h -6 z m 6,0 h 6 v 6 h -6 z m 6,0 h 6 v 6 h -6 z m 12,0 h 6 v 6 h -6 z m 6,0 h 6 v 6 h -6 z m 54,0 h 6 v 6 h -6 z m 6,0 h 6 v 6 h -6 z m 6,0 h 6 v 6 h -6 z m 6,0 h 6 v 6 h -6 z m 18,0 h 6 v 6 h -6 z m 12,0 h 6 v 6 h -6 z m 12,0 h 6 v 6 h -6 z m 12,0 h 6 v 6 h -6 z M 6,54 h 6 v 6 H 6 Z m 6,0 h 6 v 6 h -6 z m 12,0 h 6 v 6 h -6 z m 18,0 h 6 v 6 h -6 z m 6,0 h 6 v 6 h -6 z m 6,0 h 6 v 6 h -6 z m 6,0 h 6 v 6 h -6 z m 18,0 h 6 v 6 h -6 z m 36,0 h 6 v 6 h -6 z m 18,0 h 6 v 6 h -6 z m 18,0 h 6 v 6 h -6 z m 24,0 h 6 v 6 h -6 z m 12,0 h 6 v 6 h -6 z m 24,0 h 6 v 6 h -6 z m 24,0 h 6 v 6 h -6 z m 6,0 h 6 v 6 h -6 z M 0,60 h 6 v 6 H 0 Z m 30,0 h 6 v 6 h -6 z m 6,0 h 6 v 6 h -6 z m 6,0 h 6 v 6 h -6 z m 12,0 h 6 v 6 h -6 z m 6,0 h 6 v 6 h -6 z m 12,0 h 6 v 6 h -6 z m 6,0 h 6 v 6 h -6 z m 6,0 h 6 v 6 h -6 z m 6,0 h 6 v 6 h -6 z m 6,0 h 6 v 6 h -6 z m 12,0 h 6 v 6 h -6 z m 12,0 h 6 v 6 h -6 z m 6,0 h 6 v 6 h -6 z m 12,0 h 6 v 6 h -6 z m 24,0 h 6 v 6 h -6 z m 18,0 h 6 v 6 h -6 z m 6,0 h 6 v 6 h -6 z m 6,0 h 6 v 6 h -6 z m 24,0 h 6 v 6 h -6 z m 12,0 h 6 v 6 h -6 z m 6,0 h 6 v 6 h -6 z M 0,66 h 6 v 6 H 0 Z m 24,0 h 6 v 6 h -6 z m 24,0 h 6 v 6 h -6 z m 6,0 h 6 v 6 h -6 z m 12,0 h 6 v 6 h -6 z m 12,0 h 6 v 6 h -6 z m 12,0 h 6 v 6 h -6 z m 18,0 h 6 v 6 h -6 z m 12,0 h 6 v 6 h -6 z m 6,0 h 6 v 6 h -6 z m 18,0 h 6 v 6 h -6 z m 24,0 h 6 v 6 h -6 z m 12,0 h 6 v 6 h -6 z m 6,0 h 6 v 6 h -6 z m 12,0 h 6 v 6 h -6 z m 12,0 h 6 v 6 h -6 z m 6,0 h 6 v 6 h -6 z m 12,0 h 6 v 6 h -6 z m 6,0 h 6 v 6 h -6 z M 0,72 h 6 v 6 H 0 Z m 6,0 h 6 v 6 H 6 Z m 6,0 h 6 v 6 h -6 z m 6,0 h 6 v 6 h -6 z m 6,0 h 6 v 6 h -6 z m 6,0 h 6 v 6 h -6 z m 6,0 h 6 v 6 h -6 z m 12,0 h 6 v 6 h -6 z m 12,0 h 6 v 6 h -6 z m 6,0 h 6 v 6 h -6 z m 6,0 h 6 v 6 h -6 z m 6,0 h 6 v 6 h -6 z m 6,0 h 6 v 6 h -6 z m 6,0 h 6 v 6 h -6 z m 24,0 h 6 v 6 h -6 z m 12,0 h 6 v 6 h -6 z m 6,0 h 6 v 6 h -6 z m 6,0 h 6 v 6 h -6 z m 12,0 h 6 v 6 h -6 z m 12,0 h 6 v 6 h -6 z m 12,0 h 6 v 6 h -6 z m 42,0 h 6 v 6 h -6 z m 6,0 h 6 v 6 h -6 z M 6,78 h 6 v 6 H 6 Z m 12,0 h 6 v 6 h -6 z m 6,0 h 6 v 6 h -6 z m 36,0 h 6 v 6 h -6 z m 18,0 h 6 v 6 h -6 z m 12,0 h 6 v 6 h -6 z m 18,0 h 6 v 6 h -6 z m 12,0 h 6 v 6 h -6 z m 6,0 h 6 v 6 h -6 z m 12,0 h 6 v 6 h -6 z m 6,0 h 6 v 6 h -6 z m 6,0 h 6 v 6 h -6 z m 6,0 h 6 v 6 h -6 z m 12,0 h 6 v 6 h -6 z m 24,0 h 6 v 6 h -6 z m 6,0 h 6 v 6 h -6 z m 12,0 h 6 v 6 h -6 z m 6,0 h 6 v 6 h -6 z m 6,0 h 6 v 6 h -6 z m 6,0 h 6 v 6 h -6 z m 6,0 h 6 v 6 h -6 z m 6,0 h 6 v 6 h -6 z M 0,84 h 6 v 6 H 0 Z m 12,0 h 6 v 6 h -6 z m 6,0 h 6 v 6 h -6 z m 6,0 h 6 v 6 h -6 z m 12,0 h 6 v 6 h -6 z m 30,0 h 6 v 6 h -6 z m 6,0 h 6 v 6 h -6 z m 48,0 h 6 v 6 h -6 z m 6,0 h 6 v 6 h -6 z m 6,0 h 6 v 6 h -6 z m 12,0 h 6 v 6 h -6 z m 18,0 h 6 v 6 h -6 z m 6,0 h 6 v 6 h -6 z m 6,0 h 6 v 6 h -6 z m 6,0 h 6 v 6 h -6 z m 12,0 h 6 v 6 h -6 z m 6,0 h 6 v 6 h -6 z m 18,0 h 6 v 6 h -6 z m 6,0 h 6 v 6 h -6 z m 12,0 h 6 v 6 h -6 z M 0,90 h 6 v 6 H 0 Z m 30,0 h 6 v 6 h -6 z m 12,0 h 6 v 6 h -6 z m 6,0 h 6 v 6 h -6 z m 18,0 h 6 v 6 h -6 z m 18,0 h 6 v 6 h -6 z m 6,0 h 6 v 6 h -6 z m 6,0 h 6 v 6 h -6 z m 24,0 h 6 v 6 h -6 z m 12,0 h 6 v 6 h -6 z m 6,0 h 6 v 6 h -6 z m 12,0 h 6 v 6 h -6 z m 12,0 h 6 v 6 h -6 z m 6,0 h 6 v 6 h -6 z m 6,0 h 6 v 6 h -6 z m 12,0 h 6 v 6 h -6 z m 6,0 h 6 v 6 h -6 z m 12,0 h 6 v 6 h -6 z m 12,0 h 6 v 6 h -6 z m 6,0 h 6 v 6 h -6 z M 0,96 h 6 v 6 H 0 Z m 18,0 h 6 v 6 h -6 z m 6,0 h 6 v 6 h -6 z m 12,0 h 6 v 6 h -6 z m 6,0 h 6 v 6 h -6 z m 18,0 h 6 v 6 h -6 z m 6,0 h 6 v 6 h -6 z m 12,0 h 6 v 6 h -6 z m 30,0 h 6 v 6 h -6 z m 18,0 h 6 v 6 h -6 z m 18,0 h 6 v 6 h -6 z m 6,0 h 6 v 6 h -6 z m 6,0 h 6 v 6 h -6 z m 6,0 h 6 v 6 h -6 z m 12,0 h 6 v 6 h -6 z m 6,0 h 6 v 6 h -6 z m 12,0 h 6 v 6 h -6 z m 6,0 h 6 v 6 h -6 z m 6,0 h 6 v 6 h -6 z m 6,0 h 6 v 6 h -6 z m 18,0 h 6 v 6 h -6 z m 6,0 h 6 v 6 h -6 z m 6,0 h 6 v 6 h -6 z M 0,102 h 6 v 6 H 0 Z m 18,0 h 6 v 6 h -6 z m 12,0 h 6 v 6 h -6 z m 12,0 h 6 v 6 h -6 z m 18,0 h 6 v 6 h -6 z m 12,0 h 6 v 6 h -6 z m 6,0 h 6 v 6 h -6 z m 24,0 h 6 v 6 h -6 z m 12,0 h 6 v 6 h -6 z m 6,0 h 6 v 6 h -6 z m 48,0 h 6 v 6 h -6 z m 6,0 h 6 v 6 h -6 z m 6,0 h 6 v 6 h -6 z m 6,0 h 6 v 6 h -6 z m 6,0 h 6 v 6 h -6 z m 6,0 h 6 v 6 h -6 z m 6,0 h 6 v 6 h -6 z m 30,0 h 6 v 6 h -6 z m 6,0 h 6 v 6 h -6 z M 6,108 h 6 v 6 H 6 Z m 6,0 h 6 v 6 h -6 z m 6,0 h 6 v 6 h -6 z m 12,0 h 6 v 6 h -6 z m 6,0 h 6 v 6 h -6 z m 6,0 h 6 v 6 h -6 z m 6,0 h 6 v 6 h -6 z m 18,0 h 6 v 6 h -6 z m 6,0 h 6 v 6 h -6 z m 18,0 h 6 v 6 h -6 z m 6,0 h 6 v 6 h -6 z m 6,0 h 6 v 6 h -6 z m 6,0 h 6 v 6 h -6 z m 6,0 h 6 v 6 h -6 z m 12,0 h 6 v 6 h -6 z m 12,0 h 6 v 6 h -6 z m 12,0 h 6 v 6 h -6 z m 6,0 h 6 v 6 h -6 z m 6,0 h 6 v 6 h -6 z m 6,0 h 6 v 6 h -6 z m 6,0 h 6 v 6 h -6 z m 6,0 h 6 v 6 h -6 z m 12,0 h 6 v 6 h -6 z m 6,0 h 6 v 6 h -6 z m 12,0 h 6 v 6 h -6 z m 18,0 h 6 v 6 h -6 z m 12,0 h 6 v 6 h -6 z M 6,114 h 6 v 6 H 6 Z m 12,0 h 6 v 6 h -6 z m 36,0 h 6 v 6 h -6 z m 18,0 h 6 v 6 h -6 z m 12,0 h 6 v 6 h -6 z m 6,0 h 6 v 6 h -6 z m 6,0 h 6 v 6 h -6 z m 6,0 h 6 v 6 h -6 z m 24,0 h 6 v 6 h -6 z m 6,0 h 6 v 6 h -6 z m 30,0 h 6 v 6 h -6 z m 18,0 h 6 v 6 h -6 z m 6,0 h 6 v 6 h -6 z m 30,0 h 6 v 6 h -6 z m 24,0 h 6 v 6 h -6 z M 0,120 h 6 v 6 H 0 Z m 12,0 h 6 v 6 h -6 z m 6,0 h 6 v 6 h -6 z m 12,0 h 6 v 6 h -6 z m 6,0 h 6 v 6 h -6 z m 18,0 h 6 v 6 h -6 z m 6,0 h 6 v 6 h -6 z m 6,0 h 6 v 6 h -6 z m 6,0 h 6 v 6 h -6 z m 12,0 h 6 v 6 h -6 z m 6,0 h 6 v 6 h -6 z m 6,0 h 6 v 6 h -6 z m 24,0 h 6 v 6 h -6 z m 6,0 h 6 v 6 h -6 z m 6,0 h 6 v 6 h -6 z m 18,0 h 6 v 6 h -6 z m 6,0 h 6 v 6 h -6 z m 6,0 h 6 v 6 h -6 z m 6,0 h 6 v 6 h -6 z m 42,0 h 6 v 6 h -6 z m 24,0 h 6 v 6 h -6 z M 6,126 h 6 v 6 H 6 Z m 6,0 h 6 v 6 h -6 z m 12,0 h 6 v 6 h -6 z m 6,0 h 6 v 6 h -6 z m 12,0 h 6 v 6 h -6 z m 6,0 h 6 v 6 h -6 z m 6,0 h 6 v 6 h -6 z m 18,0 h 6 v 6 h -6 z m 18,0 h 6 v 6 h -6 z m 18,0 h 6 v 6 h -6 z m 6,0 h 6 v 6 h -6 z m 6,0 h 6 v 6 h -6 z m 6,0 h 6 v 6 h -6 z m 6,0 h 6 v 6 h -6 z m 6,0 h 6 v 6 h -6 z m 6,0 h 6 v 6 h -6 z m 6,0 h 6 v 6 h -6 z m 18,0 h 6 v 6 h -6 z m 12,0 h 6 v 6 h -6 z m 6,0 h 6 v 6 h -6 z m 6,0 h 6 v 6 h -6 z m 24,0 h 6 v 6 h -6 z m 6,0 h 6 v 6 h -6 z m 6,0 h 6 v 6 h -6 z m 6,0 h 6 v 6 h -6 z m 6,0 h 6 v 6 h -6 z M 0,132 h 6 v 6 H 0 Z m 6,0 h 6 v 6 H 6 Z m 6,0 h 6 v 6 h -6 z m 24,0 h 6 v 6 h -6 z m 6,0 h 6 v 6 h -6 z m 6,0 h 6 v 6 h -6 z m 6,0 h 6 v 6 h -6 z m 18,0 h 6 v 6 h -6 z m 12,0 h 6 v 6 h -6 z m 6,0 h 6 v 6 h -6 z m 18,0 h 6 v 6 h -6 z m 18,0 h 6 v 6 h -6 z m 6,0 h 6 v 6 h -6 z m 12,0 h 6 v 6 h -6 z m 12,0 h 6 v 6 h -6 z m 6,0 h 6 v 6 h -6 z m 12,0 h 6 v 6 h -6 z m 6,0 h 6 v 6 h -6 z m 12,0 h 6 v 6 h -6 z m 6,0 h 6 v 6 h -6 z m 24,0 h 6 v 6 h -6 z m 6,0 h 6 v 6 h -6 z m 6,0 h 6 v 6 h -6 z M 0,138 h 6 v 6 H 0 Z m 6,0 h 6 v 6 H 6 Z m 12,0 h 6 v 6 h -6 z m 12,0 h 6 v 6 h -6 z m 18,0 h 6 v 6 h -6 z m 24,0 h 6 v 6 h -6 z m 6,0 h 6 v 6 h -6 z m 6,0 h 6 v 6 h -6 z m 12,0 h 6 v 6 h -6 z m 6,0 h 6 v 6 h -6 z m 12,0 h 6 v 6 h -6 z m 18,0 h 6 v 6 h -6 z m 24,0 h 6 v 6 h -6 z m 12,0 h 6 v 6 h -6 z m 36,0 h 6 v 6 h -6 z m 18,0 h 6 v 6 h -6 z m 12,0 h 6 v 6 h -6 z m 6,0 h 6 v 6 h -6 z M 0,144 h 6 v 6 H 0 Z m 6,0 h 6 v 6 H 6 Z m 18,0 h 6 v 6 h -6 z m 12,0 h 6 v 6 h -6 z m 24,0 h 6 v 6 h -6 z m 12,0 h 6 v 6 h -6 z m 6,0 h 6 v 6 h -6 z m 6,0 h 6 v 6 h -6 z m 18,0 h 6 v 6 h -6 z m 6,0 h 6 v 6 h -6 z m 36,0 h 6 v 6 h -6 z m 6,0 h 6 v 6 h -6 z m 12,0 h 6 v 6 h -6 z m 6,0 h 6 v 6 h -6 z m 6,0 h 6 v 6 h -6 z m 6,0 h 6 v 6 h -6 z m 6,0 h 6 v 6 h -6 z m 12,0 h 6 v 6 h -6 z m 6,0 h 6 v 6 h -6 z m 18,0 h 6 v 6 h -6 z M 0,150 h 6 v 6 H 0 Z m 6,0 h 6 v 6 H 6 Z m 24,0 h 6 v 6 h -6 z m 12,0 h 6 v 6 h -6 z m 12,0 h 6 v 6 h -6 z m 24,0 h 6 v 6 h -6 z m 18,0 h 6 v 6 h -6 z m 6,0 h 6 v 6 h -6 z m 6,0 h 6 v 6 h -6 z m 6,0 h 6 v 6 h -6 z m 6,0 h 6 v 6 h -6 z m 6,0 h 6 v 6 h -6 z m 18,0 h 6 v 6 h -6 z m 6,0 h 6 v 6 h -6 z m 12,0 h 6 v 6 h -6 z m 6,0 h 6 v 6 h -6 z m 6,0 h 6 v 6 h -6 z m 12,0 h 6 v 6 h -6 z m 6,0 h 6 v 6 h -6 z m 6,0 h 6 v 6 h -6 z m 12,0 h 6 v 6 h -6 z m 18,0 h 6 v 6 h -6 z m 12,0 h 6 v 6 h -6 z M 0,156 h 6 v 6 H 0 Z m 6,0 h 6 v 6 H 6 Z m 6,0 h 6 v 6 h -6 z m 6,0 h 6 v 6 h -6 z m 6,0 h 6 v 6 h -6 z m 6,0 h 6 v 6 h -6 z m 6,0 h 6 v 6 h -6 z m 12,0 h 6 v 6 h -6 z m 6,0 h 6 v 6 h -6 z m 6,0 h 6 v 6 h -6 z m 6,0 h 6 v 6 h -6 z m 6,0 h 6 v 6 h -6 z m 6,0 h 6 v 6 h -6 z m 12,0 h 6 v 6 h -6 z m 6,0 h 6 v 6 h -6 z m 6,0 h 6 v 6 h -6 z m 6,0 h 6 v 6 h -6 z m 6,0 h 6 v 6 h -6 z m 6,0 h 6 v 6 h -6 z m 18,0 h 6 v 6 h -6 z m 30,0 h 6 v 6 h -6 z m 6,0 h 6 v 6 h -6 z m 24,0 h 6 v 6 h -6 z m 18,0 h 6 v 6 h -6 z m 6,0 h 6 v 6 h -6 z m 6,0 h 6 v 6 h -6 z m 6,0 h 6 v 6 h -6 z M 6,162 h 6 v 6 H 6 Z m 6,0 h 6 v 6 h -6 z m 6,0 h 6 v 6 h -6 z m 24,0 h 6 v 6 h -6 z m 12,0 h 6 v 6 h -6 z m 6,0 h 6 v 6 h -6 z m 12,0 h 6 v 6 h -6 z m 18,0 h 6 v 6 h -6 z m 6,0 h 6 v 6 h -6 z m 24,0 h 6 v 6 h -6 z m 6,0 h 6 v 6 h -6 z m 6,0 h 6 v 6 h -6 z m 24,0 h 6 v 6 h -6 z m 24,0 h 6 v 6 h -6 z m 6,0 h 6 v 6 h -6 z m 6,0 h 6 v 6 h -6 z m 24,0 h 6 v 6 h -6 z m 6,0 h 6 v 6 h -6 z m 12,0 h 6 v 6 h -6 z m 6,0 h 6 v 6 h -6 z M 6,168 h 6 v 6 H 6 Z m 6,0 h 6 v 6 h -6 z m 6,0 h 6 v 6 h -6 z m 6,0 h 6 v 6 h -6 z m 12,0 h 6 v 6 h -6 z m 6,0 h 6 v 6 h -6 z m 30,0 h 6 v 6 h -6 z m 6,0 h 6 v 6 h -6 z m 18,0 h 6 v 6 h -6 z m 18,0 h 6 v 6 h -6 z m 6,0 h 6 v 6 h -6 z m 30,0 h 6 v 6 h -6 z m 6,0 h 6 v 6 h -6 z m 12,0 h 6 v 6 h -6 z m 66,0 h 6 v 6 h -6 z m 6,0 h 6 v 6 h -6 z M 0,174 h 6 v 6 H 0 Z m 12,0 h 6 v 6 h -6 z m 6,0 h 6 v 6 h -6 z m 6,0 h 6 v 6 h -6 z m 30,0 h 6 v 6 h -6 z m 6,0 h 6 v 6 h -6 z m 6,0 h 6 v 6 h -6 z m 12,0 h 6 v 6 h -6 z m 12,0 h 6 v 6 h -6 z m 6,0 h 6 v 6 h -6 z m 6,0 h 6 v 6 h -6 z m 18,0 h 6 v 6 h -6 z m 6,0 h 6 v 6 h -6 z m 6,0 h 6 v 6 h -6 z m 6,0 h 6 v 6 h -6 z m 54,0 h 6 v 6 h -6 z m 6,0 h 6 v 6 h -6 z m 6,0 h 6 v 6 h -6 z m 6,0 h 6 v 6 h -6 z m 6,0 h 6 v 6 h -6 z m 12,0 h 6 v 6 h -6 z m 6,0 h 6 v 6 h -6 z m 6,0 h 6 v 6 h -6 z M 0,180 h 6 v 6 H 0 Z m 18,0 h 6 v 6 h -6 z m 18,0 h 6 v 6 h -6 z m 12,0 h 6 v 6 h -6 z m 42,0 h 6 v 6 h -6 z m 6,0 h 6 v 6 h -6 z m 24,0 h 6 v 6 h -6 z m 6,0 h 6 v 6 h -6 z m 6,0 h 6 v 6 h -6 z m 12,0 h 6 v 6 h -6 z m 12,0 h 6 v 6 h -6 z m 6,0 h 6 v 6 h -6 z m 12,0 h 6 v 6 h -6 z m 24,0 h 6 v 6 h -6 z m 30,0 h 6 v 6 h -6 z m 6,0 h 6 v 6 h -6 z M 0,186 h 6 v 6 H 0 Z m 18,0 h 6 v 6 h -6 z m 24,0 h 6 v 6 h -6 z m 12,0 h 6 v 6 h -6 z m 6,0 h 6 v 6 h -6 z m 6,0 h 6 v 6 h -6 z m 12,0 h 6 v 6 h -6 z m 6,0 h 6 v 6 h -6 z m 6,0 h 6 v 6 h -6 z m 12,0 h 6 v 6 h -6 z m 12,0 h 6 v 6 h -6 z m 18,0 h 6 v 6 h -6 z m 18,0 h 6 v 6 h -6 z m 12,0 h 6 v 6 h -6 z m 6,0 h 6 v 6 h -6 z m 12,0 h 6 v 6 h -6 z m 12,0 h 6 v 6 h -6 z m 12,0 h 6 v 6 h -6 z m 18,0 h 6 v 6 h -6 z M 0,192 h 6 v 6 H 0 Z m 12,0 h 6 v 6 h -6 z m 12,0 h 6 v 6 h -6 z m 6,0 h 6 v 6 h -6 z m 6,0 h 6 v 6 h -6 z m 12,0 h 6 v 6 h -6 z m 12,0 h 6 v 6 h -6 z m 12,0 h 6 v 6 h -6 z m 6,0 h 6 v 6 h -6 z m 18,0 h 6 v 6 h -6 z m 24,0 h 6 v 6 h -6 z m 30,0 h 6 v 6 h -6 z m 6,0 h 6 v 6 h -6 z m 12,0 h 6 v 6 h -6 z m 6,0 h 6 v 6 h -6 z m 18,0 h 6 v 6 h -6 z m 6,0 h 6 v 6 h -6 z m 6,0 h 6 v 6 h -6 z m 6,0 h 6 v 6 h -6 z m 6,0 h 6 v 6 h -6 z m -168,6 h 6 v 6 h -6 z m 6,0 h 6 v 6 h -6 z m 6,0 h 6 v 6 h -6 z m 12,0 h 6 v 6 h -6 z m 18,0 h 6 v 6 h -6 z m 6,0 h 6 v 6 h -6 z m 6,0 h 6 v 6 h -6 z m 12,0 h 6 v 6 h -6 z m 18,0 h 6 v 6 h -6 z m 6,0 h 6 v 6 h -6 z m 6,0 h 6 v 6 h -6 z m 24,0 h 6 v 6 h -6 z m 6,0 h 6 v 6 h -6 z m 6,0 h 6 v 6 h -6 z m 12,0 h 6 v 6 h -6 z m 24,0 h 6 v 6 h -6 z m 6,0 h 6 v 6 h -6 z m 6,0 h 6 v 6 h -6 z M 0,204 h 6 v 6 H 0 Z m 6,0 h 6 v 6 H 6 Z m 6,0 h 6 v 6 h -6 z m 6,0 h 6 v 6 h -6 z m 6,0 h 6 v 6 h -6 z m 6,0 h 6 v 6 h -6 z m 6,0 h 6 v 6 h -6 z m 12,0 h 6 v 6 h -6 z m 18,0 h 6 v 6 h -6 z m 6,0 h 6 v 6 h -6 z m 6,0 h 6 v 6 h -6 z m 6,0 h 6 v 6 h -6 z m 12,0 h 6 v 6 h -6 z m 6,0 h 6 v 6 h -6 z m 6,0 h 6 v 6 h -6 z m 6,0 h 6 v 6 h -6 z m 6,0 h 6 v 6 h -6 z m 6,0 h 6 v 6 h -6 z m 12,0 h 6 v 6 h -6 z m 18,0 h 6 v 6 h -6 z m 6,0 h 6 v 6 h -6 z m 6,0 h 6 v 6 h -6 z m 12,0 h 6 v 6 h -6 z m 6,0 h 6 v 6 h -6 z m 6,0 h 6 v 6 h -6 z m 12,0 h 6 v 6 h -6 z m 12,0 h 6 v 6 h -6 z m 6,0 h 6 v 6 h -6 z m 6,0 h 6 v 6 h -6 z M 0,210 h 6 v 6 H 0 Z m 36,0 h 6 v 6 h -6 z m 18,0 h 6 v 6 h -6 z m 6,0 h 6 v 6 h -6 z m 12,0 h 6 v 6 h -6 z m 6,0 h 6 v 6 h -6 z m 6,0 h 6 v 6 h -6 z m 6,0 h 6 v 6 h -6 z m 6,0 h 6 v 6 h -6 z m 6,0 h 6 v 6 h -6 z m 24,0 h 6 v 6 h -6 z m 6,0 h 6 v 6 h -6 z m 24,0 h 6 v 6 h -6 z m 36,0 h 6 v 6 h -6 z m 24,0 h 6 v 6 h -6 z m 12,0 h 6 v 6 h -6 z m 6,0 h 6 v 6 h -6 z m 6,0 h 6 v 6 h -6 z M 0,216 h 6 v 6 H 0 Z m 12,0 h 6 v 6 h -6 z m 6,0 h 6 v 6 h -6 z m 6,0 h 6 v 6 h -6 z m 12,0 h 6 v 6 h -6 z m 12,0 h 6 v 6 h -6 z m 12,0 h 6 v 6 h -6 z m 12,0 h 6 v 6 h -6 z m 6,0 h 6 v 6 h -6 z m 12,0 h 6 v 6 h -6 z m 6,0 h 6 v 6 h -6 z m 18,0 h 6 v 6 h -6 z m 18,0 h 6 v 6 h -6 z m 6,0 h 6 v 6 h -6 z m 12,0 h 6 v 6 h -6 z m 12,0 h 6 v 6 h -6 z m 24,0 h 6 v 6 h -6 z m 6,0 h 6 v 6 h -6 z m 6,0 h 6 v 6 h -6 z m 6,0 h 6 v 6 h -6 z m 6,0 h 6 v 6 h -6 z m 6,0 h 6 v 6 h -6 z m 6,0 h 6 v 6 h -6 z m 12,0 h 6 v 6 h -6 z m 6,0 h 6 v 6 h -6 z M 0,222 h 6 v 6 H 0 Z m 12,0 h 6 v 6 h -6 z m 6,0 h 6 v 6 h -6 z m 6,0 h 6 v 6 h -6 z m 12,0 h 6 v 6 h -6 z m 12,0 h 6 v 6 h -6 z m 6,0 h 6 v 6 h -6 z m 12,0 h 6 v 6 h -6 z m 12,0 h 6 v 6 h -6 z m 18,0 h 6 v 6 h -6 z m 6,0 h 6 v 6 h -6 z m 6,0 h 6 v 6 h -6 z m 12,0 h 6 v 6 h -6 z m 6,0 h 6 v 6 h -6 z m 6,0 h 6 v 6 h -6 z m 18,0 h 6 v 6 h -6 z m 18,0 h 6 v 6 h -6 z m 18,0 h 6 v 6 h -6 z m 6,0 h 6 v 6 h -6 z m 24,0 h 6 v 6 h -6 z m 12,0 h 6 v 6 h -6 z m 6,0 h 6 v 6 h -6 z M 0,228 h 6 v 6 H 0 Z m 12,0 h 6 v 6 h -6 z m 6,0 h 6 v 6 h -6 z m 6,0 h 6 v 6 h -6 z m 12,0 h 6 v 6 h -6 z m 12,0 h 6 v 6 h -6 z m 6,0 h 6 v 6 h -6 z m 42,0 h 6 v 6 h -6 z m 24,0 h 6 v 6 h -6 z m 6,0 h 6 v 6 h -6 z m 36,0 h 6 v 6 h -6 z m 6,0 h 6 v 6 h -6 z m 6,0 h 6 v 6 h -6 z m 6,0 h 6 v 6 h -6 z m 18,0 h 6 v 6 h -6 z m 12,0 h 6 v 6 h -6 z m 6,0 h 6 v 6 h -6 z m 6,0 h 6 v 6 h -6 z m 12,0 h 6 v 6 h -6 z M 0,234 h 6 v 6 H 0 Z m 36,0 h 6 v 6 h -6 z m 12,0 h 6 v 6 h -6 z m 6,0 h 6 v 6 h -6 z m 6,0 h 6 v 6 h -6 z m 6,0 h 6 v 6 h -6 z m 12,0 h 6 v 6 h -6 z m 18,0 h 6 v 6 h -6 z m 24,0 h 6 v 6 h -6 z m 12,0 h 6 v 6 h -6 z m 6,0 h 6 v 6 h -6 z m 12,0 h 6 v 6 h -6 z m 6,0 h 6 v 6 h -6 z m 6,0 h 6 v 6 h -6 z m 18,0 h 6 v 6 h -6 z m 18,0 h 6 v 6 h -6 z m 12,0 h 6 v 6 h -6 z m 6,0 h 6 v 6 h -6 z m 6,0 h 6 v 6 h -6 z m 12,0 h 6 v 6 h -6 z m 6,0 h 6 v 6 h -6 z M 0,240 h 6 v 6 H 0 Z m 6,0 h 6 v 6 H 6 Z m 6,0 h 6 v 6 h -6 z m 6,0 h 6 v 6 h -6 z m 6,0 h 6 v 6 h -6 z m 6,0 h 6 v 6 h -6 z m 6,0 h 6 v 6 h -6 z m 12,0 h 6 v 6 h -6 z m 24,0 h 6 v 6 h -6 z m 12,0 h 6 v 6 h -6 z m 12,0 h 6 v 6 h -6 z m 12,0 h 6 v 6 h -6 z m 18,0 h 6 v 6 h -6 z m 12,0 h 6 v 6 h -6 z m 6,0 h 6 v 6 h -6 z m 12,0 h 6 v 6 h -6 z m 24,0 h 6 v 6 h -6 z m 6,0 h 6 v 6 h -6 z m 18,0 h 6 v 6 h -6 z m 6,0 h 6 v 6 h -6 z m 6,0 h 6 v 6 h -6 z m 6,0 h 6 v 6 h -6 z m 6,0 h 6 v 6 h -6 z m 6,0 h 6 v 6 h -6 z"
       id="path8" />
  </g>
  <metadata
     id="metadata17">
    <rdf:RDF>
      <cc:Work
         rdf:about="">
        <dc:title>QR Code</dc:title>
      </cc:Work>
    </rdf:RDF>
  </metadata>
  <g
     aria-label="Use this QR code to add your
device to your Wi-Fi network"
     id="text855"
     style="font-size:19.4813px;font-family:Outfit;-inkscape-font-specification:'Outfit, @wght=300';font-variation-settings:'wght' 300;text-align:center;text-anchor:middle;stroke-width:0.967559">
    <path
       d="m 23.05493,291.98757 q -1.461098,0 -2.610494,-0.64288 -1.129916,-0.66237 -1.79228,-1.79228 -0.662364,-1.1494 -0.662364,-2.57154 v -8.59125 h 1.441616 v 8.51333 q 0,1.12991 0.467551,1.96761 0.467551,0.8377 1.285766,1.28577 0.837696,0.44807 1.870205,0.44807 1.032509,0 1.831242,-0.44807 0.818215,-0.44807 1.285766,-1.26629 0.487032,-0.83769 0.487032,-1.96761 v -8.53281 h 1.422135 v 8.61074 q 0,1.42213 -0.662364,2.55205 -0.642883,1.12991 -1.79228,1.79228 -1.129915,0.64288 -2.571531,0.64288 z"
       id="path873" />
    <path
       d="m 33.808619,291.98757 q -0.740289,0 -1.422135,-0.19481 -0.681845,-0.2143 -1.246803,-0.58444 -0.545476,-0.37015 -0.954584,-0.87666 l 0.876659,-0.89614 q 0.545476,0.66236 1.227322,0.99354 0.701327,0.3117 1.558504,0.3117 0.915621,0 1.422135,-0.35066 0.525995,-0.35066 0.525995,-0.97406 0,-0.58444 -0.370145,-0.91562 -0.370145,-0.33119 -0.954584,-0.526 -0.564957,-0.19481 -1.20784,-0.37014 -0.642883,-0.19482 -1.227322,-0.46756 -0.584439,-0.29222 -0.954584,-0.79873 -0.350663,-0.50651 -0.350663,-1.32473 0,-0.77925 0.370144,-1.34421 0.389626,-0.58444 1.090953,-0.89614 0.720808,-0.33118 1.694873,-0.33118 1.032509,0 1.870205,0.37015 0.837696,0.37014 1.34421,1.09095 l -0.876659,0.87666 q -0.409107,-0.526 -1.032509,-0.79874 -0.60392,-0.29222 -1.363691,-0.29222 -0.876658,0 -1.344209,0.35067 -0.44807,0.33118 -0.44807,0.87666 0,0.52599 0.370145,0.83769 0.370144,0.29222 0.935102,0.48703 0.584439,0.17534 1.227322,0.37015 0.642883,0.17533 1.227322,0.48703 0.584439,0.29222 0.935102,0.81822 0.370145,0.50651 0.370145,1.38317 0,1.22732 -0.89614,1.96761 -0.876658,0.72081 -2.3962,0.72081 z"
       id="path875" />
    <path
       d="m 43.490821,291.98757 q -1.383172,0 -2.474125,-0.6234 -1.090953,-0.62341 -1.733836,-1.71436 -0.623401,-1.09095 -0.623401,-2.45464 0,-1.34421 0.623401,-2.41568 0.623402,-1.09096 1.694873,-1.71436 1.071472,-0.6234 2.3962,-0.6234 1.246803,0 2.201387,0.56496 0.974065,0.56496 1.519542,1.57798 0.564957,0.99355 0.564957,2.2988 0,0.15585 -0.01948,0.37014 -0.01948,0.19482 -0.07793,0.46755 h -7.928889 v -1.16887 h 7.188599 l -0.487032,0.42858 q 0.01948,-1.01302 -0.350663,-1.73383 -0.350664,-0.74029 -1.032509,-1.12992 -0.662365,-0.4091 -1.616948,-0.4091 -0.993547,0 -1.733836,0.42858 -0.740289,0.42859 -1.168878,1.20784 -0.409107,0.75978 -0.409107,1.81177 0,1.05199 0.428588,1.85072 0.44807,0.79873 1.227322,1.2468 0.798733,0.44807 1.831242,0.44807 0.837696,0 1.539023,-0.29222 0.701327,-0.3117 1.188359,-0.91562 l 0.876659,0.89614 q -0.642883,0.75977 -1.597467,1.18836 -0.935102,0.40911 -2.026055,0.40911 z"
       id="path877" />
    <path
       d="m 55.354938,291.79276 v -13.01351 h 1.363691 v 13.01351 z m -2.318275,-7.92889 v -1.22733 h 5.980759 v 1.22733 z"
       id="path879" />
    <path
       d="m 67.550238,291.79276 v -5.37684 q 0,-1.20784 -0.720808,-1.94813 -0.701327,-0.75977 -1.870205,-0.75977 -0.798733,0 -1.402654,0.35066 -0.60392,0.35066 -0.954583,0.95458 -0.350664,0.60392 -0.350664,1.38317 l -0.623401,-0.35066 q 0,-1.03251 0.487032,-1.85072 0.487033,-0.81822 1.305247,-1.28577 0.837696,-0.46755 1.909168,-0.46755 1.05199,0 1.870204,0.48703 0.818215,0.46755 1.266285,1.30525 0.467551,0.8377 0.467551,1.94813 v 5.61062 z m -6.662605,0 v -13.79277 h 1.363691 v 13.79277 z"
       id="path881" />
    <path
       d="m 71.485472,291.79276 v -9.15622 h 1.383173 v 9.15622 z m 0.681846,-11.14331 q -0.389626,0 -0.662364,-0.27274 -0.272738,-0.29222 -0.272738,-0.68184 0,-0.40911 0.272738,-0.68185 0.272738,-0.27274 0.662364,-0.27274 0.428589,0 0.681846,0.27274 0.272738,0.27274 0.272738,0.68185 0,0.38962 -0.272738,0.68184 -0.253257,0.27274 -0.681846,0.27274 z"
       id="path883" />
    <path
       d="m 78.440285,291.98757 q -0.740289,0 -1.422135,-0.19481 -0.681845,-0.2143 -1.246803,-0.58444 -0.545476,-0.37015 -0.954584,-0.87666 l 0.876659,-0.89614 q 0.545476,0.66236 1.227322,0.99354 0.701327,0.3117 1.558504,0.3117 0.915621,0 1.422135,-0.35066 0.525995,-0.35066 0.525995,-0.97406 0,-0.58444 -0.370145,-0.91562 -0.370144,-0.33119 -0.954583,-0.526 -0.564958,-0.19481 -1.207841,-0.37014 -0.642883,-0.19482 -1.227322,-0.46756 -0.584439,-0.29222 -0.954584,-0.79873 -0.350663,-0.50651 -0.350663,-1.32473 0,-0.77925 0.370145,-1.34421 0.389626,-0.58444 1.090952,-0.89614 0.720809,-0.33118 1.694874,-0.33118 1.032508,0 1.870204,0.37015 0.837696,0.37014 1.34421,1.09095 l -0.876658,0.87666 q -0.409108,-0.526 -1.032509,-0.79874 -0.603921,-0.29222 -1.363691,-0.29222 -0.876659,0 -1.34421,0.35067 -0.44807,0.33118 -0.44807,0.87666 0,0.52599 0.370145,0.83769 0.370144,0.29222 0.935102,0.48703 0.584439,0.17534 1.227322,0.37015 0.642883,0.17533 1.227322,0.48703 0.584439,0.29222 0.935102,0.81822 0.370145,0.50651 0.370145,1.38317 0,1.22732 -0.89614,1.96761 -0.876658,0.72081 -2.3962,0.72081 z"
       id="path885" />
    <path
       d="m 94.473396,291.98757 q -1.422135,0 -2.649457,-0.526 -1.227322,-0.54547 -2.142943,-1.48058 -0.915621,-0.95458 -1.422135,-2.20138 -0.506514,-1.26629 -0.506514,-2.7079 0,-1.4611 0.506514,-2.7079 0.506514,-1.24681 1.402654,-2.18191 0.915621,-0.9351 2.123461,-1.4611 1.227322,-0.52599 2.649457,-0.52599 1.422135,0 2.629976,0.52599 1.227322,0.526 2.123461,1.4611 0.91562,0.9351 1.42214,2.20139 0.52599,1.2468 0.52599,2.7079 0,1.44161 -0.50651,2.7079 -0.50652,1.2468 -1.422138,2.1819 -0.915621,0.93511 -2.123462,1.48058 -1.207841,0.526 -2.610494,0.526 z m 6.701564,0.75977 -6.526233,-6.50676 0.915622,-0.91562 6.526231,6.50676 z m -6.740527,-2.14294 q 1.519542,0 2.68842,-0.72081 1.168878,-0.72081 1.850723,-1.96761 0.681846,-1.24681 0.681846,-2.84427 0,-1.18836 -0.389626,-2.18191 -0.389626,-1.01303 -1.090953,-1.75332 -0.701327,-0.75977 -1.655911,-1.16887 -0.954583,-0.40911 -2.084499,-0.40911 -1.519541,0 -2.688419,0.72081 -1.168878,0.70132 -1.850724,1.94813 -0.662364,1.2468 -0.662364,2.84427 0,1.18836 0.389626,2.20138 0.389626,1.01303 1.071472,1.7728 0.701326,0.74029 1.65591,1.1494 0.954584,0.40911 2.084499,0.40911 z"
       id="path887" />
    <path
       d="m 105.18809,285.79251 v -1.20784 h 3.89626 q 1.32473,0 2.02606,-0.66236 0.70132,-0.68185 0.70132,-1.81176 0,-1.09095 -0.70132,-1.7728 -0.70133,-0.70133 -2.02606,-0.70133 h -3.89626 v -1.2468 h 3.89626 q 1.30525,0 2.24035,0.48703 0.9351,0.46755 1.42213,1.30525 0.50652,0.8377 0.50652,1.90917 0,1.11043 -0.50652,1.94813 -0.48703,0.83769 -1.42213,1.30524 -0.9351,0.44807 -2.24035,0.44807 z m -0.91562,6.00025 v -13.40314 h 1.42213 v 13.40314 z m 8.10422,0 -5.02618,-6.19506 1.38318,-0.44807 5.47424,6.64313 z"
       id="path889" />
    <path
       d="m 124.63043,291.98757 q -1.34421,0 -2.43517,-0.6234 -1.07147,-0.64289 -1.71435,-1.73384 -0.6234,-1.09095 -0.6234,-2.43516 0,-1.34421 0.6234,-2.41568 0.64288,-1.09096 1.71435,-1.71436 1.09096,-0.6234 2.43517,-0.6234 1.03251,0 1.92865,0.38963 0.89614,0.38962 1.51954,1.09095 l -0.89614,0.91562 q -0.46755,-0.52599 -1.12992,-0.79873 -0.66236,-0.29222 -1.42213,-0.29222 -0.97407,0 -1.73384,0.44807 -0.75977,0.44807 -1.18836,1.22732 -0.42859,0.75977 -0.42859,1.7728 0,0.99354 0.42859,1.79228 0.42859,0.77925 1.18836,1.22732 0.75977,0.44807 1.73384,0.44807 0.77925,0 1.44161,-0.27274 0.66237,-0.29222 1.12992,-0.81821 l 0.91562,0.91562 q -0.64288,0.72081 -1.5585,1.11043 -0.89614,0.38963 -1.92865,0.38963 z"
       id="path891" />
    <path
       d="m 134.00094,291.98757 q -1.32473,0 -2.41568,-0.64288 -1.07148,-0.64289 -1.71436,-1.73384 -0.6234,-1.09095 -0.6234,-2.43516 0,-1.32473 0.6234,-2.3962 0.64288,-1.07147 1.71436,-1.69488 1.09095,-0.64288 2.41568,-0.64288 1.34421,0 2.41568,0.6234 1.07147,0.6234 1.69487,1.71436 0.64288,1.07147 0.64288,2.3962 0,1.36369 -0.64288,2.45464 -0.6234,1.07147 -1.69487,1.71436 -1.07147,0.64288 -2.41568,0.64288 z m 0,-1.32473 q 0.97406,0 1.71435,-0.44807 0.75977,-0.44807 1.18836,-1.2468 0.44807,-0.79874 0.44807,-1.79228 0,-0.99355 -0.44807,-1.75332 -0.42859,-0.77925 -1.18836,-1.22732 -0.74029,-0.44807 -1.71435,-0.44807 -0.95459,0 -1.71436,0.44807 -0.75977,0.44807 -1.18836,1.22732 -0.42859,0.75977 -0.42859,1.75332 0,1.01302 0.42859,1.81176 0.42859,0.77925 1.18836,1.22732 0.75977,0.44807 1.71436,0.44807 z"
       id="path893" />
    <path
       d="m 144.81307,291.98757 q -1.26628,0 -2.27931,-0.6234 -1.01303,-0.62341 -1.61695,-1.69488 -0.58444,-1.09095 -0.58444,-2.43516 0,-1.36369 0.58444,-2.43516 0.60392,-1.09095 1.61695,-1.71436 1.01303,-0.64288 2.27931,-0.64288 1.03251,0 1.87021,0.40911 0.83769,0.40911 1.38317,1.16888 0.56496,0.74029 0.66236,1.75331 v 2.86375 q -0.11688,0.99355 -0.66236,1.75332 -0.526,0.74029 -1.36369,1.16888 -0.8377,0.42859 -1.88969,0.42859 z m 0.23378,-1.30525 q 0.95458,0 1.67539,-0.42859 0.72081,-0.44807 1.12991,-1.22732 0.40911,-0.79873 0.40911,-1.81176 0,-1.03251 -0.42859,-1.81176 -0.4091,-0.77925 -1.12991,-1.22732 -0.72081,-0.44807 -1.67539,-0.44807 -0.95459,0 -1.69488,0.44807 -0.74029,0.44807 -1.16888,1.2468 -0.4091,0.77925 -0.4091,1.79228 0,1.01303 0.4091,1.81176 0.42859,0.77925 1.16888,1.22732 0.75977,0.42859 1.71436,0.42859 z m 4.50018,1.11044 h -1.36369 v -2.45465 l 0.27273,-2.25983 -0.27273,-2.20139 v -6.8769 h 1.36369 z"
       id="path895" />
    <path
       d="m 156.5408,291.98757 q -1.38317,0 -2.47413,-0.6234 -1.09095,-0.62341 -1.73383,-1.71436 -0.6234,-1.09095 -0.6234,-2.45464 0,-1.34421 0.6234,-2.41568 0.6234,-1.09096 1.69487,-1.71436 1.07147,-0.6234 2.3962,-0.6234 1.2468,0 2.20139,0.56496 0.97406,0.56496 1.51954,1.57798 0.56496,0.99355 0.56496,2.2988 0,0.15585 -0.0195,0.37014 -0.0195,0.19482 -0.0779,0.46755 h -7.92889 v -1.16887 h 7.1886 l -0.48703,0.42858 q 0.0195,-1.01302 -0.35066,-1.73383 -0.35067,-0.74029 -1.03251,-1.12992 -0.66237,-0.4091 -1.61695,-0.4091 -0.99355,0 -1.73384,0.42858 -0.74029,0.42859 -1.16887,1.20784 -0.40911,0.75978 -0.40911,1.81177 0,1.05199 0.42859,1.85072 0.44807,0.79873 1.22732,1.2468 0.79873,0.44807 1.83124,0.44807 0.8377,0 1.53902,-0.29222 0.70133,-0.3117 1.18836,-0.91562 l 0.87666,0.89614 q -0.64288,0.75977 -1.59747,1.18836 -0.9351,0.40911 -2.02605,0.40911 z"
       id="path897" />
    <path
       d="m 168.40491,291.79276 v -13.01351 h 1.36369 v 13.01351 z m -2.31827,-7.92889 v -1.22733 h 5.98075 v 1.22733 z"
       id="path899" />
    <path
       d="m 177.75595,291.98757 q -1.32473,0 -2.41568,-0.64288 -1.07147,-0.64289 -1.71436,-1.73384 -0.6234,-1.09095 -0.6234,-2.43516 0,-1.32473 0.6234,-2.3962 0.64289,-1.07147 1.71436,-1.69488 1.09095,-0.64288 2.41568,-0.64288 1.34421,0 2.41568,0.6234 1.07147,0.6234 1.69487,1.71436 0.64289,1.07147 0.64289,2.3962 0,1.36369 -0.64289,2.45464 -0.6234,1.07147 -1.69487,1.71436 -1.07147,0.64288 -2.41568,0.64288 z m 0,-1.32473 q 0.97406,0 1.71435,-0.44807 0.75977,-0.44807 1.18836,-1.2468 0.44807,-0.79874 0.44807,-1.79228 0,-0.99355 -0.44807,-1.75332 -0.42859,-0.77925 -1.18836,-1.22732 -0.74029,-0.44807 -1.71435,-0.44807 -0.95458,0 -1.71435,0.44807 -0.75978,0.44807 -1.18836,1.22732 -0.42859,0.75977 -0.42859,1.75332 0,1.01302 0.42859,1.81176 0.42858,0.77925 1.18836,1.22732 0.75977,0.44807 1.71435,0.44807 z"
       id="path901" />
    <path
       d="m 192.83449,291.98757 q -1.30524,0 -2.33775,-0.6234 -1.03251,-0.64289 -1.63643,-1.71436 -0.58444,-1.07147 -0.58444,-2.41568 0,-1.36369 0.58444,-2.43516 0.60392,-1.09095 1.63643,-1.71436 1.03251,-0.64288 2.31827,-0.64288 1.05199,0 1.87021,0.42859 0.83769,0.40911 1.34421,1.16888 0.52599,0.74029 0.64288,1.73383 v 2.86375 q -0.11689,0.99355 -0.64288,1.75332 -0.50652,0.75977 -1.34421,1.18836 -0.81822,0.40911 -1.85073,0.40911 z m 0.2143,-1.30525 q 1.42213,0 2.27931,-0.95458 0.87666,-0.95459 0.87666,-2.51309 0,-1.03251 -0.40911,-1.81176 -0.38962,-0.79873 -1.11043,-1.22732 -0.70133,-0.44807 -1.65591,-0.44807 -0.97407,0 -1.73384,0.44807 -0.74029,0.44807 -1.18836,1.2468 -0.42859,0.77925 -0.42859,1.79228 0,1.01303 0.42859,1.79228 0.44807,0.77925 1.20784,1.22732 0.75977,0.44807 1.73384,0.44807 z m 3.07804,1.11044 v -2.45465 l 0.27274,-2.25983 -0.27274,-2.20139 v -2.24035 h 1.36369 v 9.15622 z"
       id="path903" />
    <path
       d="m 204.1531,291.98757 q -1.26629,0 -2.27931,-0.6234 -1.01303,-0.62341 -1.61695,-1.69488 -0.58444,-1.09095 -0.58444,-2.43516 0,-1.36369 0.58444,-2.43516 0.60392,-1.09095 1.61695,-1.71436 1.01302,-0.64288 2.27931,-0.64288 1.03251,0 1.8702,0.40911 0.8377,0.40911 1.38318,1.16888 0.56495,0.74029 0.66236,1.75331 v 2.86375 q -0.11689,0.99355 -0.66236,1.75332 -0.526,0.74029 -1.3637,1.16888 -0.83769,0.42859 -1.88968,0.42859 z m 0.23377,-1.30525 q 0.95459,0 1.6754,-0.42859 0.7208,-0.44807 1.12991,-1.22732 0.40911,-0.79873 0.40911,-1.81176 0,-1.03251 -0.42859,-1.81176 -0.40911,-0.77925 -1.12992,-1.22732 -0.7208,-0.44807 -1.67539,-0.44807 -0.95458,0 -1.69487,0.44807 -0.74029,0.44807 -1.16888,1.2468 -0.40911,0.77925 -0.40911,1.79228 0,1.01303 0.40911,1.81176 0.42859,0.77925 1.16888,1.22732 0.75977,0.42859 1.71435,0.42859 z m 4.50018,1.11044 h -1.36369 v -2.45465 l 0.27274,-2.25983 -0.27274,-2.20139 v -6.8769 h 1.36369 z"
       id="path905" />
    <path
       d="m 215.54964,291.98757 q -1.26628,0 -2.27931,-0.6234 -1.01303,-0.62341 -1.61695,-1.69488 -0.58444,-1.09095 -0.58444,-2.43516 0,-1.36369 0.58444,-2.43516 0.60392,-1.09095 1.61695,-1.71436 1.01303,-0.64288 2.27931,-0.64288 1.03251,0 1.87021,0.40911 0.83769,0.40911 1.38317,1.16888 0.56496,0.74029 0.66237,1.75331 v 2.86375 q -0.11689,0.99355 -0.66237,1.75332 -0.52599,0.74029 -1.36369,1.16888 -0.8377,0.42859 -1.88969,0.42859 z m 0.23378,-1.30525 q 0.95458,0 1.67539,-0.42859 0.72081,-0.44807 1.12992,-1.22732 0.4091,-0.79873 0.4091,-1.81176 0,-1.03251 -0.42858,-1.81176 -0.40911,-0.77925 -1.12992,-1.22732 -0.72081,-0.44807 -1.67539,-0.44807 -0.95459,0 -1.69487,0.44807 -0.74029,0.44807 -1.16888,1.2468 -0.40911,0.77925 -0.40911,1.79228 0,1.01303 0.40911,1.81176 0.42859,0.77925 1.16888,1.22732 0.75977,0.42859 1.71435,0.42859 z m 4.50018,1.11044 h -1.36369 v -2.45465 l 0.27274,-2.25983 -0.27274,-2.20139 v -6.8769 h 1.36369 z"
       id="path907" />
    <path
       d="m 230.29697,291.83172 -4.01315,-9.19518 h 1.50006 l 3.2339,7.67564 h -0.56496 l 3.40923,-7.67564 h 1.51954 l -4.30537,9.19518 z m -2.49361,3.81833 2.51309,-5.2015 0.75977,1.38317 -1.7728,3.81833 z"
       id="path909" />
    <path
       d="m 240.75842,291.98757 q -1.32473,0 -2.41568,-0.64288 -1.07147,-0.64289 -1.71435,-1.73384 -0.62341,-1.09095 -0.62341,-2.43516 0,-1.32473 0.62341,-2.3962 0.64288,-1.07147 1.71435,-1.69488 1.09095,-0.64288 2.41568,-0.64288 1.34421,0 2.41568,0.6234 1.07147,0.6234 1.69488,1.71436 0.64288,1.07147 0.64288,2.3962 0,1.36369 -0.64288,2.45464 -0.62341,1.07147 -1.69488,1.71436 -1.07147,0.64288 -2.41568,0.64288 z m 0,-1.32473 q 0.97407,0 1.71436,-0.44807 0.75977,-0.44807 1.18836,-1.2468 0.44807,-0.79874 0.44807,-1.79228 0,-0.99355 -0.44807,-1.75332 -0.42859,-0.77925 -1.18836,-1.22732 -0.74029,-0.44807 -1.71436,-0.44807 -0.95458,0 -1.71435,0.44807 -0.75977,0.44807 -1.18836,1.22732 -0.42859,0.75977 -0.42859,1.75332 0,1.01302 0.42859,1.81176 0.42859,0.77925 1.18836,1.22732 0.75977,0.44807 1.71435,0.44807 z"
       id="path911" />
    <path
       d="m 251.29781,291.98757 q -1.11043,0 -1.98709,-0.50652 -0.87666,-0.52599 -1.38317,-1.42213 -0.48704,-0.89614 -0.48704,-2.10398 v -5.3184 h 1.38318 v 5.25996 q 0,0.83769 0.29221,1.46109 0.31171,0.6234 0.87666,0.97407 0.56496,0.35066 1.30525,0.35066 1.1494,0 1.81176,-0.75977 0.68185,-0.75977 0.68185,-2.02605 v -5.25996 h 1.36369 v 5.3184 q 0,1.18836 -0.48703,2.10398 -0.48704,0.91562 -1.3637,1.42213 -0.87665,0.50652 -2.00657,0.50652 z"
       id="path913" />
    <path
       d="m 257.70716,291.79276 v -9.15622 h 1.36369 v 9.15622 z m 1.36369,-5.33788 -0.56496,-0.25326 q 0,-1.73383 0.8377,-2.74686 0.85717,-1.01303 2.33775,-1.01303 0.68185,0 1.2468,0.25326 0.56496,0.23377 1.05199,0.75977 l -0.89614,0.95458 q -0.33118,-0.37014 -0.74028,-0.52599 -0.38963,-0.15585 -0.89614,-0.15585 -1.05199,0 -1.71436,0.70132 -0.66236,0.68185 -0.66236,2.02606 z"
       id="path915" />
    <path
       d="m 22.597126,316.33919 q -1.266284,0 -2.279312,-0.6234 -1.013028,-0.6234 -1.616948,-1.69487 -0.584439,-1.09095 -0.584439,-2.43516 0,-1.36369 0.584439,-2.43517 0.60392,-1.09095 1.616948,-1.71435 1.013028,-0.64288 2.279312,-0.64288 1.032509,0 1.870205,0.4091 0.837696,0.40911 1.383172,1.16888 0.564958,0.74029 0.662364,1.75332 v 2.86375 q -0.116887,0.99355 -0.662364,1.75332 -0.525995,0.74029 -1.363691,1.16887 -0.837696,0.42859 -1.889686,0.42859 z m 0.233776,-1.30524 q 0.954583,0 1.675391,-0.42859 0.720809,-0.44807 1.129916,-1.22732 0.409107,-0.79874 0.409107,-1.81177 0,-1.0325 -0.428588,-1.81176 -0.409108,-0.77925 -1.129916,-1.22732 -0.720808,-0.44807 -1.675392,-0.44807 -0.954583,0 -1.694873,0.44807 -0.740289,0.44807 -1.168878,1.24681 -0.409107,0.77925 -0.409107,1.79227 0,1.01303 0.409107,1.81177 0.428589,0.77925 1.168878,1.22732 0.759771,0.42859 1.714355,0.42859 z m 4.50018,1.11043 h -1.363691 v -2.45464 l 0.272738,-2.25983 -0.272738,-2.20139 v -6.8769 h 1.363691 z"
       id="path917" />
    <path
       d="m 34.324851,316.33919 q -1.383173,0 -2.474125,-0.6234 -1.090953,-0.6234 -1.733836,-1.71435 -0.623402,-1.09096 -0.623402,-2.45465 0,-1.34421 0.623402,-2.41568 0.623401,-1.09095 1.694873,-1.71435 1.071471,-0.6234 2.3962,-0.6234 1.246803,0 2.201387,0.56495 0.974065,0.56496 1.519541,1.57799 0.564958,0.99355 0.564958,2.29879 0,0.15585 -0.01948,0.37015 -0.01948,0.19481 -0.07793,0.46755 h -7.928889 v -1.16888 h 7.1886 l -0.487032,0.42859 q 0.01948,-1.01303 -0.350664,-1.73384 -0.350663,-0.74029 -1.032509,-1.12991 -0.662364,-0.40911 -1.616948,-0.40911 -0.993546,0 -1.733835,0.42859 -0.74029,0.42859 -1.168878,1.20784 -0.409108,0.75977 -0.409108,1.81176 0,1.05199 0.428589,1.85072 0.44807,0.79874 1.227322,1.24681 0.798733,0.44807 1.831242,0.44807 0.837696,0 1.539023,-0.29222 0.701327,-0.3117 1.188359,-0.91562 l 0.876659,0.89614 q -0.642883,0.75977 -1.597467,1.18836 -0.935102,0.4091 -2.026055,0.4091 z"
       id="path919" />
    <path
       d="m 43.617445,316.14438 -4.227443,-9.15621 h 1.519542 l 3.565078,8.00681 h -0.857177 l 3.584559,-8.00681 h 1.480579 l -4.266405,9.15621 z"
       id="path921" />
    <path
       d="m 50.39692,316.14438 v -9.15621 h 1.383173 v 9.15621 z m 0.681846,-11.1433 q -0.389626,0 -0.662364,-0.27274 -0.272738,-0.29222 -0.272738,-0.68185 0,-0.4091 0.272738,-0.68184 0.272738,-0.27274 0.662364,-0.27274 0.428589,0 0.681845,0.27274 0.272739,0.27274 0.272739,0.68184 0,0.38963 -0.272739,0.68185 -0.253256,0.27274 -0.681845,0.27274 z"
       id="path923" />
    <path
       d="m 58.715422,316.33919 q -1.344209,0 -2.435162,-0.6234 -1.071472,-0.64288 -1.714355,-1.73383 -0.623401,-1.09096 -0.623401,-2.43517 0,-1.34421 0.623401,-2.41568 0.642883,-1.09095 1.714355,-1.71435 1.090953,-0.6234 2.435162,-0.6234 1.032509,0 1.928649,0.38962 0.89614,0.38963 1.519542,1.09096 l -0.89614,0.91562 q -0.467551,-0.526 -1.129916,-0.79874 -0.662364,-0.29222 -1.422135,-0.29222 -0.974065,0 -1.733835,0.44807 -0.759771,0.44807 -1.18836,1.22733 -0.428588,0.75977 -0.428588,1.77279 0,0.99355 0.428588,1.79228 0.428589,0.77926 1.18836,1.22733 0.75977,0.44807 1.733835,0.44807 0.779252,0 1.441617,-0.27274 0.662364,-0.29222 1.129915,-0.81822 l 0.915621,0.91562 q -0.642883,0.72081 -1.558504,1.11044 -0.89614,0.38962 -1.928649,0.38962 z"
       id="path925" />
    <path
       d="m 68.163862,316.33919 q -1.383172,0 -2.474125,-0.6234 -1.090953,-0.6234 -1.733836,-1.71435 -0.623402,-1.09096 -0.623402,-2.45465 0,-1.34421 0.623402,-2.41568 0.623402,-1.09095 1.694873,-1.71435 1.071472,-0.6234 2.3962,-0.6234 1.246803,0 2.201387,0.56495 0.974065,0.56496 1.519541,1.57799 0.564958,0.99355 0.564958,2.29879 0,0.15585 -0.01948,0.37015 -0.01948,0.19481 -0.07792,0.46755 h -7.92889 v -1.16888 h 7.1886 l -0.487032,0.42859 q 0.01948,-1.01303 -0.350664,-1.73384 -0.350663,-0.74029 -1.032509,-1.12991 -0.662364,-0.40911 -1.616948,-0.40911 -0.993546,0 -1.733835,0.42859 -0.74029,0.42859 -1.168878,1.20784 -0.409108,0.75977 -0.409108,1.81176 0,1.05199 0.428589,1.85072 0.44807,0.79874 1.227322,1.24681 0.798733,0.44807 1.831242,0.44807 0.837696,0 1.539023,-0.29222 0.701327,-0.3117 1.188359,-0.91562 l 0.876659,0.89614 q -0.642883,0.75977 -1.597467,1.18836 -0.935102,0.4091 -2.026055,0.4091 z"
       id="path927" />
    <path
       d="m 80.027977,316.14438 v -13.01351 h 1.363691 v 13.01351 z m -2.318275,-7.92889 v -1.22732 h 5.980759 v 1.22732 z"
       id="path929" />
    <path
       d="m 89.379008,316.33919 q -1.324728,0 -2.415681,-0.64288 -1.071471,-0.64288 -1.714354,-1.73384 -0.623402,-1.09095 -0.623402,-2.43516 0,-1.32473 0.623402,-2.3962 0.642883,-1.07147 1.714354,-1.69487 1.090953,-0.64288 2.415681,-0.64288 1.34421,0 2.415682,0.6234 1.071471,0.6234 1.694873,1.71435 0.642883,1.07147 0.642883,2.3962 0,1.36369 -0.642883,2.45465 -0.623402,1.07147 -1.694873,1.71435 -1.071472,0.64288 -2.415682,0.64288 z m 0,-1.32472 q 0.974065,0 1.714355,-0.44807 0.759771,-0.44807 1.188359,-1.24681 0.44807,-0.79873 0.44807,-1.79228 0,-0.99354 -0.44807,-1.75331 -0.428588,-0.77926 -1.188359,-1.22733 -0.74029,-0.44807 -1.714355,-0.44807 -0.954583,0 -1.714354,0.44807 -0.759771,0.44807 -1.188359,1.22733 -0.428589,0.75977 -0.428589,1.75331 0,1.01303 0.428589,1.81176 0.428588,0.77926 1.188359,1.22733 0.759771,0.44807 1.714354,0.44807 z"
       id="path931" />
    <path
       d="m 103.54193,316.18334 -4.013147,-9.19517 h 1.500057 l 3.2339,7.67563 h -0.56496 l 3.40923,-7.67563 h 1.51954 l -4.30537,9.19517 z m -2.49361,3.81834 2.51309,-5.20151 0.75977,1.38317 -1.77279,3.81834 z"
       id="path933" />
    <path
       d="m 114.00337,316.33919 q -1.32473,0 -2.41568,-0.64288 -1.07148,-0.64288 -1.71436,-1.73384 -0.6234,-1.09095 -0.6234,-2.43516 0,-1.32473 0.6234,-2.3962 0.64288,-1.07147 1.71436,-1.69487 1.09095,-0.64288 2.41568,-0.64288 1.34421,0 2.41568,0.6234 1.07147,0.6234 1.69487,1.71435 0.64288,1.07147 0.64288,2.3962 0,1.36369 -0.64288,2.45465 -0.6234,1.07147 -1.69487,1.71435 -1.07147,0.64288 -2.41568,0.64288 z m 0,-1.32472 q 0.97406,0 1.71435,-0.44807 0.75977,-0.44807 1.18836,-1.24681 0.44807,-0.79873 0.44807,-1.79228 0,-0.99354 -0.44807,-1.75331 -0.42859,-0.77926 -1.18836,-1.22733 -0.74029,-0.44807 -1.71435,-0.44807 -0.95459,0 -1.71436,0.44807 -0.75977,0.44807 -1.18836,1.22733 -0.42858,0.75977 -0.42858,1.75331 0,1.01303 0.42858,1.81176 0.42859,0.77926 1.18836,1.22733 0.75977,0.44807 1.71436,0.44807 z"
       id="path935" />
    <path
       d="m 124.54277,316.33919 q -1.11043,0 -1.98709,-0.50651 -0.87666,-0.526 -1.38317,-1.42214 -0.48704,-0.89613 -0.48704,-2.10398 v -5.31839 h 1.38318 v 5.25995 q 0,0.8377 0.29222,1.4611 0.3117,0.6234 0.87665,0.97406 0.56496,0.35067 1.30525,0.35067 1.1494,0 1.81176,-0.75977 0.68185,-0.75977 0.68185,-2.02606 v -5.25995 h 1.36369 v 5.31839 q 0,1.18836 -0.48703,2.10398 -0.48704,0.91563 -1.36369,1.42214 -0.87666,0.50651 -2.00658,0.50651 z"
       id="path937" />
    <path
       d="m 130.9521,316.14438 v -9.15621 h 1.36369 v 9.15621 z m 1.36369,-5.33788 -0.56495,-0.25325 q 0,-1.73384 0.83769,-2.74687 0.85718,-1.01302 2.33776,-1.01302 0.68184,0 1.2468,0.25325 0.56496,0.23378 1.05199,0.75977 l -0.89614,0.95459 q -0.33118,-0.37015 -0.74029,-0.526 -0.38962,-0.15585 -0.89614,-0.15585 -1.05199,0 -1.71435,0.70133 -0.66237,0.68184 -0.66237,2.02605 z"
       id="path939" />
    <path
       d="m 146.90728,316.14438 -4.32485,-13.40313 h 1.42214 l 3.643,11.53293 h -0.42859 l 3.60404,-11.53293 h 1.07147 l 3.62352,11.53293 h -0.44807 l 3.64301,-11.53293 h 1.44161 l -4.34433,13.40313 h -1.05199 l -3.60404,-11.51345 h 0.40911 l -3.60404,11.51345 z"
       id="path941" />
    <path
       d="m 162.27803,316.14438 v -9.15621 h 1.38317 v 9.15621 z m 0.68185,-11.1433 q -0.38963,0 -0.66237,-0.27274 -0.27274,-0.29222 -0.27274,-0.68185 0,-0.4091 0.27274,-0.68184 0.27274,-0.27274 0.66237,-0.27274 0.42858,0 0.68184,0.27274 0.27274,0.27274 0.27274,0.68184 0,0.38963 -0.27274,0.68185 -0.25326,0.27274 -0.68184,0.27274 z"
       id="path943" />
    <path
       d="m 166.42754,311.85849 v -1.30524 h 6.21453 v 1.30524 z"
       id="path945" />
    <path
       d="m 175.7201,316.14438 v -13.40313 h 1.42213 v 13.40313 z m 0.9351,-6.05868 v -1.30525 h 7.1886 v 1.30525 z m 0,-6.03921 v -1.30524 h 7.51978 v 1.30524 z"
       id="path947" />
    <path
       d="m 186.4348,316.14438 v -9.15621 h 1.38317 v 9.15621 z m 0.68184,-11.1433 q -0.38962,0 -0.66236,-0.27274 -0.27274,-0.29222 -0.27274,-0.68185 0,-0.4091 0.27274,-0.68184 0.27274,-0.27274 0.66236,-0.27274 0.42859,0 0.68185,0.27274 0.27274,0.27274 0.27274,0.68184 0,0.38963 -0.27274,0.68185 -0.25326,0.27274 -0.68185,0.27274 z"
       id="path949" />
    <path
       d="m 201.4354,316.14438 v -5.37684 q 0,-1.20784 -0.72081,-1.94813 -0.70132,-0.75977 -1.8702,-0.75977 -0.79874,0 -1.40266,0.35066 -0.60392,0.35067 -0.95458,0.95459 -0.35066,0.60392 -0.35066,1.38317 l -0.6234,-0.35066 q 0,-1.03251 0.48703,-1.85073 0.48703,-0.81821 1.30524,-1.28576 0.8377,-0.46755 1.90917,-0.46755 1.05199,0 1.87021,0.50651 0.81821,0.50651 1.26628,1.36369 0.46755,0.85718 0.46755,1.87021 v 5.61061 z m -6.6626,0 v -9.15621 h 1.36369 v 9.15621 z"
       id="path951" />
    <path
       d="m 209.59808,316.33919 q -1.38317,0 -2.47413,-0.6234 -1.09095,-0.6234 -1.73383,-1.71435 -0.62341,-1.09096 -0.62341,-2.45465 0,-1.34421 0.62341,-2.41568 0.6234,-1.09095 1.69487,-1.71435 1.07147,-0.6234 2.3962,-0.6234 1.2468,0 2.20139,0.56495 0.97406,0.56496 1.51954,1.57799 0.56496,0.99355 0.56496,2.29879 0,0.15585 -0.0195,0.37015 -0.0195,0.19481 -0.0779,0.46755 h -7.92889 v -1.16888 h 7.1886 l -0.48703,0.42859 q 0.0195,-1.01303 -0.35067,-1.73384 -0.35066,-0.74029 -1.03251,-1.12991 -0.66236,-0.40911 -1.61694,-0.40911 -0.99355,0 -1.73384,0.42859 -0.74029,0.42859 -1.16888,1.20784 -0.4091,0.75977 -0.4091,1.81176 0,1.05199 0.42858,1.85072 0.44807,0.79874 1.22733,1.24681 0.79873,0.44807 1.83124,0.44807 0.83769,0 1.53902,-0.29222 0.70133,-0.3117 1.18836,-0.91562 l 0.87666,0.89614 q -0.64288,0.75977 -1.59747,1.18836 -0.9351,0.4091 -2.02605,0.4091 z"
       id="path953" />
    <path
       d="m 216.94252,316.14438 v -13.01351 h 1.36369 v 13.01351 z m -2.31827,-7.92889 v -1.22732 h 5.98075 v 1.22732 z"
       id="path955" />
    <path
       d="m 225.02727,316.14438 -3.52612,-9.15621 h 1.42214 l 2.78582,7.59771 -0.50651,0.0195 2.76635,-7.61719 h 0.79873 l 2.76634,7.61719 -0.50651,-0.0195 2.76634,-7.59771 h 1.44162 l -3.5456,9.15621 h -0.79873 l -2.82479,-7.5003 h 0.58444 l -2.80531,7.5003 z"
       id="path957" />
    <path
       d="m 240.84606,316.33919 q -1.32472,0 -2.41568,-0.64288 -1.07147,-0.64288 -1.71435,-1.73384 -0.6234,-1.09095 -0.6234,-2.43516 0,-1.32473 0.6234,-2.3962 0.64288,-1.07147 1.71435,-1.69487 1.09096,-0.64288 2.41568,-0.64288 1.34421,0 2.41569,0.6234 1.07147,0.6234 1.69487,1.71435 0.64288,1.07147 0.64288,2.3962 0,1.36369 -0.64288,2.45465 -0.6234,1.07147 -1.69487,1.71435 -1.07148,0.64288 -2.41569,0.64288 z m 0,-1.32472 q 0.97407,0 1.71436,-0.44807 0.75977,-0.44807 1.18836,-1.24681 0.44807,-0.79873 0.44807,-1.79228 0,-0.99354 -0.44807,-1.75331 -0.42859,-0.77926 -1.18836,-1.22733 -0.74029,-0.44807 -1.71436,-0.44807 -0.95458,0 -1.71435,0.44807 -0.75977,0.44807 -1.18836,1.22733 -0.42859,0.75977 -0.42859,1.75331 0,1.01303 0.42859,1.81176 0.42859,0.77926 1.18836,1.22733 0.75977,0.44807 1.71435,0.44807 z"
       id="path959" />
    <path
       d="m 247.76195,316.14438 v -9.15621 h 1.36369 v 9.15621 z m 1.36369,-5.33788 -0.56496,-0.25325 q 0,-1.73384 0.8377,-2.74687 0.85717,-1.01302 2.33775,-1.01302 0.68185,0 1.24681,0.25325 0.56495,0.23378 1.05199,0.75977 l -0.89614,0.95459 q -0.33119,-0.37015 -0.74029,-0.526 -0.38963,-0.15585 -0.89614,-0.15585 -1.05199,0 -1.71436,0.70133 -0.66236,0.68184 -0.66236,2.02605 z"
       id="path961" />
    <path
       d="m 261.37938,316.14438 -4.67551,-4.69499 4.59759,-4.46122 h 1.69487 l -5.0067,4.81188 0.0585,-0.77925 5.14306,5.12358 z m -5.90283,0 v -13.79276 h 1.36369 v 13.79276 z"
       id="path963" />
  </g>
</svg>
