<?xml version="1.0" encoding="UTF-8" standalone="no"?>
<svg
   version="1.1"
   width="580"
   height="504"
   id="svg11"
   sodipodi:docname="QR-DPP.svg"
   inkscape:version="1.2 (dc2aedaf03, 2022-05-15)"
   xml:space="preserve"
   xmlns:inkscape="http://www.inkscape.org/namespaces/inkscape"
   xmlns:sodipodi="http://sodipodi.sourceforge.net/DTD/sodipodi-0.dtd"
   xmlns="http://www.w3.org/2000/svg"
   xmlns:svg="http://www.w3.org/2000/svg"
   xmlns:rdf="http://www.w3.org/1999/02/22-rdf-syntax-ns#"
   xmlns:cc="http://creativecommons.org/ns#"
   xmlns:dc="http://purl.org/dc/elements/1.1/"><defs
     id="defs15" /><sodipodi:namedview
     id="namedview13"
     pagecolor="#ffffff"
     bordercolor="#000000"
     borderopacity="0.25"
     inkscape:showpageshadow="2"
     inkscape:pageopacity="0.0"
     inkscape:pagecheckerboard="0"
     inkscape:deskcolor="#d1d1d1"
     showgrid="false"
     inkscape:zoom="1.2029438"
     inkscape:cx="103.49611"
     inkscape:cy="248.55692"
     inkscape:window-width="1920"
     inkscape:window-height="1017"
     inkscape:window-x="-8"
     inkscape:window-y="-8"
     inkscape:window-maximized="1"
     inkscape:current-layer="svg11" /><g
     id="elements"
     transform="translate(24,72)"><path
       style="fill:#000000"
       d="M 0,0 H 6 V 6 H 0 Z m 6,0 h 6 V 6 H 6 Z m 6,0 h 6 v 6 h -6 z m 6,0 h 6 v 6 h -6 z m 6,0 h 6 v 6 h -6 z m 6,0 h 6 v 6 h -6 z m 6,0 h 6 v 6 h -6 z m 18,0 h 6 v 6 h -6 z m 12,0 h 6 v 6 h -6 z m 12,0 h 6 v 6 h -6 z m 6,0 h 6 v 6 h -6 z m 24,0 h 6 v 6 h -6 z m 6,0 h 6 v 6 h -6 z m 6,0 h 6 v 6 h -6 z m 12,0 h 6 v 6 h -6 z m 6,0 h 6 v 6 h -6 z m 6,0 h 6 v 6 h -6 z m 12,0 h 6 v 6 h -6 z m 6,0 h 6 v 6 h -6 z m 6,0 h 6 v 6 h -6 z m 12,0 h 6 v 6 h -6 z m 24,0 h 6 v 6 h -6 z m 6,0 h 6 v 6 h -6 z m 6,0 h 6 v 6 h -6 z m 6,0 h 6 v 6 h -6 z m 6,0 h 6 v 6 h -6 z m 6,0 h 6 v 6 h -6 z m 6,0 h 6 v 6 h -6 z M 0,6 h 6 v 6 H 0 Z m 36,0 h 6 v 6 h -6 z m 12,0 h 6 v 6 h -6 z m 6,0 h 6 v 6 h -6 z m 12,0 h 6 v 6 h -6 z m 6,0 h 6 v 6 h -6 z m 6,0 h 6 v 6 h -6 z m 6,0 h 6 v 6 h -6 z m 12,0 h 6 v 6 h -6 z m 18,0 h 6 v 6 h -6 z m 18,0 h 6 v 6 h -6 z m 6,0 h 6 v 6 h -6 z m 6,0 h 6 v 6 h -6 z m 12,0 h 6 v 6 h -6 z m 6,0 h 6 v 6 h -6 z m 12,0 h 6 v 6 h -6 z m 6,0 h 6 v 6 h -6 z m 12,0 h 6 v 6 h -6 z m 12,0 h 6 v 6 h -6 z m 36,0 h 6 v 6 h -6 z M 0,12 h 6 v 6 H 0 Z m 12,0 h 6 v 6 h -6 z m 6,0 h 6 v 6 h -6 z m 6,0 h 6 v 6 h -6 z m 12,0 h 6 v 6 h -6 z m 24,0 h 6 v 6 h -6 z m 6,0 h 6 v 6 h -6 z m 6,0 h 6 v 6 h -6 z m 18,0 h 6 v 6 h -6 z m 6,0 h 6 v 6 h -6 z m 12,0 h 6 v 6 h -6 z m 12,0 h 6 v 6 h -6 z m 6,0 h 6 v 6 h -6 z m 18,0 h 6 v 6 h -6 z m 18,0 h 6 v 6 h -6 z m 24,0 h 6 v 6 h -6 z m 18,0 h 6 v 6 h -6 z m 12,0 h 6 v 6 h -6 z m 6,0 h 6 v 6 h -6 z m 6,0 h 6 v 6 h -6 z m 12,0 h 6 v 6 h -6 z M 0,18 h 6 v 6 H 0 Z m 12,0 h 6 v 6 h -6 z m 6,0 h 6 v 6 h -6 z m 6,0 h 6 v 6 h -6 z m 12,0 h 6 v 6 h -6 z m 12,0 h 6 v 6 h -6 z m 12,0 h 6 v 6 h -6 z m 6,0 h 6 v 6 h -6 z m 12,0 h 6 v 6 h -6 z m 6,0 h 6 v 6 h -6 z m 18,0 h 6 v 6 h -6 z m 6,0 h 6 v 6 h -6 z m 6,0 h 6 v 6 h -6 z m 18,0 h 6 v 6 h -6 z m 12,0 h 6 v 6 h -6 z m 12,0 h 6 v 6 h -6 z m 12,0 h 6 v 6 h -6 z m 36,0 h 6 v 6 h -6 z m 12,0 h 6 v 6 h -6 z m 6,0 h 6 v 6 h -6 z m 6,0 h 6 v 6 h -6 z m 12,0 h 6 v 6 h -6 z M 0,24 h 6 v 6 H 0 Z m 12,0 h 6 v 6 h -6 z m 6,0 h 6 v 6 h -6 z m 6,0 h 6 v 6 h -6 z m 12,0 h 6 v 6 h -6 z m 18,0 h 6 v 6 h -6 z m 6,0 h 6 v 6 h -6 z m 6,0 h 6 v 6 h -6 z m 12,0 h 6 v 6 h -6 z m 18,0 h 6 v 6 h -6 z m 6,0 h 6 v 6 h -6 z m 6,0 h 6 v 6 h -6 z m 6,0 h 6 v 6 h -6 z m 6,0 h 6 v 6 h -6 z m 6,0 h 6 v 6 h -6 z m 36,0 h 6 v 6 h -6 z m 6,0 h 6 v 6 h -6 z m 12,0 h 6 v 6 h -6 z m 12,0 h 6 v 6 h -6 z m 12,0 h 6 v 6 h -6 z m 12,0 h 6 v 6 h -6 z m 6,0 h 6 v 6 h -6 z m 6,0 h 6 v 6 h -6 z m 12,0 h 6 v 6 h -6 z M 0,30 h 6 v 6 H 0 Z m 36,0 h 6 v 6 h -6 z m 12,0 h 6 v 6 h -6 z m 6,0 h 6 v 6 h -6 z m 6,0 h 6 v 6 h -6 z m 24,0 h 6 v 6 h -6 z m 24,0 h 6 v 6 h -6 z m 18,0 h 6 v 6 h -6 z m 6,0 h 6 v 6 h -6 z m 30,0 h 6 v 6 h -6 z m 12,0 h 6 v 6 h -6 z m 6,0 h 6 v 6 h -6 z m 12,0 h 6 v 6 h -6 z m 12,0 h 6 v 6 h -6 z m 36,0 h 6 v 6 h -6 z M 0,36 h 6 v 6 H 0 Z m 6,0 h 6 v 6 H 6 Z m 6,0 h 6 v 6 h -6 z m 6,0 h 6 v 6 h -6 z m 6,0 h 6 v 6 h -6 z m 6,0 h 6 v 6 h -6 z m 6,0 h 6 v 6 h -6 z m 12,0 h 6 v 6 h -6 z m 12,0 h 6 v 6 h -6 z m 12,0 h 6 v 6 h -6 z m 12,0 h 6 v 6 h -6 z m 12,0 h 6 v 6 h -6 z m 12,0 h 6 v 6 h -6 z m 12,0 h 6 v 6 h -6 z m 12,0 h 6 v 6 h -6 z m 12,0 h 6 v 6 h -6 z m 12,0 h 6 v 6 h -6 z m 12,0 h 6 v 6 h -6 z m 12,0 h 6 v 6 h -6 z m 12,0 h 6 v 6 h -6 z m 12,0 h 6 v 6 h -6 z m 6,0 h 6 v 6 h -6 z m 6,0 h 6 v 6 h -6 z m 6,0 h 6 v 6 h -6 z m 6,0 h 6 v 6 h -6 z m 6,0 h 6 v 6 h -6 z m 6,0 h 6 v 6 h -6 z M 54,42 h 6 v 6 h -6 z m 6,0 h 6 v 6 h -6 z m 6,0 h 6 v 6 h -6 z m 18,0 h 6 v 6 h -6 z m 6,0 h 6 v 6 h -6 z m 24,0 h 6 v 6 h -6 z m 18,0 h 6 v 6 h -6 z m 6,0 h 6 v 6 h -6 z m 6,0 h 6 v 6 h -6 z m 6,0 h 6 v 6 h -6 z m 18,0 h 6 v 6 h -6 z M 0,48 h 6 v 6 H 0 Z m 6,0 h 6 v 6 H 6 Z m 6,0 h 6 v 6 h -6 z m 6,0 h 6 v 6 h -6 z m 6,0 h 6 v 6 h -6 z m 12,0 h 6 v 6 h -6 z m 6,0 h 6 v 6 h -6 z m 6,0 h 6 v 6 h -6 z m 6,0 h 6 v 6 h -6 z m 6,0 h 6 v 6 h -6 z m 6,0 h 6 v 6 h -6 z m 6,0 h 6 v 6 h -6 z m 6,0 h 6 v 6 h -6 z m 6,0 h 6 v 6 h -6 z m 6,0 h 6 v 6 h -6 z m 12,0 h 6 v 6 h -6 z m 6,0 h 6 v 6 h -6 z m 54,0 h 6 v 6 h -6 z m 6,0 h 6 v 6 h -6 z m 6,0 h 6 v 6 h -6 z m 6,0 h 6 v 6 h -6 z m 18,0 h 6 v 6 h -6 z m 12,0 h 6 v 6 h -6 z m 12,0 h 6 v 6 h -6 z m 12,0 h 6 v 6 h -6 z M 6,54 h 6 v 6 H 6 Z m 6,0 h 6 v 6 h -6 z m 12,0 h 6 v 6 h -6 z m 18,0 h 6 v 6 h -6 z m 6,0 h 6 v 6 h -6 z m 6,0 h 6 v 6 h -6 z m 6,0 h 6 v 6 h -6 z m 18,0 h 6 v 6 h -6 z m 36,0 h 6 v 6 h -6 z m 18,0 h 6 v 6 h -6 z m 18,0 h 6 v 6 h -6 z m 24,0 h 6 v 6 h -6 z m 12,0 h 6 v 6 h -6 z m 24,0 h 6 v 6 h -6 z m 24,0 h 6 v 6 h -6 z m 6,0 h 6 v 6 h -6 z M 0,60 h 6 v 6 H 0 Z m 30,0 h 6 v 6 h -6 z m 6,0 h 6 v 6 h -6 z m 6,0 h 6 v 6 h -6 z m 12,0 h 6 v 6 h -6 z m 6,0 h 6 v 6 h -6 z m 12,0 h 6 v 6 h -6 z m 6,0 h 6 v 6 h -6 z m 6,0 h 6 v 6 h -6 z m 6,0 h 6 v 6 h -6 z m 6,0 h 6 v 6 h -6 z m 12,0 h 6 v 6 h -6 z m 12,0 h 6 v 6 h -6 z m 6,0 h 6 v 6 h -6 z m 12,0 h 6 v 6 h -6 z m 24,0 h 6 v 6 h -6 z m 18,0 h 6 v 6 h -6 z m 6,0 h 6 v 6 h -6 z m 6,0 h 6 v 6 h -6 z m 24,0 h 6 v 6 h -6 z m 12,0 h 6 v 6 h -6 z m 6,0 h 6 v 6 h -6 z M 0,66 h 6 v 6 H 0 Z m 24,0 h 6 v 6 h -6 z m 24,0 h 6 v 6 h -6 z m 6,0 h 6 v 6 h -6 z m 12,0 h 6 v 6 h -6 z m 12,0 h 6 v 6 h -6 z m 12,0 h 6 v 6 h -6 z m 18,0 h 6 v 6 h -6 z m 12,0 h 6 v 6 h -6 z m 6,0 h 6 v 6 h -6 z m 18,0 h 6 v 6 h -6 z m 24,0 h 6 v 6 h -6 z m 12,0 h 6 v 6 h -6 z m 6,0 h 6 v 6 h -6 z m 12,0 h 6 v 6 h -6 z m 12,0 h 6 v 6 h -6 z m 6,0 h 6 v 6 h -6 z m 12,0 h 6 v 6 h -6 z m 6,0 h 6 v 6 h -6 z M 0,72 h 6 v 6 H 0 Z m 6,0 h 6 v 6 H 6 Z m 6,0 h 6 v 6 h -6 z m 6,0 h 6 v 6 h -6 z m 6,0 h 6 v 6 h -6 z m 6,0 h 6 v 6 h -6 z m 6,0 h 6 v 6 h -6 z m 12,0 h 6 v 6 h -6 z m 12,0 h 6 v 6 h -6 z m 6,0 h 6 v 6 h -6 z m 6,0 h 6 v 6 h -6 z m 6,0 h 6 v 6 h -6 z m 6,0 h 6 v 6 h -6 z m 6,0 h 6 v 6 h -6 z m 24,0 h 6 v 6 h -6 z m 12,0 h 6 v 6 h -6 z m 6,0 h 6 v 6 h -6 z m 6,0 h 6 v 6 h -6 z m 12,0 h 6 v 6 h -6 z m 12,0 h 6 v 6 h -6 z m 12,0 h 6 v 6 h -6 z m 42,0 h 6 v 6 h -6 z m 6,0 h 6 v 6 h -6 z M 6,78 h 6 v 6 H 6 Z m 12,0 h 6 v 6 h -6 z m 6,0 h 6 v 6 h -6 z m 36,0 h 6 v 6 h -6 z m 18,0 h 6 v 6 h -6 z m 12,0 h 6 v 6 h -6 z m 18,0 h 6 v 6 h -6 z m 12,0 h 6 v 6 h -6 z m 6,0 h 6 v 6 h -6 z m 12,0 h 6 v 6 h -6 z m 6,0 h 6 v 6 h -6 z m 6,0 h 6 v 6 h -6 z m 6,0 h 6 v 6 h -6 z m 12,0 h 6 v 6 h -6 z m 24,0 h 6 v 6 h -6 z m 6,0 h 6 v 6 h -6 z m 12,0 h 6 v 6 h -6 z m 6,0 h 6 v 6 h -6 z m 6,0 h 6 v 6 h -6 z m 6,0 h 6 v 6 h -6 z m 6,0 h 6 v 6 h -6 z m 6,0 h 6 v 6 h -6 z M 0,84 h 6 v 6 H 0 Z m 12,0 h 6 v 6 h -6 z m 6,0 h 6 v 6 h -6 z m 6,0 h 6 v 6 h -6 z m 12,0 h 6 v 6 h -6 z m 30,0 h 6 v 6 h -6 z m 6,0 h 6 v 6 h -6 z m 48,0 h 6 v 6 h -6 z m 6,0 h 6 v 6 h -6 z m 6,0 h 6 v 6 h -6 z m 12,0 h 6 v 6 h -6 z m 18,0 h 6 v 6 h -6 z m 6,0 h 6 v 6 h -6 z m 6,0 h 6 v 6 h -6 z m 6,0 h 6 v 6 h -6 z m 12,0 h 6 v 6 h -6 z m 6,0 h 6 v 6 h -6 z m 18,0 h 6 v 6 h -6 z m 6,0 h 6 v 6 h -6 z m 12,0 h 6 v 6 h -6 z M 0,90 h 6 v 6 H 0 Z m 30,0 h 6 v 6 h -6 z m 12,0 h 6 v 6 h -6 z m 6,0 h 6 v 6 h -6 z m 18,0 h 6 v 6 h -6 z m 18,0 h 6 v 6 h -6 z m 6,0 h 6 v 6 h -6 z m 6,0 h 6 v 6 h -6 z m 24,0 h 6 v 6 h -6 z m 12,0 h 6 v 6 h -6 z m 6,0 h 6 v 6 h -6 z m 12,0 h 6 v 6 h -6 z m 12,0 h 6 v 6 h -6 z m 6,0 h 6 v 6 h -6 z m 6,0 h 6 v 6 h -6 z m 12,0 h 6 v 6 h -6 z m 6,0 h 6 v 6 h -6 z m 12,0 h 6 v 6 h -6 z m 12,0 h 6 v 6 h -6 z m 6,0 h 6 v 6 h -6 z M 0,96 h 6 v 6 H 0 Z m 18,0 h 6 v 6 h -6 z m 6,0 h 6 v 6 h -6 z m 12,0 h 6 v 6 h -6 z m 6,0 h 6 v 6 h -6 z m 18,0 h 6 v 6 h -6 z m 6,0 h 6 v 6 h -6 z m 12,0 h 6 v 6 h -6 z m 30,0 h 6 v 6 h -6 z m 18,0 h 6 v 6 h -6 z m 18,0 h 6 v 6 h -6 z m 6,0 h 6 v 6 h -6 z m 6,0 h 6 v 6 h -6 z m 6,0 h 6 v 6 h -6 z m 12,0 h 6 v 6 h -6 z m 6,0 h 6 v 6 h -6 z m 12,0 h 6 v 6 h -6 z m 6,0 h 6 v 6 h -6 z m 6,0 h 6 v 6 h -6 z m 6,0 h 6 v 6 h -6 z m 18,0 h 6 v 6 h -6 z m 6,0 h 6 v 6 h -6 z m 6,0 h 6 v 6 h -6 z M 0,102 h 6 v 6 H 0 Z m 18,0 h 6 v 6 h -6 z m 12,0 h 6 v 6 h -6 z m 12,0 h 6 v 6 h -6 z m 18,0 h 6 v 6 h -6 z m 12,0 h 6 v 6 h -6 z m 6,0 h 6 v 6 h -6 z m 24,0 h 6 v 6 h -6 z m 12,0 h 6 v 6 h -6 z m 6,0 h 6 v 6 h -6 z m 48,0 h 6 v 6 h -6 z m 6,0 h 6 v 6 h -6 z m 6,0 h 6 v 6 h -6 z m 6,0 h 6 v 6 h -6 z m 6,0 h 6 v 6 h -6 z m 6,0 h 6 v 6 h -6 z m 6,0 h 6 v 6 h -6 z m 30,0 h 6 v 6 h -6 z m 6,0 h 6 v 6 h -6 z M 6,108 h 6 v 6 H 6 Z m 6,0 h 6 v 6 h -6 z m 6,0 h 6 v 6 h -6 z m 12,0 h 6 v 6 h -6 z m 6,0 h 6 v 6 h -6 z m 6,0 h 6 v 6 h -6 z m 6,0 h 6 v 6 h -6 z m 18,0 h 6 v 6 h -6 z m 6,0 h 6 v 6 h -6 z m 18,0 h 6 v 6 h -6 z m 6,0 h 6 v 6 h -6 z m 6,0 h 6 v 6 h -6 z m 6,0 h 6 v 6 h -6 z m 6,0 h 6 v 6 h -6 z m 12,0 h 6 v 6 h -6 z m 12,0 h 6 v 6 h -6 z m 12,0 h 6 v 6 h -6 z m 6,0 h 6 v 6 h -6 z m 6,0 h 6 v 6 h -6 z m 6,0 h 6 v 6 h -6 z m 6,0 h 6 v 6 h -6 z m 6,0 h 6 v 6 h -6 z m 12,0 h 6 v 6 h -6 z m 6,0 h 6 v 6 h -6 z m 12,0 h 6 v 6 h -6 z m 18,0 h 6 v 6 h -6 z m 12,0 h 6 v 6 h -6 z M 6,114 h 6 v 6 H 6 Z m 12,0 h 6 v 6 h -6 z m 36,0 h 6 v 6 h -6 z m 18,0 h 6 v 6 h -6 z m 12,0 h 6 v 6 h -6 z m 6,0 h 6 v 6 h -6 z m 6,0 h 6 v 6 h -6 z m 6,0 h 6 v 6 h -6 z m 24,0 h 6 v 6 h -6 z m 6,0 h 6 v 6 h -6 z m 30,0 h 6 v 6 h -6 z m 18,0 h 6 v 6 h -6 z m 6,0 h 6 v 6 h -6 z m 30,0 h 6 v 6 h -6 z m 24,0 h 6 v 6 h -6 z M 0,120 h 6 v 6 H 0 Z m 12,0 h 6 v 6 h -6 z m 6,0 h 6 v 6 h -6 z m 12,0 h 6 v 6 h -6 z m 6,0 h 6 v 6 h -6 z m 18,0 h 6 v 6 h -6 z m 6,0 h 6 v 6 h -6 z m 6,0 h 6 v 6 h -6 z m 6,0 h 6 v 6 h -6 z m 12,0 h 6 v 6 h -6 z m 6,0 h 6 v 6 h -6 z m 6,0 h 6 v 6 h -6 z m 24,0 h 6 v 6 h -6 z m 6,0 h 6 v 6 h -6 z m 6,0 h 6 v 6 h -6 z m 18,0 h 6 v 6 h -6 z m 6,0 h 6 v 6 h -6 z m 6,0 h 6 v 6 h -6 z m 6,0 h 6 v 6 h -6 z m 42,0 h 6 v 6 h -6 z m 24,0 h 6 v 6 h -6 z M 6,126 h 6 v 6 H 6 Z m 6,0 h 6 v 6 h -6 z m 12,0 h 6 v 6 h -6 z m 6,0 h 6 v 6 h -6 z m 12,0 h 6 v 6 h -6 z m 6,0 h 6 v 6 h -6 z m 6,0 h 6 v 6 h -6 z m 18,0 h 6 v 6 h -6 z m 18,0 h 6 v 6 h -6 z m 18,0 h 6 v 6 h -6 z m 6,0 h 6 v 6 h -6 z m 6,0 h 6 v 6 h -6 z m 6,0 h 6 v 6 h -6 z m 6,0 h 6 v 6 h -6 z m 6,0 h 6 v 6 h -6 z m 6,0 h 6 v 6 h -6 z m 6,0 h 6 v 6 h -6 z m 18,0 h 6 v 6 h -6 z m 12,0 h 6 v 6 h -6 z m 6,0 h 6 v 6 h -6 z m 6,0 h 6 v 6 h -6 z m 24,0 h 6 v 6 h -6 z m 6,0 h 6 v 6 h -6 z m 6,0 h 6 v 6 h -6 z m 6,0 h 6 v 6 h -6 z m 6,0 h 6 v 6 h -6 z M 0,132 h 6 v 6 H 0 Z m 6,0 h 6 v 6 H 6 Z m 6,0 h 6 v 6 h -6 z m 24,0 h 6 v 6 h -6 z m 6,0 h 6 v 6 h -6 z m 6,0 h 6 v 6 h -6 z m 6,0 h 6 v 6 h -6 z m 18,0 h 6 v 6 h -6 z m 12,0 h 6 v 6 h -6 z m 6,0 h 6 v 6 h -6 z m 18,0 h 6 v 6 h -6 z m 18,0 h 6 v 6 h -6 z m 6,0 h 6 v 6 h -6 z m 12,0 h 6 v 6 h -6 z m 12,0 h 6 v 6 h -6 z m 6,0 h 6 v 6 h -6 z m 12,0 h 6 v 6 h -6 z m 6,0 h 6 v 6 h -6 z m 12,0 h 6 v 6 h -6 z m 6,0 h 6 v 6 h -6 z m 24,0 h 6 v 6 h -6 z m 6,0 h 6 v 6 h -6 z m 6,0 h 6 v 6 h -6 z M 0,138 h 6 v 6 H 0 Z m 6,0 h 6 v 6 H 6 Z m 12,0 h 6 v 6 h -6 z m 12,0 h 6 v 6 h -6 z m 18,0 h 6 v 6 h -6 z m 24,0 h 6 v 6 h -6 z m 6,0 h 6 v 6 h -6 z m 6,0 h 6 v 6 h -6 z m 12,0 h 6 v 6 h -6 z m 6,0 h 6 v 6 h -6 z m 12,0 h 6 v 6 h -6 z m 18,0 h 6 v 6 h -6 z m 24,0 h 6 v 6 h -6 z m 12,0 h 6 v 6 h -6 z m 36,0 h 6 v 6 h -6 z m 18,0 h 6 v 6 h -6 z m 12,0 h 6 v 6 h -6 z m 6,0 h 6 v 6 h -6 z M 0,144 h 6 v 6 H 0 Z m 6,0 h 6 v 6 H 6 Z m 18,0 h 6 v 6 h -6 z m 12,0 h 6 v 6 h -6 z m 24,0 h 6 v 6 h -6 z m 12,0 h 6 v 6 h -6 z m 6,0 h 6 v 6 h -6 z m 6,0 h 6 v 6 h -6 z m 18,0 h 6 v 6 h -6 z m 6,0 h 6 v 6 h -6 z m 36,0 h 6 v 6 h -6 z m 6,0 h 6 v 6 h -6 z m 12,0 h 6 v 6 h -6 z m 6,0 h 6 v 6 h -6 z m 6,0 h 6 v 6 h -6 z m 6,0 h 6 v 6 h -6 z m 6,0 h 6 v 6 h -6 z m 12,0 h 6 v 6 h -6 z m 6,0 h 6 v 6 h -6 z m 18,0 h 6 v 6 h -6 z M 0,150 h 6 v 6 H 0 Z m 6,0 h 6 v 6 H 6 Z m 24,0 h 6 v 6 h -6 z m 12,0 h 6 v 6 h -6 z m 12,0 h 6 v 6 h -6 z m 24,0 h 6 v 6 h -6 z m 18,0 h 6 v 6 h -6 z m 6,0 h 6 v 6 h -6 z m 6,0 h 6 v 6 h -6 z m 6,0 h 6 v 6 h -6 z m 6,0 h 6 v 6 h -6 z m 6,0 h 6 v 6 h -6 z m 18,0 h 6 v 6 h -6 z m 6,0 h 6 v 6 h -6 z m 12,0 h 6 v 6 h -6 z m 6,0 h 6 v 6 h -6 z m 6,0 h 6 v 6 h -6 z m 12,0 h 6 v 6 h -6 z m 6,0 h 6 v 6 h -6 z m 6,0 h 6 v 6 h -6 z m 12,0 h 6 v 6 h -6 z m 18,0 h 6 v 6 h -6 z m 12,0 h 6 v 6 h -6 z M 0,156 h 6 v 6 H 0 Z m 6,0 h 6 v 6 H 6 Z m 6,0 h 6 v 6 h -6 z m 6,0 h 6 v 6 h -6 z m 6,0 h 6 v 6 h -6 z m 6,0 h 6 v 6 h -6 z m 6,0 h 6 v 6 h -6 z m 12,0 h 6 v 6 h -6 z m 6,0 h 6 v 6 h -6 z m 6,0 h 6 v 6 h -6 z m 6,0 h 6 v 6 h -6 z m 6,0 h 6 v 6 h -6 z m 6,0 h 6 v 6 h -6 z m 12,0 h 6 v 6 h -6 z m 6,0 h 6 v 6 h -6 z m 6,0 h 6 v 6 h -6 z m 6,0 h 6 v 6 h -6 z m 6,0 h 6 v 6 h -6 z m 6,0 h 6 v 6 h -6 z m 18,0 h 6 v 6 h -6 z m 30,0 h 6 v 6 h -6 z m 6,0 h 6 v 6 h -6 z m 24,0 h 6 v 6 h -6 z m 18,0 h 6 v 6 h -6 z m 6,0 h 6 v 6 h -6 z m 6,0 h 6 v 6 h -6 z m 6,0 h 6 v 6 h -6 z M 6,162 h 6 v 6 H 6 Z m 6,0 h 6 v 6 h -6 z m 6,0 h 6 v 6 h -6 z m 24,0 h 6 v 6 h -6 z m 12,0 h 6 v 6 h -6 z m 6,0 h 6 v 6 h -6 z m 12,0 h 6 v 6 h -6 z m 18,0 h 6 v 6 h -6 z m 6,0 h 6 v 6 h -6 z m 24,0 h 6 v 6 h -6 z m 6,0 h 6 v 6 h -6 z m 6,0 h 6 v 6 h -6 z m 24,0 h 6 v 6 h -6 z m 24,0 h 6 v 6 h -6 z m 6,0 h 6 v 6 h -6 z m 6,0 h 6 v 6 h -6 z m 24,0 h 6 v 6 h -6 z m 6,0 h 6 v 6 h -6 z m 12,0 h 6 v 6 h -6 z m 6,0 h 6 v 6 h -6 z M 6,168 h 6 v 6 H 6 Z m 6,0 h 6 v 6 h -6 z m 6,0 h 6 v 6 h -6 z m 6,0 h 6 v 6 h -6 z m 12,0 h 6 v 6 h -6 z m 6,0 h 6 v 6 h -6 z m 30,0 h 6 v 6 h -6 z m 6,0 h 6 v 6 h -6 z m 18,0 h 6 v 6 h -6 z m 18,0 h 6 v 6 h -6 z m 6,0 h 6 v 6 h -6 z m 30,0 h 6 v 6 h -6 z m 6,0 h 6 v 6 h -6 z m 12,0 h 6 v 6 h -6 z m 66,0 h 6 v 6 h -6 z m 6,0 h 6 v 6 h -6 z M 0,174 h 6 v 6 H 0 Z m 12,0 h 6 v 6 h -6 z m 6,0 h 6 v 6 h -6 z m 6,0 h 6 v 6 h -6 z m 30,0 h 6 v 6 h -6 z m 6,0 h 6 v 6 h -6 z m 6,0 h 6 v 6 h -6 z m 12,0 h 6 v 6 h -6 z m 12,0 h 6 v 6 h -6 z m 6,0 h 6 v 6 h -6 z m 6,0 h 6 v 6 h -6 z m 18,0 h 6 v 6 h -6 z m 6,0 h 6 v 6 h -6 z m 6,0 h 6 v 6 h -6 z m 6,0 h 6 v 6 h -6 z m 54,0 h 6 v 6 h -6 z m 6,0 h 6 v 6 h -6 z m 6,0 h 6 v 6 h -6 z m 6,0 h 6 v 6 h -6 z m 6,0 h 6 v 6 h -6 z m 12,0 h 6 v 6 h -6 z m 6,0 h 6 v 6 h -6 z m 6,0 h 6 v 6 h -6 z M 0,180 h 6 v 6 H 0 Z m 18,0 h 6 v 6 h -6 z m 18,0 h 6 v 6 h -6 z m 12,0 h 6 v 6 h -6 z m 42,0 h 6 v 6 h -6 z m 6,0 h 6 v 6 h -6 z m 24,0 h 6 v 6 h -6 z m 6,0 h 6 v 6 h -6 z m 6,0 h 6 v 6 h -6 z m 12,0 h 6 v 6 h -6 z m 12,0 h 6 v 6 h -6 z m 6,0 h 6 v 6 h -6 z m 12,0 h 6 v 6 h -6 z m 24,0 h 6 v 6 h -6 z m 30,0 h 6 v 6 h -6 z m 6,0 h 6 v 6 h -6 z M 0,186 h 6 v 6 H 0 Z m 18,0 h 6 v 6 h -6 z m 24,0 h 6 v 6 h -6 z m 12,0 h 6 v 6 h -6 z m 6,0 h 6 v 6 h -6 z m 6,0 h 6 v 6 h -6 z m 12,0 h 6 v 6 h -6 z m 6,0 h 6 v 6 h -6 z m 6,0 h 6 v 6 h -6 z m 12,0 h 6 v 6 h -6 z m 12,0 h 6 v 6 h -6 z m 18,0 h 6 v 6 h -6 z m 18,0 h 6 v 6 h -6 z m 12,0 h 6 v 6 h -6 z m 6,0 h 6 v 6 h -6 z m 12,0 h 6 v 6 h -6 z m 12,0 h 6 v 6 h -6 z m 12,0 h 6 v 6 h -6 z m 18,0 h 6 v 6 h -6 z M 0,192 h 6 v 6 H 0 Z m 12,0 h 6 v 6 h -6 z m 12,0 h 6 v 6 h -6 z m 6,0 h 6 v 6 h -6 z m 6,0 h 6 v 6 h -6 z m 12,0 h 6 v 6 h -6 z m 12,0 h 6 v 6 h -6 z m 12,0 h 6 v 6 h -6 z m 6,0 h 6 v 6 h -6 z m 18,0 h 6 v 6 h -6 z m 24,0 h 6 v 6 h -6 z m 30,0 h 6 v 6 h -6 z m 6,0 h 6 v 6 h -6 z m 12,0 h 6 v 6 h -6 z m 6,0 h 6 v 6 h -6 z m 18,0 h 6 v 6 h -6 z m 6,0 h 6 v 6 h -6 z m 6,0 h 6 v 6 h -6 z m 6,0 h 6 v 6 h -6 z m 6,0 h 6 v 6 h -6 z m -168,6 h 6 v 6 h -6 z m 6,0 h 6 v 6 h -6 z m 6,0 h 6 v 6 h -6 z m 12,0 h 6 v 6 h -6 z m 18,0 h 6 v 6 h -6 z m 6,0 h 6 v 6 h -6 z m 6,0 h 6 v 6 h -6 z m 12,0 h 6 v 6 h -6 z m 18,0 h 6 v 6 h -6 z m 6,0 h 6 v 6 h -6 z m 6,0 h 6 v 6 h -6 z m 24,0 h 6 v 6 h -6 z m 6,0 h 6 v 6 h -6 z m 6,0 h 6 v 6 h -6 z m 12,0 h 6 v 6 h -6 z m 24,0 h 6 v 6 h -6 z m 6,0 h 6 v 6 h -6 z m 6,0 h 6 v 6 h -6 z M 0,204 h 6 v 6 H 0 Z m 6,0 h 6 v 6 H 6 Z m 6,0 h 6 v 6 h -6 z m 6,0 h 6 v 6 h -6 z m 6,0 h 6 v 6 h -6 z m 6,0 h 6 v 6 h -6 z m 6,0 h 6 v 6 h -6 z m 12,0 h 6 v 6 h -6 z m 18,0 h 6 v 6 h -6 z m 6,0 h 6 v 6 h -6 z m 6,0 h 6 v 6 h -6 z m 6,0 h 6 v 6 h -6 z m 12,0 h 6 v 6 h -6 z m 6,0 h 6 v 6 h -6 z m 6,0 h 6 v 6 h -6 z m 6,0 h 6 v 6 h -6 z m 6,0 h 6 v 6 h -6 z m 6,0 h 6 v 6 h -6 z m 12,0 h 6 v 6 h -6 z m 18,0 h 6 v 6 h -6 z m 6,0 h 6 v 6 h -6 z m 6,0 h 6 v 6 h -6 z m 12,0 h 6 v 6 h -6 z m 6,0 h 6 v 6 h -6 z m 6,0 h 6 v 6 h -6 z m 12,0 h 6 v 6 h -6 z m 12,0 h 6 v 6 h -6 z m 6,0 h 6 v 6 h -6 z m 6,0 h 6 v 6 h -6 z M 0,210 h 6 v 6 H 0 Z m 36,0 h 6 v 6 h -6 z m 18,0 h 6 v 6 h -6 z m 6,0 h 6 v 6 h -6 z m 12,0 h 6 v 6 h -6 z m 6,0 h 6 v 6 h -6 z m 6,0 h 6 v 6 h -6 z m 6,0 h 6 v 6 h -6 z m 6,0 h 6 v 6 h -6 z m 6,0 h 6 v 6 h -6 z m 24,0 h 6 v 6 h -6 z m 6,0 h 6 v 6 h -6 z m 24,0 h 6 v 6 h -6 z m 36,0 h 6 v 6 h -6 z m 24,0 h 6 v 6 h -6 z m 12,0 h 6 v 6 h -6 z m 6,0 h 6 v 6 h -6 z m 6,0 h 6 v 6 h -6 z M 0,216 h 6 v 6 H 0 Z m 12,0 h 6 v 6 h -6 z m 6,0 h 6 v 6 h -6 z m 6,0 h 6 v 6 h -6 z m 12,0 h 6 v 6 h -6 z m 12,0 h 6 v 6 h -6 z m 12,0 h 6 v 6 h -6 z m 12,0 h 6 v 6 h -6 z m 6,0 h 6 v 6 h -6 z m 12,0 h 6 v 6 h -6 z m 6,0 h 6 v 6 h -6 z m 18,0 h 6 v 6 h -6 z m 18,0 h 6 v 6 h -6 z m 6,0 h 6 v 6 h -6 z m 12,0 h 6 v 6 h -6 z m 12,0 h 6 v 6 h -6 z m 24,0 h 6 v 6 h -6 z m 6,0 h 6 v 6 h -6 z m 6,0 h 6 v 6 h -6 z m 6,0 h 6 v 6 h -6 z m 6,0 h 6 v 6 h -6 z m 6,0 h 6 v 6 h -6 z m 6,0 h 6 v 6 h -6 z m 12,0 h 6 v 6 h -6 z m 6,0 h 6 v 6 h -6 z M 0,222 h 6 v 6 H 0 Z m 12,0 h 6 v 6 h -6 z m 6,0 h 6 v 6 h -6 z m 6,0 h 6 v 6 h -6 z m 12,0 h 6 v 6 h -6 z m 12,0 h 6 v 6 h -6 z m 6,0 h 6 v 6 h -6 z m 12,0 h 6 v 6 h -6 z m 12,0 h 6 v 6 h -6 z m 18,0 h 6 v 6 h -6 z m 6,0 h 6 v 6 h -6 z m 6,0 h 6 v 6 h -6 z m 12,0 h 6 v 6 h -6 z m 6,0 h 6 v 6 h -6 z m 6,0 h 6 v 6 h -6 z m 18,0 h 6 v 6 h -6 z m 18,0 h 6 v 6 h -6 z m 18,0 h 6 v 6 h -6 z m 6,0 h 6 v 6 h -6 z m 24,0 h 6 v 6 h -6 z m 12,0 h 6 v 6 h -6 z m 6,0 h 6 v 6 h -6 z M 0,228 h 6 v 6 H 0 Z m 12,0 h 6 v 6 h -6 z m 6,0 h 6 v 6 h -6 z m 6,0 h 6 v 6 h -6 z m 12,0 h 6 v 6 h -6 z m 12,0 h 6 v 6 h -6 z m 6,0 h 6 v 6 h -6 z m 42,0 h 6 v 6 h -6 z m 24,0 h 6 v 6 h -6 z m 6,0 h 6 v 6 h -6 z m 36,0 h 6 v 6 h -6 z m 6,0 h 6 v 6 h -6 z m 6,0 h 6 v 6 h -6 z m 6,0 h 6 v 6 h -6 z m 18,0 h 6 v 6 h -6 z m 12,0 h 6 v 6 h -6 z m 6,0 h 6 v 6 h -6 z m 6,0 h 6 v 6 h -6 z m 12,0 h 6 v 6 h -6 z M 0,234 h 6 v 6 H 0 Z m 36,0 h 6 v 6 h -6 z m 12,0 h 6 v 6 h -6 z m 6,0 h 6 v 6 h -6 z m 6,0 h 6 v 6 h -6 z m 6,0 h 6 v 6 h -6 z m 12,0 h 6 v 6 h -6 z m 18,0 h 6 v 6 h -6 z m 24,0 h 6 v 6 h -6 z m 12,0 h 6 v 6 h -6 z m 6,0 h 6 v 6 h -6 z m 12,0 h 6 v 6 h -6 z m 6,0 h 6 v 6 h -6 z m 6,0 h 6 v 6 h -6 z m 18,0 h 6 v 6 h -6 z m 18,0 h 6 v 6 h -6 z m 12,0 h 6 v 6 h -6 z m 6,0 h 6 v 6 h -6 z m 6,0 h 6 v 6 h -6 z m 12,0 h 6 v 6 h -6 z m 6,0 h 6 v 6 h -6 z M 0,240 h 6 v 6 H 0 Z m 6,0 h 6 v 6 H 6 Z m 6,0 h 6 v 6 h -6 z m 6,0 h 6 v 6 h -6 z m 6,0 h 6 v 6 h -6 z m 6,0 h 6 v 6 h -6 z m 6,0 h 6 v 6 h -6 z m 12,0 h 6 v 6 h -6 z m 24,0 h 6 v 6 h -6 z m 12,0 h 6 v 6 h -6 z m 12,0 h 6 v 6 h -6 z m 12,0 h 6 v 6 h -6 z m 18,0 h 6 v 6 h -6 z m 12,0 h 6 v 6 h -6 z m 6,0 h 6 v 6 h -6 z m 12,0 h 6 v 6 h -6 z m 24,0 h 6 v 6 h -6 z m 6,0 h 6 v 6 h -6 z m 18,0 h 6 v 6 h -6 z m 6,0 h 6 v 6 h -6 z m 6,0 h 6 v 6 h -6 z m 6,0 h 6 v 6 h -6 z m 6,0 h 6 v 6 h -6 z m 6,0 h 6 v 6 h -6 z"
       id="path8" /></g><g
     id="elements-2"
     transform="translate(312,72)"><path
       style="fill:#000000"
       d="M 0,0 H 6 V 6 H 0 Z m 6,0 h 6 V 6 H 6 Z m 6,0 h 6 v 6 h -6 z m 6,0 h 6 v 6 h -6 z m 6,0 h 6 v 6 h -6 z m 6,0 h 6 v 6 h -6 z m 6,0 h 6 v 6 h -6 z m 12,0 h 6 v 6 h -6 z m 12,0 h 6 v 6 h -6 z m 12,0 h 6 v 6 h -6 z m 6,0 h 6 v 6 h -6 z m 36,0 h 6 v 6 h -6 z m 18,0 h 6 v 6 h -6 z m 6,0 h 6 v 6 h -6 z m 12,0 h 6 v 6 h -6 z m 6,0 h 6 v 6 h -6 z m 12,0 h 6 v 6 h -6 z m 6,0 h 6 v 6 h -6 z m 12,0 h 6 v 6 h -6 z m 6,0 h 6 v 6 h -6 z m 12,0 h 6 v 6 h -6 z m 6,0 h 6 v 6 h -6 z m 6,0 h 6 v 6 h -6 z m 6,0 h 6 v 6 h -6 z m 6,0 h 6 v 6 h -6 z m 6,0 h 6 v 6 h -6 z m 6,0 h 6 v 6 h -6 z M 0,6 h 6 v 6 H 0 Z m 36,0 h 6 v 6 h -6 z m 12,0 h 6 v 6 h -6 z m 18,0 h 6 v 6 h -6 z m 18,0 h 6 v 6 h -6 z m 12,0 h 6 v 6 h -6 z m 6,0 h 6 v 6 h -6 z m 6,0 h 6 v 6 h -6 z m 6,0 h 6 v 6 h -6 z m 6,0 h 6 v 6 h -6 z m 6,0 h 6 v 6 h -6 z m 18,0 h 6 v 6 h -6 z m 6,0 h 6 v 6 h -6 z m 6,0 h 6 v 6 h -6 z m 6,0 h 6 v 6 h -6 z m 6,0 h 6 v 6 h -6 z m 12,0 h 6 v 6 h -6 z m 12,0 h 6 v 6 h -6 z m 12,0 h 6 v 6 h -6 z m 36,0 h 6 v 6 h -6 z M 0,12 h 6 v 6 H 0 Z m 12,0 h 6 v 6 h -6 z m 6,0 h 6 v 6 h -6 z m 6,0 h 6 v 6 h -6 z m 12,0 h 6 v 6 h -6 z m 12,0 h 6 v 6 h -6 z m 6,0 h 6 v 6 h -6 z m 18,0 h 6 v 6 h -6 z m 18,0 h 6 v 6 h -6 z m 18,0 h 6 v 6 h -6 z m 12,0 h 6 v 6 h -6 z m 24,0 h 6 v 6 h -6 z m 6,0 h 6 v 6 h -6 z m 36,0 h 6 v 6 h -6 z m 6,0 h 6 v 6 h -6 z m 12,0 h 6 v 6 h -6 z m 12,0 h 6 v 6 h -6 z m 6,0 h 6 v 6 h -6 z m 6,0 h 6 v 6 h -6 z m 12,0 h 6 v 6 h -6 z M 0,18 h 6 v 6 H 0 Z m 12,0 h 6 v 6 h -6 z m 6,0 h 6 v 6 h -6 z m 6,0 h 6 v 6 h -6 z m 12,0 h 6 v 6 h -6 z m 24,0 h 6 v 6 h -6 z m 24,0 h 6 v 6 h -6 z m 6,0 h 6 v 6 h -6 z m 18,0 h 6 v 6 h -6 z m 6,0 h 6 v 6 h -6 z m 12,0 h 6 v 6 h -6 z m 6,0 h 6 v 6 h -6 z m 24,0 h 6 v 6 h -6 z m 6,0 h 6 v 6 h -6 z m 24,0 h 6 v 6 h -6 z m 18,0 h 6 v 6 h -6 z m 12,0 h 6 v 6 h -6 z m 6,0 h 6 v 6 h -6 z m 6,0 h 6 v 6 h -6 z m 12,0 h 6 v 6 h -6 z M 0,24 h 6 v 6 H 0 Z m 12,0 h 6 v 6 h -6 z m 6,0 h 6 v 6 h -6 z m 6,0 h 6 v 6 h -6 z m 12,0 h 6 v 6 h -6 z m 24,0 h 6 v 6 h -6 z m 18,0 h 6 v 6 h -6 z m 12,0 h 6 v 6 h -6 z m 6,0 h 6 v 6 h -6 z m 6,0 h 6 v 6 h -6 z m 12,0 h 6 v 6 h -6 z m 12,0 h 6 v 6 h -6 z m 12,0 h 6 v 6 h -6 z m 30,0 h 6 v 6 h -6 z m 12,0 h 6 v 6 h -6 z m 6,0 h 6 v 6 h -6 z m 6,0 h 6 v 6 h -6 z m 12,0 h 6 v 6 h -6 z m 12,0 h 6 v 6 h -6 z m 6,0 h 6 v 6 h -6 z m 6,0 h 6 v 6 h -6 z m 12,0 h 6 v 6 h -6 z M 0,30 h 6 v 6 H 0 Z m 36,0 h 6 v 6 h -6 z m 12,0 h 6 v 6 h -6 z m 6,0 h 6 v 6 h -6 z m 6,0 h 6 v 6 h -6 z m 12,0 h 6 v 6 h -6 z m 6,0 h 6 v 6 h -6 z m 6,0 h 6 v 6 h -6 z m 6,0 h 6 v 6 h -6 z m 6,0 h 6 v 6 h -6 z m 6,0 h 6 v 6 h -6 z m 24,0 h 6 v 6 h -6 z m 6,0 h 6 v 6 h -6 z m 6,0 h 6 v 6 h -6 z m 18,0 h 6 v 6 h -6 z m 6,0 h 6 v 6 h -6 z m 6,0 h 6 v 6 h -6 z m 6,0 h 6 v 6 h -6 z m 6,0 h 6 v 6 h -6 z m 12,0 h 6 v 6 h -6 z m 12,0 h 6 v 6 h -6 z m 36,0 h 6 v 6 h -6 z M 0,36 h 6 v 6 H 0 Z m 6,0 h 6 v 6 H 6 Z m 6,0 h 6 v 6 h -6 z m 6,0 h 6 v 6 h -6 z m 6,0 h 6 v 6 h -6 z m 6,0 h 6 v 6 h -6 z m 6,0 h 6 v 6 h -6 z m 12,0 h 6 v 6 h -6 z m 12,0 h 6 v 6 h -6 z m 12,0 h 6 v 6 h -6 z m 12,0 h 6 v 6 h -6 z m 12,0 h 6 v 6 h -6 z m 12,0 h 6 v 6 h -6 z m 12,0 h 6 v 6 h -6 z m 12,0 h 6 v 6 h -6 z m 12,0 h 6 v 6 h -6 z m 12,0 h 6 v 6 h -6 z m 12,0 h 6 v 6 h -6 z m 12,0 h 6 v 6 h -6 z m 12,0 h 6 v 6 h -6 z m 12,0 h 6 v 6 h -6 z m 6,0 h 6 v 6 h -6 z m 6,0 h 6 v 6 h -6 z m 6,0 h 6 v 6 h -6 z m 6,0 h 6 v 6 h -6 z m 6,0 h 6 v 6 h -6 z m 6,0 h 6 v 6 h -6 z M 48,42 h 6 v 6 h -6 z m 6,0 h 6 v 6 h -6 z m 6,0 h 6 v 6 h -6 z m 6,0 h 6 v 6 h -6 z m 6,0 h 6 v 6 h -6 z m 18,0 h 6 v 6 h -6 z m 6,0 h 6 v 6 h -6 z m 6,0 h 6 v 6 h -6 z m 6,0 h 6 v 6 h -6 z m 6,0 h 6 v 6 h -6 z m 18,0 h 6 v 6 h -6 z m 6,0 h 6 v 6 h -6 z m 6,0 h 6 v 6 h -6 z m 6,0 h 6 v 6 h -6 z m 12,0 h 6 v 6 h -6 z m 30,0 h 6 v 6 h -6 z M 12,48 h 6 v 6 h -6 z m 6,0 h 6 v 6 h -6 z m 6,0 h 6 v 6 h -6 z m 12,0 h 6 v 6 h -6 z m 12,0 h 6 v 6 h -6 z m 6,0 h 6 v 6 h -6 z m 24,0 h 6 v 6 h -6 z m 18,0 h 6 v 6 h -6 z m 12,0 h 6 v 6 h -6 z m 6,0 h 6 v 6 h -6 z m 6,0 h 6 v 6 h -6 z m 18,0 h 6 v 6 h -6 z m 6,0 h 6 v 6 h -6 z m 18,0 h 6 v 6 h -6 z m 12,0 h 6 v 6 h -6 z m 12,0 h 6 v 6 h -6 z m 6,0 h 6 v 6 h -6 z m 6,0 h 6 v 6 h -6 z m 6,0 h 6 v 6 h -6 z m 6,0 h 6 v 6 h -6 z m 18,0 h 6 v 6 h -6 z m 6,0 h 6 v 6 h -6 z m 6,0 h 6 v 6 h -6 z M 0,54 h 6 v 6 H 0 Z m 12,0 h 6 v 6 h -6 z m 36,0 h 6 v 6 h -6 z m 18,0 h 6 v 6 h -6 z m 6,0 h 6 v 6 h -6 z m 6,0 h 6 v 6 h -6 z m 18,0 h 6 v 6 h -6 z m 6,0 h 6 v 6 h -6 z m 12,0 h 6 v 6 h -6 z m 6,0 h 6 v 6 h -6 z m 24,0 h 6 v 6 h -6 z m 12,0 h 6 v 6 h -6 z m 24,0 h 6 v 6 h -6 z m 6,0 h 6 v 6 h -6 z m 6,0 h 6 v 6 h -6 z m 6,0 h 6 v 6 h -6 z m 6,0 h 6 v 6 h -6 z m 6,0 h 6 v 6 h -6 z m 6,0 h 6 v 6 h -6 z m 12,0 h 6 v 6 h -6 z m 12,0 h 6 v 6 h -6 z M 6,60 h 6 v 6 H 6 Z m 6,0 h 6 v 6 h -6 z m 18,0 h 6 v 6 h -6 z m 6,0 h 6 v 6 h -6 z m 30,0 h 6 v 6 h -6 z m 12,0 h 6 v 6 h -6 z m 6,0 h 6 v 6 h -6 z m 18,0 h 6 v 6 h -6 z m 12,0 h 6 v 6 h -6 z m 18,0 h 6 v 6 h -6 z m 24,0 h 6 v 6 h -6 z m 6,0 h 6 v 6 h -6 z m 18,0 h 6 v 6 h -6 z m 12,0 h 6 v 6 h -6 z M 0,66 h 6 v 6 H 0 Z m 6,0 h 6 v 6 H 6 Z m 6,0 h 6 v 6 h -6 z m 12,0 h 6 v 6 h -6 z m 30,0 h 6 v 6 h -6 z m 12,0 h 6 v 6 h -6 z m 6,0 h 6 v 6 h -6 z m 6,0 h 6 v 6 h -6 z m 12,0 h 6 v 6 h -6 z m 12,0 h 6 v 6 h -6 z m 12,0 h 6 v 6 h -6 z m 6,0 h 6 v 6 h -6 z m 24,0 h 6 v 6 h -6 z m 12,0 h 6 v 6 h -6 z m 6,0 h 6 v 6 h -6 z m 6,0 h 6 v 6 h -6 z m 18,0 h 6 v 6 h -6 z m 6,0 h 6 v 6 h -6 z m 6,0 h 6 v 6 h -6 z m 12,0 h 6 v 6 h -6 z m 12,0 h 6 v 6 h -6 z M 6,72 h 6 v 6 H 6 Z m 6,0 h 6 v 6 h -6 z m 6,0 h 6 v 6 h -6 z m 18,0 h 6 v 6 h -6 z m 6,0 h 6 v 6 h -6 z m 6,0 h 6 v 6 h -6 z m 12,0 h 6 v 6 h -6 z m 6,0 h 6 v 6 h -6 z m 12,0 h 6 v 6 h -6 z m 24,0 h 6 v 6 h -6 z m 30,0 h 6 v 6 h -6 z m 6,0 h 6 v 6 h -6 z m 18,0 h 6 v 6 h -6 z m 6,0 h 6 v 6 h -6 z m 12,0 h 6 v 6 h -6 z m 12,0 h 6 v 6 h -6 z m 12,0 h 6 v 6 h -6 z m 24,0 h 6 v 6 h -6 z m 6,0 h 6 v 6 h -6 z M 6,78 h 6 v 6 H 6 Z m 12,0 h 6 v 6 h -6 z m 6,0 h 6 v 6 h -6 z m 18,0 h 6 v 6 h -6 z m 12,0 h 6 v 6 h -6 z m 30,0 h 6 v 6 h -6 z m 12,0 h 6 v 6 h -6 z m 6,0 h 6 v 6 h -6 z m 12,0 h 6 v 6 h -6 z m 6,0 h 6 v 6 h -6 z m 30,0 h 6 v 6 h -6 z m 12,0 h 6 v 6 h -6 z m 30,0 h 6 v 6 h -6 z m 12,0 h 6 v 6 h -6 z m 6,0 h 6 v 6 h -6 z m 6,0 h 6 v 6 h -6 z m 24,0 h 6 v 6 h -6 z M 36,84 h 6 v 6 h -6 z m 12,0 h 6 v 6 h -6 z m 6,0 h 6 v 6 h -6 z m 36,0 h 6 v 6 h -6 z m 12,0 h 6 v 6 h -6 z m 12,0 h 6 v 6 h -6 z m 6,0 h 6 v 6 h -6 z m 6,0 h 6 v 6 h -6 z m 6,0 h 6 v 6 h -6 z m 6,0 h 6 v 6 h -6 z m 6,0 h 6 v 6 h -6 z m 18,0 h 6 v 6 h -6 z m 6,0 h 6 v 6 h -6 z m 6,0 h 6 v 6 h -6 z m 6,0 h 6 v 6 h -6 z m 18,0 h 6 v 6 h -6 z m 24,0 h 6 v 6 h -6 z M 0,90 h 6 v 6 H 0 Z m 12,0 h 6 v 6 h -6 z m 6,0 h 6 v 6 h -6 z m 24,0 h 6 v 6 h -6 z m 12,0 h 6 v 6 h -6 z m 12,0 h 6 v 6 h -6 z m 24,0 h 6 v 6 h -6 z m 18,0 h 6 v 6 h -6 z m 6,0 h 6 v 6 h -6 z m 18,0 h 6 v 6 h -6 z m 24,0 h 6 v 6 h -6 z m 6,0 h 6 v 6 h -6 z m 18,0 h 6 v 6 h -6 z m 24,0 h 6 v 6 h -6 z m 12,0 h 6 v 6 h -6 z m 6,0 h 6 v 6 h -6 z m 12,0 h 6 v 6 h -6 z m 6,0 h 6 v 6 h -6 z M 6,96 h 6 v 6 H 6 Z m 12,0 h 6 v 6 h -6 z m 18,0 h 6 v 6 h -6 z m 24,0 h 6 v 6 h -6 z m 18,0 h 6 v 6 h -6 z m 6,0 h 6 v 6 h -6 z m 6,0 h 6 v 6 h -6 z m 6,0 h 6 v 6 h -6 z m 6,0 h 6 v 6 h -6 z m 6,0 h 6 v 6 h -6 z m 6,0 h 6 v 6 h -6 z m 24,0 h 6 v 6 h -6 z m 12,0 h 6 v 6 h -6 z m 12,0 h 6 v 6 h -6 z m 6,0 h 6 v 6 h -6 z m 6,0 h 6 v 6 h -6 z m 12,0 h 6 v 6 h -6 z m 12,0 h 6 v 6 h -6 z m 12,0 h 6 v 6 h -6 z m 18,0 h 6 v 6 h -6 z m 6,0 h 6 v 6 h -6 z m 6,0 h 6 v 6 h -6 z m -228,6 h 6 v 6 h -6 z m 12,0 h 6 v 6 h -6 z m 18,0 h 6 v 6 h -6 z m 6,0 h 6 v 6 h -6 z m 12,0 h 6 v 6 h -6 z m 6,0 h 6 v 6 h -6 z m 12,0 h 6 v 6 h -6 z m 12,0 h 6 v 6 h -6 z m 6,0 h 6 v 6 h -6 z m 6,0 h 6 v 6 h -6 z m 6,0 h 6 v 6 h -6 z m 30,0 h 6 v 6 h -6 z m 30,0 h 6 v 6 h -6 z m 12,0 h 6 v 6 h -6 z m 6,0 h 6 v 6 h -6 z m 18,0 h 6 v 6 h -6 z m 6,0 h 6 v 6 h -6 z m 6,0 h 6 v 6 h -6 z m 12,0 h 6 v 6 h -6 z m 6,0 h 6 v 6 h -6 z m 6,0 h 6 v 6 h -6 z M 0,108 h 6 v 6 H 0 Z m 12,0 h 6 v 6 h -6 z m 12,0 h 6 v 6 h -6 z m 6,0 h 6 v 6 h -6 z m 6,0 h 6 v 6 h -6 z m 24,0 h 6 v 6 h -6 z m 6,0 h 6 v 6 h -6 z m 6,0 h 6 v 6 h -6 z m 6,0 h 6 v 6 h -6 z m 6,0 h 6 v 6 h -6 z m 6,0 h 6 v 6 h -6 z m 6,0 h 6 v 6 h -6 z m 6,0 h 6 v 6 h -6 z m 6,0 h 6 v 6 h -6 z m 6,0 h 6 v 6 h -6 z m 6,0 h 6 v 6 h -6 z m 18,0 h 6 v 6 h -6 z m 6,0 h 6 v 6 h -6 z m 12,0 h 6 v 6 h -6 z m 6,0 h 6 v 6 h -6 z m 6,0 h 6 v 6 h -6 z m 6,0 h 6 v 6 h -6 z m 18,0 h 6 v 6 h -6 z m 12,0 h 6 v 6 h -6 z m 12,0 h 6 v 6 h -6 z m 6,0 h 6 v 6 h -6 z m -204,6 h 6 v 6 h -6 z m 6,0 h 6 v 6 h -6 z m 18,0 h 6 v 6 h -6 z m 6,0 h 6 v 6 h -6 z m 30,0 h 6 v 6 h -6 z m 12,0 h 6 v 6 h -6 z m 12,0 h 6 v 6 h -6 z m 18,0 h 6 v 6 h -6 z m 6,0 h 6 v 6 h -6 z m 6,0 h 6 v 6 h -6 z m 6,0 h 6 v 6 h -6 z m 6,0 h 6 v 6 h -6 z m 6,0 h 6 v 6 h -6 z m 6,0 h 6 v 6 h -6 z m 6,0 h 6 v 6 h -6 z m 30,0 h 6 v 6 h -6 z m 12,0 h 6 v 6 h -6 z m 12,0 h 6 v 6 h -6 z m 6,0 h 6 v 6 h -6 z M 6,120 h 6 v 6 H 6 Z m 30,0 h 6 v 6 h -6 z m 6,0 h 6 v 6 h -6 z m 6,0 h 6 v 6 h -6 z m 12,0 h 6 v 6 h -6 z m 6,0 h 6 v 6 h -6 z m 6,0 h 6 v 6 h -6 z m 6,0 h 6 v 6 h -6 z m 6,0 h 6 v 6 h -6 z m 18,0 h 6 v 6 h -6 z m 12,0 h 6 v 6 h -6 z m 6,0 h 6 v 6 h -6 z m 6,0 h 6 v 6 h -6 z m 6,0 h 6 v 6 h -6 z m 12,0 h 6 v 6 h -6 z m 6,0 h 6 v 6 h -6 z m 6,0 h 6 v 6 h -6 z m 30,0 h 6 v 6 h -6 z m 36,0 h 6 v 6 h -6 z m 6,0 h 6 v 6 h -6 z m 12,0 h 6 v 6 h -6 z M 0,126 h 6 v 6 H 0 Z m 6,0 h 6 v 6 H 6 Z m 6,0 h 6 v 6 h -6 z m 12,0 h 6 v 6 h -6 z m 24,0 h 6 v 6 h -6 z m 18,0 h 6 v 6 h -6 z m 12,0 h 6 v 6 h -6 z m 18,0 h 6 v 6 h -6 z m 6,0 h 6 v 6 h -6 z m 6,0 h 6 v 6 h -6 z m 18,0 h 6 v 6 h -6 z m 6,0 h 6 v 6 h -6 z m 6,0 h 6 v 6 h -6 z m 6,0 h 6 v 6 h -6 z m 24,0 h 6 v 6 h -6 z m 6,0 h 6 v 6 h -6 z m 6,0 h 6 v 6 h -6 z m 6,0 h 6 v 6 h -6 z m 6,0 h 6 v 6 h -6 z m 12,0 h 6 v 6 h -6 z m 6,0 h 6 v 6 h -6 z m 6,0 h 6 v 6 h -6 z m 18,0 h 6 v 6 h -6 z m 6,0 h 6 v 6 h -6 z m -222,6 h 6 v 6 h -6 z m 6,0 h 6 v 6 h -6 z m 6,0 h 6 v 6 h -6 z m 6,0 h 6 v 6 h -6 z m 6,0 h 6 v 6 h -6 z m 24,0 h 6 v 6 h -6 z m 6,0 h 6 v 6 h -6 z m 6,0 h 6 v 6 h -6 z m 6,0 h 6 v 6 h -6 z m 12,0 h 6 v 6 h -6 z m 6,0 h 6 v 6 h -6 z m 6,0 h 6 v 6 h -6 z m 6,0 h 6 v 6 h -6 z m 12,0 h 6 v 6 h -6 z m 12,0 h 6 v 6 h -6 z m 6,0 h 6 v 6 h -6 z m 6,0 h 6 v 6 h -6 z m 6,0 h 6 v 6 h -6 z m 6,0 h 6 v 6 h -6 z m 36,0 h 6 v 6 h -6 z m 12,0 h 6 v 6 h -6 z m 6,0 h 6 v 6 h -6 z m 12,0 h 6 v 6 h -6 z m -216,6 h 6 v 6 h -6 z m 12,0 h 6 v 6 h -6 z m 18,0 h 6 v 6 h -6 z m 6,0 h 6 v 6 h -6 z m 12,0 h 6 v 6 h -6 z m 18,0 h 6 v 6 h -6 z m 36,0 h 6 v 6 h -6 z m 12,0 h 6 v 6 h -6 z m 12,0 h 6 v 6 h -6 z m 6,0 h 6 v 6 h -6 z m 12,0 h 6 v 6 h -6 z m 30,0 h 6 v 6 h -6 z m 6,0 h 6 v 6 h -6 z m 12,0 h 6 v 6 h -6 z M 6,144 h 6 v 6 H 6 Z m 6,0 h 6 v 6 h -6 z m 12,0 h 6 v 6 h -6 z m 12,0 h 6 v 6 h -6 z m 36,0 h 6 v 6 h -6 z m 24,0 h 6 v 6 h -6 z m 6,0 h 6 v 6 h -6 z m 12,0 h 6 v 6 h -6 z m 12,0 h 6 v 6 h -6 z m 6,0 h 6 v 6 h -6 z m 18,0 h 6 v 6 h -6 z m 18,0 h 6 v 6 h -6 z m 6,0 h 6 v 6 h -6 z m 12,0 h 6 v 6 h -6 z m 36,0 h 6 v 6 h -6 z m 6,0 h 6 v 6 h -6 z m 6,0 h 6 v 6 h -6 z m 6,0 h 6 v 6 h -6 z M 0,150 h 6 v 6 H 0 Z m 12,0 h 6 v 6 h -6 z m 6,0 h 6 v 6 h -6 z m 36,0 h 6 v 6 h -6 z m 18,0 h 6 v 6 h -6 z m 18,0 h 6 v 6 h -6 z m 6,0 h 6 v 6 h -6 z m 12,0 h 6 v 6 h -6 z m 12,0 h 6 v 6 h -6 z m 6,0 h 6 v 6 h -6 z m 12,0 h 6 v 6 h -6 z m 6,0 h 6 v 6 h -6 z m 12,0 h 6 v 6 h -6 z m 12,0 h 6 v 6 h -6 z m 12,0 h 6 v 6 h -6 z m 6,0 h 6 v 6 h -6 z m 12,0 h 6 v 6 h -6 z m 6,0 h 6 v 6 h -6 z m 12,0 h 6 v 6 h -6 z m 6,0 h 6 v 6 h -6 z m 12,0 h 6 v 6 h -6 z m 6,0 h 6 v 6 h -6 z m -228,6 h 6 v 6 h -6 z m 6,0 h 6 v 6 h -6 z m 6,0 h 6 v 6 h -6 z m 6,0 h 6 v 6 h -6 z m 6,0 h 6 v 6 h -6 z m 18,0 h 6 v 6 h -6 z m 6,0 h 6 v 6 h -6 z m 12,0 h 6 v 6 h -6 z m 12,0 h 6 v 6 h -6 z m 12,0 h 6 v 6 h -6 z m 6,0 h 6 v 6 h -6 z m 6,0 h 6 v 6 h -6 z m 24,0 h 6 v 6 h -6 z m 12,0 h 6 v 6 h -6 z m 12,0 h 6 v 6 h -6 z m 6,0 h 6 v 6 h -6 z m 30,0 h 6 v 6 h -6 z m 12,0 h 6 v 6 h -6 z m 6,0 h 6 v 6 h -6 z m 6,0 h 6 v 6 h -6 z m -204,6 h 6 v 6 h -6 z m 12,0 h 6 v 6 h -6 z m 6,0 h 6 v 6 h -6 z m 12,0 h 6 v 6 h -6 z m 12,0 h 6 v 6 h -6 z m 12,0 h 6 v 6 h -6 z m 6,0 h 6 v 6 h -6 z m 18,0 h 6 v 6 h -6 z m 42,0 h 6 v 6 h -6 z m 12,0 h 6 v 6 h -6 z m 6,0 h 6 v 6 h -6 z m 6,0 h 6 v 6 h -6 z m 24,0 h 6 v 6 h -6 z m 6,0 h 6 v 6 h -6 z m 6,0 h 6 v 6 h -6 z m 30,0 h 6 v 6 h -6 z m 12,0 h 6 v 6 h -6 z M 0,168 h 6 v 6 H 0 Z m 12,0 h 6 v 6 h -6 z m 6,0 h 6 v 6 h -6 z m 6,0 h 6 v 6 h -6 z m 12,0 h 6 v 6 h -6 z m 6,0 h 6 v 6 h -6 z m 6,0 h 6 v 6 h -6 z m 6,0 h 6 v 6 h -6 z m 6,0 h 6 v 6 h -6 z m 12,0 h 6 v 6 h -6 z m 24,0 h 6 v 6 h -6 z m 12,0 h 6 v 6 h -6 z m 12,0 h 6 v 6 h -6 z m 6,0 h 6 v 6 h -6 z m 36,0 h 6 v 6 h -6 z m 12,0 h 6 v 6 h -6 z m 6,0 h 6 v 6 h -6 z m 6,0 h 6 v 6 h -6 z m 6,0 h 6 v 6 h -6 z m 30,0 h 6 v 6 h -6 z m 6,0 h 6 v 6 h -6 z M 0,174 h 6 v 6 H 0 Z m 24,0 h 6 v 6 h -6 z m 6,0 h 6 v 6 h -6 z m 18,0 h 6 v 6 h -6 z m 12,0 h 6 v 6 h -6 z m 12,0 h 6 v 6 h -6 z m 12,0 h 6 v 6 h -6 z m 24,0 h 6 v 6 h -6 z m 6,0 h 6 v 6 h -6 z m 6,0 h 6 v 6 h -6 z m 6,0 h 6 v 6 h -6 z m 6,0 h 6 v 6 h -6 z m 12,0 h 6 v 6 h -6 z m 12,0 h 6 v 6 h -6 z m 6,0 h 6 v 6 h -6 z m 6,0 h 6 v 6 h -6 z m 24,0 h 6 v 6 h -6 z m 6,0 h 6 v 6 h -6 z m 12,0 h 6 v 6 h -6 z m 6,0 h 6 v 6 h -6 z m 12,0 h 6 v 6 h -6 z m 12,0 h 6 v 6 h -6 z M 0,180 h 6 v 6 H 0 Z m 12,0 h 6 v 6 h -6 z m 6,0 h 6 v 6 h -6 z m 6,0 h 6 v 6 h -6 z m 6,0 h 6 v 6 h -6 z m 6,0 h 6 v 6 h -6 z m 18,0 h 6 v 6 h -6 z m 6,0 h 6 v 6 h -6 z m 6,0 h 6 v 6 h -6 z m 18,0 h 6 v 6 h -6 z m 6,0 h 6 v 6 h -6 z m 30,0 h 6 v 6 h -6 z m 12,0 h 6 v 6 h -6 z m 6,0 h 6 v 6 h -6 z m 6,0 h 6 v 6 h -6 z m 12,0 h 6 v 6 h -6 z m 6,0 h 6 v 6 h -6 z m 6,0 h 6 v 6 h -6 z m 24,0 h 6 v 6 h -6 z m 6,0 h 6 v 6 h -6 z m 6,0 h 6 v 6 h -6 z m 12,0 h 6 v 6 h -6 z m 6,0 h 6 v 6 h -6 z M 0,186 h 6 v 6 H 0 Z m 30,0 h 6 v 6 h -6 z m 18,0 h 6 v 6 h -6 z m 6,0 h 6 v 6 h -6 z m 6,0 h 6 v 6 h -6 z m 6,0 h 6 v 6 h -6 z m 18,0 h 6 v 6 h -6 z m 6,0 h 6 v 6 h -6 z m 12,0 h 6 v 6 h -6 z m 12,0 h 6 v 6 h -6 z m 6,0 h 6 v 6 h -6 z m 6,0 h 6 v 6 h -6 z m 6,0 h 6 v 6 h -6 z m 6,0 h 6 v 6 h -6 z m 18,0 h 6 v 6 h -6 z m 6,0 h 6 v 6 h -6 z m 6,0 h 6 v 6 h -6 z m 18,0 h 6 v 6 h -6 z m 12,0 h 6 v 6 h -6 z m 6,0 h 6 v 6 h -6 z m 6,0 h 6 v 6 h -6 z m 12,0 h 6 v 6 h -6 z m 18,0 h 6 v 6 h -6 z M 0,192 h 6 v 6 H 0 Z m 18,0 h 6 v 6 h -6 z m 6,0 h 6 v 6 h -6 z m 12,0 h 6 v 6 h -6 z m 6,0 h 6 v 6 h -6 z m 24,0 h 6 v 6 h -6 z m 12,0 h 6 v 6 h -6 z m 18,0 h 6 v 6 h -6 z m 12,0 h 6 v 6 h -6 z m 30,0 h 6 v 6 h -6 z m 12,0 h 6 v 6 h -6 z m 6,0 h 6 v 6 h -6 z m 6,0 h 6 v 6 h -6 z m 12,0 h 6 v 6 h -6 z m 18,0 h 6 v 6 h -6 z m 6,0 h 6 v 6 h -6 z m 6,0 h 6 v 6 h -6 z m 6,0 h 6 v 6 h -6 z m 6,0 h 6 v 6 h -6 z m 12,0 h 6 v 6 h -6 z m 6,0 h 6 v 6 h -6 z m -186,6 h 6 v 6 h -6 z m 12,0 h 6 v 6 h -6 z m 30,0 h 6 v 6 h -6 z m 6,0 h 6 v 6 h -6 z m 18,0 h 6 v 6 h -6 z m 6,0 h 6 v 6 h -6 z m 12,0 h 6 v 6 h -6 z m 12,0 h 6 v 6 h -6 z m 12,0 h 6 v 6 h -6 z m 12,0 h 6 v 6 h -6 z m 6,0 h 6 v 6 h -6 z m 6,0 h 6 v 6 h -6 z m 12,0 h 6 v 6 h -6 z m 24,0 h 6 v 6 h -6 z m 12,0 h 6 v 6 h -6 z m 6,0 h 6 v 6 h -6 z m 6,0 h 6 v 6 h -6 z M 0,204 h 6 v 6 H 0 Z m 6,0 h 6 v 6 H 6 Z m 6,0 h 6 v 6 h -6 z m 6,0 h 6 v 6 h -6 z m 6,0 h 6 v 6 h -6 z m 6,0 h 6 v 6 h -6 z m 6,0 h 6 v 6 h -6 z m 24,0 h 6 v 6 h -6 z m 6,0 h 6 v 6 h -6 z m 12,0 h 6 v 6 h -6 z m 12,0 h 6 v 6 h -6 z m 6,0 h 6 v 6 h -6 z m 6,0 h 6 v 6 h -6 z m 12,0 h 6 v 6 h -6 z m 6,0 h 6 v 6 h -6 z m 6,0 h 6 v 6 h -6 z m 18,0 h 6 v 6 h -6 z m 6,0 h 6 v 6 h -6 z m 12,0 h 6 v 6 h -6 z m 6,0 h 6 v 6 h -6 z m 6,0 h 6 v 6 h -6 z m 6,0 h 6 v 6 h -6 z m 6,0 h 6 v 6 h -6 z m 6,0 h 6 v 6 h -6 z m 12,0 h 6 v 6 h -6 z m 12,0 h 6 v 6 h -6 z m 6,0 h 6 v 6 h -6 z M 0,210 h 6 v 6 H 0 Z m 36,0 h 6 v 6 h -6 z m 18,0 h 6 v 6 h -6 z m 12,0 h 6 v 6 h -6 z m 6,0 h 6 v 6 h -6 z m 6,0 h 6 v 6 h -6 z m 6,0 h 6 v 6 h -6 z m 6,0 h 6 v 6 h -6 z m 12,0 h 6 v 6 h -6 z m 6,0 h 6 v 6 h -6 z m 6,0 h 6 v 6 h -6 z m 6,0 h 6 v 6 h -6 z m 6,0 h 6 v 6 h -6 z m 12,0 h 6 v 6 h -6 z m 6,0 h 6 v 6 h -6 z m 12,0 h 6 v 6 h -6 z m 12,0 h 6 v 6 h -6 z m 12,0 h 6 v 6 h -6 z m 6,0 h 6 v 6 h -6 z m 6,0 h 6 v 6 h -6 z m 24,0 h 6 v 6 h -6 z m 6,0 h 6 v 6 h -6 z M 0,216 h 6 v 6 H 0 Z m 12,0 h 6 v 6 h -6 z m 6,0 h 6 v 6 h -6 z m 6,0 h 6 v 6 h -6 z m 12,0 h 6 v 6 h -6 z m 12,0 h 6 v 6 h -6 z m 6,0 h 6 v 6 h -6 z m 6,0 h 6 v 6 h -6 z m 6,0 h 6 v 6 h -6 z m 12,0 h 6 v 6 h -6 z m 6,0 h 6 v 6 h -6 z m 12,0 h 6 v 6 h -6 z m 6,0 h 6 v 6 h -6 z m 18,0 h 6 v 6 h -6 z m 6,0 h 6 v 6 h -6 z m 6,0 h 6 v 6 h -6 z m 12,0 h 6 v 6 h -6 z m 6,0 h 6 v 6 h -6 z m 6,0 h 6 v 6 h -6 z m 6,0 h 6 v 6 h -6 z m 12,0 h 6 v 6 h -6 z m 6,0 h 6 v 6 h -6 z m 12,0 h 6 v 6 h -6 z m 6,0 h 6 v 6 h -6 z m 6,0 h 6 v 6 h -6 z m 6,0 h 6 v 6 h -6 z m 6,0 h 6 v 6 h -6 z m 6,0 h 6 v 6 h -6 z m 6,0 h 6 v 6 h -6 z m 12,0 h 6 v 6 h -6 z M 0,222 h 6 v 6 H 0 Z m 12,0 h 6 v 6 h -6 z m 6,0 h 6 v 6 h -6 z m 6,0 h 6 v 6 h -6 z m 12,0 h 6 v 6 h -6 z m 12,0 h 6 v 6 h -6 z m 6,0 h 6 v 6 h -6 z m 6,0 h 6 v 6 h -6 z m 6,0 h 6 v 6 h -6 z m 6,0 h 6 v 6 h -6 z m 12,0 h 6 v 6 h -6 z m 12,0 h 6 v 6 h -6 z m 6,0 h 6 v 6 h -6 z m 6,0 h 6 v 6 h -6 z m 12,0 h 6 v 6 h -6 z m 6,0 h 6 v 6 h -6 z m 18,0 h 6 v 6 h -6 z m 6,0 h 6 v 6 h -6 z m 6,0 h 6 v 6 h -6 z m 12,0 h 6 v 6 h -6 z m 18,0 h 6 v 6 h -6 z m 6,0 h 6 v 6 h -6 z m 6,0 h 6 v 6 h -6 z m 12,0 h 6 v 6 h -6 z m 12,0 h 6 v 6 h -6 z m 6,0 h 6 v 6 h -6 z m 12,0 h 6 v 6 h -6 z M 0,228 h 6 v 6 H 0 Z m 12,0 h 6 v 6 h -6 z m 6,0 h 6 v 6 h -6 z m 6,0 h 6 v 6 h -6 z m 12,0 h 6 v 6 h -6 z m 12,0 h 6 v 6 h -6 z m 6,0 h 6 v 6 h -6 z m 12,0 h 6 v 6 h -6 z m 6,0 h 6 v 6 h -6 z m 6,0 h 6 v 6 h -6 z m 24,0 h 6 v 6 h -6 z m 6,0 h 6 v 6 h -6 z m 6,0 h 6 v 6 h -6 z m 6,0 h 6 v 6 h -6 z m 12,0 h 6 v 6 h -6 z m 12,0 h 6 v 6 h -6 z m 6,0 h 6 v 6 h -6 z m 12,0 h 6 v 6 h -6 z m 6,0 h 6 v 6 h -6 z m 12,0 h 6 v 6 h -6 z m 6,0 h 6 v 6 h -6 z m 6,0 h 6 v 6 h -6 z m 6,0 h 6 v 6 h -6 z m 6,0 h 6 v 6 h -6 z m 6,0 h 6 v 6 h -6 z m 6,0 h 6 v 6 h -6 z m 6,0 h 6 v 6 h -6 z m 6,0 h 6 v 6 h -6 z m 6,0 h 6 v 6 h -6 z M 0,234 h 6 v 6 H 0 Z m 36,0 h 6 v 6 h -6 z m 24,0 h 6 v 6 h -6 z m 24,0 h 6 v 6 h -6 z m 12,0 h 6 v 6 h -6 z m 6,0 h 6 v 6 h -6 z m 6,0 h 6 v 6 h -6 z m 6,0 h 6 v 6 h -6 z m 18,0 h 6 v 6 h -6 z m 6,0 h 6 v 6 h -6 z m 6,0 h 6 v 6 h -6 z m 6,0 h 6 v 6 h -6 z m 12,0 h 6 v 6 h -6 z m 30,0 h 6 v 6 h -6 z m 6,0 h 6 v 6 h -6 z m 6,0 h 6 v 6 h -6 z m 12,0 h 6 v 6 h -6 z m 6,0 h 6 v 6 h -6 z m 12,0 h 6 v 6 h -6 z M 0,240 h 6 v 6 H 0 Z m 6,0 h 6 v 6 H 6 Z m 6,0 h 6 v 6 h -6 z m 6,0 h 6 v 6 h -6 z m 6,0 h 6 v 6 h -6 z m 6,0 h 6 v 6 h -6 z m 6,0 h 6 v 6 h -6 z m 30,0 h 6 v 6 h -6 z m 6,0 h 6 v 6 h -6 z m 6,0 h 6 v 6 h -6 z m 12,0 h 6 v 6 h -6 z m 12,0 h 6 v 6 h -6 z m 24,0 h 6 v 6 h -6 z m 6,0 h 6 v 6 h -6 z m 18,0 h 6 v 6 h -6 z m 6,0 h 6 v 6 h -6 z m 6,0 h 6 v 6 h -6 z m 6,0 h 6 v 6 h -6 z m 6,0 h 6 v 6 h -6 z m 24,0 h 6 v 6 h -6 z m 12,0 h 6 v 6 h -6 z m 6,0 h 6 v 6 h -6 z m 12,0 h 6 v 6 h -6 z"
       id="path1002" /></g><metadata
     id="metadata17"><rdf:RDF><cc:Work
         rdf:about=""><dc:title>QR Code</dc:title></cc:Work></rdf:RDF></metadata><text
     xml:space="preserve"
     style="font-style:normal;font-variant:normal;font-weight:normal;font-stretch:normal;font-size:19.4813px;font-family:Outfit;-inkscape-font-specification:'Outfit, @wght=300';font-variant-ligatures:normal;font-variant-caps:normal;font-variant-numeric:normal;font-variant-east-asian:normal;font-variation-settings:'wght' 300;text-align:center;text-anchor:middle;fill:#000000;fill-opacity:1;stroke-width:0.967559"
     x="146.43521"
     y="345.79276"
     id="text855"><tspan
       sodipodi:role="line"
       id="tspan857"
       x="146.43521"
       y="345.79276">Use this QR code to add your</tspan><tspan
       sodipodi:role="line"
       id="tspan859"
       x="146.43521"
       y="370.14438">device to your Wi-Fi network</tspan></text><text
     xml:space="preserve"
     style="font-style:normal;font-variant:normal;font-weight:normal;font-stretch:normal;font-size:38.9627px;font-family:Outfit;-inkscape-font-specification:'Outfit, @wght=300';font-variant-ligatures:normal;font-variant-caps:normal;font-variant-numeric:tabular-nums;font-variant-east-asian:normal;font-variation-settings:'wght' 300;text-align:center;text-anchor:middle;fill:#000000;fill-opacity:1;stroke-width:0.967559"
     x="147.68185"
     y="51.195965"
     id="text855-53"><tspan
       sodipodi:role="line"
       id="tspan859-2"
       x="147.68185"
       y="51.195965">Step 1</tspan></text><text
     xml:space="preserve"
     style="font-style:normal;font-variant:normal;font-weight:normal;font-stretch:normal;font-size:38.9627px;font-family:Outfit;-inkscape-font-specification:'Outfit, @wght=300';font-variant-ligatures:normal;font-variant-caps:normal;font-variant-numeric:tabular-nums;font-variant-east-asian:normal;font-variation-settings:'wght' 300;text-align:center;text-anchor:middle;fill:#000000;fill-opacity:1;stroke-width:0.967559"
     x="435.48703"
     y="51.195965"
     id="text855-53-3"><tspan
       sodipodi:role="line"
       id="tspan4899"
       x="435.48703"
       y="51.195965">Step 2</tspan></text><text
     xml:space="preserve"
     style="font-style:normal;font-variant:normal;font-weight:normal;font-stretch:normal;font-size:19.4813px;font-family:Outfit;-inkscape-font-specification:'Outfit, @wght=300';font-variant-ligatures:normal;font-variant-caps:normal;font-variant-numeric:normal;font-variant-east-asian:normal;font-variation-settings:'wght' 300;text-align:center;text-anchor:middle;fill:#000000;fill-opacity:1;stroke-width:0.967559"
     x="434.43521"
     y="345.79276"
     id="text855-5"><tspan
       sodipodi:role="line"
       id="tspan920"
       x="434.43521"
       y="345.79276">Use this QR code to subscribe</tspan><tspan
       sodipodi:role="line"
       id="tspan922"
       x="434.43521"
       y="370.14438">to mail delivery notifications...</tspan></text><text
     xml:space="preserve"
     style="font-style:normal;font-variant:normal;font-weight:normal;font-stretch:normal;font-size:19.4813px;font-family:Outfit;-inkscape-font-specification:'Outfit, @wght=300';font-variant-ligatures:normal;font-variant-caps:normal;font-variant-numeric:normal;font-variant-east-asian:normal;font-variation-settings:'wght' 300;text-align:center;text-anchor:middle;fill:#000000;fill-opacity:1;stroke-width:0.967559"
     x="290.4935"
     y="409.35107"
     id="text855-5-9"><tspan
       sodipodi:role="line"
       id="tspan1198"
       x="290.4935"
       y="409.35107">...or manually subscribe to mail delivery notifications using code</tspan></text><text
     xml:space="preserve"
     style="font-style:normal;font-variant:normal;font-weight:normal;font-stretch:normal;font-size:19.4813px;font-family:Outfit;-inkscape-font-specification:'Outfit, @wght=300';font-variant-ligatures:normal;font-variant-caps:normal;font-variant-numeric:normal;font-variant-east-asian:normal;font-variation-settings:'wght' 300;text-align:center;text-anchor:middle;fill:#000000;fill-opacity:1;stroke-width:0.967559"
     x="291.19482"
     y="480.88849"
     id="text855-5-9-7"><tspan
       sodipodi:role="line"
       id="tspan1202"
       x="291.19482"
       y="480.88849">at https://smart-mailbox.mat1jaczyyy.com</tspan></text><text
     xml:space="preserve"
     style="font-style:normal;font-variant:normal;font-weight:normal;font-stretch:normal;font-size:38.9627px;font-family:'Cascadia Mono';-inkscape-font-specification:'Cascadia Mono, @wght=600';font-variant-ligatures:normal;font-variant-caps:normal;font-variant-numeric:slashed-zero;font-variant-east-asian:normal;font-variation-settings:'wght' 600;text-align:center;text-anchor:middle;fill:#000000;fill-opacity:1;stroke-width:0.967559"
     x="290.83441"
     y="453.59143"
     id="text855-5-9-1"><tspan
       sodipodi:role="line"
       id="tspan1206"
       x="290.83441"
       y="453.59143">CXIGJ5A</tspan></text></svg>
